<svg xmlns="http://www.w3.org/2000/svg" xmlns:xlink="http://www.w3.org/1999/xlink" width="60.03" height="68.38" viewBox="0 0 60.03 68.38"><defs><path id="owgua" d="M251.8 4932.14c0 1.65-1.33 2.64-3.35 2.64a5.85 5.85 0 0 1-3.87-1.34l1.28-1.5a4.3 4.3 0 0 0 2.68.98c.63 0 .95-.2.95-.55v-.02c0-.35-.26-.52-1.4-.8-1.75-.38-3.12-.88-3.12-2.53v-.02c0-1.5 1.21-2.6 3.2-2.6 1.4 0 2.5.37 3.4 1.08l-1.14 1.59a4.16 4.16 0 0 0-2.32-.8c-.55 0-.83.21-.83.5v.03c0 .37.28.53 1.44.8 1.9.4 3.08 1 3.08 2.52zm-12.53-16.5v-16.92c0-3.27 1.64-4.86 4.94-4.86h1.97c3.31 0 4.9 1.58 4.9 4.82v5.36h-3.97v-5.13c0-1.05-.5-1.54-1.52-1.54h-.68c-1.07 0-1.57.5-1.57 1.54v16.55c0 1.04.5 1.53 1.57 1.53h.76c1.02 0 1.52-.49 1.52-1.53v-5.94h3.97v6.1c0 3.28-1.64 4.87-4.94 4.87h-2c-3.32.01-4.95-1.58-4.95-4.85zm4.76 19.01h-6.71v-8.1h6.65v1.9h-4.38v1.24h3.96v1.77h-3.96v1.29h4.44zm-14.2 13.18l-11.4-3.86h23.26zm-9.3-21.36h2.21l3.52 8.17h-2.45l-.6-1.45H220l-.6 1.45H217zm-7.73 8.33c-2.58 0-4.5-1.74-4.5-4.19v-.02c0-2.36 1.9-4.22 4.45-4.22 1.45 0 2.48.42 3.36 1.17l-1.35 1.6a2.97 2.97 0 0 0-2-.78c-1.2 0-2.11.98-2.11 2.22v.02c0 1.32.93 2.26 2.24 2.26.56 0 1-.12 1.32-.34v-.98h-1.61v-1.64h3.79v3.64a5.56 5.56 0 0 1-3.6 1.26zm5.11-40.7v3.63h-4.98v7.4h4.78v3.64h-4.78v7.9h5.05v3.62h-9.12v-26.19zm2.02 0h6.38c3.32 0 4.95 1.6 4.95 4.87v6.96c0 3.27-1.64 4.87-4.95 4.87h-2.3v9.5h-4.08zm13.5 32.44h2.41v8.11h-2.27V4930l-2.12 3.17h-.05l-2.1-3.16v4.64h-2.24v-8.1h2.42l1.97 3.14zm-.35-32.44h4.07v26.2h-4.07zm21.5-9.1h-49.14c-3.97 0-5.44 1.46-5.44 5.36v47.16c0 .45.02.85.07 1.24.08.85.1 1.69.91 2.63.08.08.92.7.92.7.43.22.73.37 1.24.57l24.18 9.95c1.26.55 1.78.8 2.7.77.91.02 1.44-.2 2.7-.77l24.18-9.95c.5-.2.8-.36 1.24-.57 0 0 .83-.6.91-.7.8-.94.83-1.77.91-2.63.05-.38.07-.79.07-1.24v-47.16c0-3.9-1.46-5.36-5.45-5.36z"/></defs><g><g transform="translate(-200 -4885)"><use fill="#afb1b3" xlink:href="#owgua"/></g></g></svg>