<svg xmlns="http://www.w3.org/2000/svg" xmlns:xlink="http://www.w3.org/1999/xlink" width="682" height="431" viewBox="0 0 682 431"><defs><path id="8w5da" d="M186 469V38h330v431z"/><path id="8w5dc" d="M340.2 168.25l8.1 6.95a3.45 3.45 0 0 1 .4 4.83 3.38 3.38 0 0 1-4.8.4l-2.58-2.23 1.1 7.43-10.62 5.27-4.12-8.09z"/><path id="8w5de" d="M341.32 165.29a3.2 3.2 0 0 1 .36 4.5l-7.72 9.15 2.32 5.83 11.56-6.03a3.35 3.35 0 0 1 4.57 1.52c.8 1.65.17 3.65-1.45 4.5l-25.98 13.92-4.92 5.84 2.13-21.2 14.68-17.66a3.13 3.13 0 0 1 4.45-.37z"/><path id="8w5df" d="M356.21 164.55l-15.8 5.68a3 3 0 0 1-3.8-1.83 3.04 3.04 0 0 1 1.8-3.85l15.8-5.68a3 3 0 0 1 3.81 1.83 3.04 3.04 0 0 1-1.8 3.85z"/><path id="8w5dg" d="M131.7 323.05L81 346.29l-23.66 55.42a21.78 21.78 0 0 0 28.84-11.24l7.81-17.8a17.24 17.24 0 0 1 8.55-8.73l36.93-16.99z"/><path id="8w5dh" d="M-71.98 284.33l-29.95-19.28-64.07 14.91a24.9 24.9 0 0 0 28.27 16.56l16.06-3.09c4.21-.81 8.57.04 12.18 2.37l24.83 15.98z"/><path id="8w5di" d="M258.79 162.17l7.35 14.84-10.82 1.66z"/><path id="8w5dk" d="M220.56 170.88a20.25 20.25 0 0 1 20.16-20.34c11.13 0 20.15 9.1 20.15 20.34a20.25 20.25 0 0 1-20.16 20.33 20.25 20.25 0 0 1-20.15-20.34z"/><path id="8w5dm" d="M250.1 167.74h-.18a1.4 1.4 0 0 1-1.38-1.4v-3.39c0-.76.62-1.39 1.38-1.39h.17c.76 0 1.38.62 1.38 1.4v3.39c0 .77-.62 1.4-1.38 1.4z"/><path id="8w5do" d="M227.25 172.21a21.84 21.84 0 0 1 24.72-17.94c-5.19-7.3-13.58-9.84-23.58-11.62-11.2-1.98-14.43 3.14-25.64 1.16-11.2-1.98-10.4-6.57-21.61-8.55-11.2-1.98-12 2.6-23.21.62-9.84-1.74-16.13-8.68-23.86-8.88v44.7c8.07 4.88 8.6 5.36 19.1 7.21 11.21 1.98 12.01-2.6 23.2-.62 11.21 1.98 10.41 6.57 21.62 8.55 11.2 1.98 12-2.6 23.2-.62 4.67.82 7.44 1.9 9.89 2.7a22.06 22.06 0 0 1-3.83-16.7z"/><path id="8w5dq" d="M222.65 171.25c0-3.37 2.7-6.09 6.03-6.09a6.06 6.06 0 0 1 6.03 6.08c0 3.37-2.7 6.09-6.03 6.09a6.06 6.06 0 0 1-6.03-6.08z"/><path id="8w5dr" d="M24.18 367.43a16.98 16.98 0 0 0-5.17-23.25l-103.8-67.81-17.86 28.46 103.79 67.8a16.66 16.66 0 0 0 23.04-5.2z"/><path id="8w5ds" d="M113 246.72l-1.43-1.32a15.67 15.67 0 0 0-22.22 1.02L-3.28 348.8a16.01 16.01 0 0 0 1 22.42l1.44 1.32a15.67 15.67 0 0 0 22.22-1.03l92.64-102.37a16.01 16.01 0 0 0-1.02-22.42z"/><path id="8w5dt" d="M170.34 199.79v-1.54a12.54 12.54 0 0 0-12.47-12.53l-72.16.16a12.54 12.54 0 0 0-12.41 12.58V200a12.54 12.54 0 0 0 12.47 12.53l72.15-.17a12.53 12.53 0 0 0 12.42-12.57z"/><path id="8w5du" d="M35.85 234.62l12.08 26.14 46.78-51.47a13.45 13.45 0 0 0-.81-18.83 13.17 13.17 0 0 0-18.66.81z"/><path id="8w5dv" d="M221.69 184.8h-67.13a16.2 16.2 0 0 0-11.73 5.05L90.7 244.72a35.44 35.44 0 0 0 4.3 52.6 34.7 34.7 0 0 0 43.85-1.63l93.52-82.13c11.33-9.95 4.34-28.76-10.68-28.76z"/><path id="8w5dx" d="M221.24 192.37l-1.08 1.1a12.68 12.68 0 0 0-.03 17.75l50.93 51.56a12.4 12.4 0 0 0 17.6.04l1.08-1.1a12.68 12.68 0 0 0 .03-17.75l-50.93-51.56a12.4 12.4 0 0 0-17.6-.04z"/><path id="8w5dz" d="M46.68 262.2l8.27-9.1-5.3-4.9-8.28 9.09a3.66 3.66 0 0 0-.64 3.91 3.58 3.58 0 0 0 5.95 1zm-17.83 6.03l-7.83-17.22 7.49-8.24a2.44 2.44 0 0 1 4.06.7l5.64 13.34c.39.94.18 2.02-.54 2.73l-8.82 8.69z"/><path id="8w5dA" d="M335.43 208.64l-9.36-19.73-.46-.97-2.67-5.64-52.39 62.4c-4.7 5.6-4 14.04 1.55 18.78a13.16 13.16 0 0 0 18.6-1.56z"/><path id="8w5dC" d="M261.71 280.56a16.69 16.69 0 0 0-22.16-8.21l-129.97 60.62 14.02 30.57 129.97-60.62a16.95 16.95 0 0 0 8.14-22.36z"/><path id="8w5dE" d="M263.1 289l.04-1.94a15.84 15.84 0 0 0-15.36-16.22l-140.02-3.2a15.83 15.83 0 0 0-16.08 15.5l-.05 1.96A15.84 15.84 0 0 0 107 301.32l140.02 3.2c8.65.2 15.88-6.78 16.08-15.51z"/><radialGradient id="8w5db" cx="182.57" cy="252.31" r="223.4" gradientUnits="userSpaceOnUse"><stop offset="0" stop-color="#c8ff00"/><stop offset="1" stop-color="#c8ff00" stop-opacity="0"/></radialGradient><linearGradient id="8w5dd" x1="345.16" x2="322.82" y1="173.62" y2="199.06" gradientUnits="userSpaceOnUse"><stop offset="0" stop-color="#c8ff00"/><stop offset=".14" stop-color="#b6d320"/><stop offset=".37" stop-color="#999155"/><stop offset=".58" stop-color="#835c7f"/><stop offset=".76" stop-color="#73359c"/><stop offset=".91" stop-color="#691fae"/><stop offset="1" stop-color="#6516b5"/></linearGradient><linearGradient id="8w5dj" x1="187.01" x2="184.35" y1="170.42" y2="170.42" gradientUnits="userSpaceOnUse"><stop offset="0" stop-color="#c8ff00"/><stop offset=".04" stop-color="#c1ee0c"/><stop offset=".2" stop-color="#a0a248"/><stop offset=".35" stop-color="#876677"/><stop offset=".47" stop-color="#753b99"/><stop offset=".57" stop-color="#6920ad"/><stop offset=".63" stop-color="#6516b5"/></linearGradient><linearGradient id="8w5dl" x1="259.87" x2="233.24" y1="170.87" y2="170.87" gradientUnits="userSpaceOnUse"><stop offset="0" stop-color="#c8ff00"/><stop offset=".04" stop-color="#c1ee0c"/><stop offset=".2" stop-color="#a0a248"/><stop offset=".35" stop-color="#876677"/><stop offset=".47" stop-color="#753b99"/><stop offset=".57" stop-color="#6920ad"/><stop offset=".63" stop-color="#6516b5"/></linearGradient><linearGradient id="8w5dn" x1="187.11" x2="184.46" y1="164.66" y2="164.66" gradientUnits="userSpaceOnUse"><stop offset="0" stop-color="#c8ff00"/><stop offset=".04" stop-color="#c1ee0c"/><stop offset=".2" stop-color="#a0a248"/><stop offset=".35" stop-color="#876677"/><stop offset=".47" stop-color="#753b99"/><stop offset=".57" stop-color="#6920ad"/><stop offset=".63" stop-color="#6516b5"/></linearGradient><linearGradient id="8w5dp" x1="187.02" x2="184.36" y1="157.97" y2="157.97" gradientUnits="userSpaceOnUse"><stop offset="0" stop-color="#c8ff00"/><stop offset=".04" stop-color="#c1ee0c"/><stop offset=".2" stop-color="#a0a248"/><stop offset=".35" stop-color="#876677"/><stop offset=".47" stop-color="#753b99"/><stop offset=".57" stop-color="#6920ad"/><stop offset=".63" stop-color="#6516b5"/></linearGradient><linearGradient id="8w5dw" x1="191.87" x2="171.23" y1="181.44" y2="213.91" gradientUnits="userSpaceOnUse"><stop offset="0" stop-color="#c8ff00"/><stop offset=".04" stop-color="#c1ee0c"/><stop offset=".2" stop-color="#a0a248"/><stop offset=".35" stop-color="#876677"/><stop offset=".47" stop-color="#753b99"/><stop offset=".57" stop-color="#6920ad"/><stop offset=".63" stop-color="#6516b5"/></linearGradient><linearGradient id="8w5dy" x1="264.24" x2="247.74" y1="220.92" y2="232.78" gradientUnits="userSpaceOnUse"><stop offset="0" stop-color="#c8ff00"/><stop offset=".1" stop-color="#afc52c"/><stop offset=".21" stop-color="#999055"/><stop offset=".31" stop-color="#866377"/><stop offset=".41" stop-color="#774193"/><stop offset=".51" stop-color="#6c2aa6"/><stop offset=".59" stop-color="#671bb1"/><stop offset=".66" stop-color="#6516b5"/></linearGradient><linearGradient id="8w5dB" x1="305.93" x2="244.46" y1="226.33" y2="204.59" gradientUnits="userSpaceOnUse"><stop offset="0" stop-color="#c8ff00"/><stop offset=".1" stop-color="#afc52c"/><stop offset=".21" stop-color="#999055"/><stop offset=".31" stop-color="#866377"/><stop offset=".41" stop-color="#774193"/><stop offset=".51" stop-color="#6c2aa6"/><stop offset=".59" stop-color="#671bb1"/><stop offset=".66" stop-color="#6516b5"/></linearGradient><linearGradient id="8w5dD" x1="200.42" x2="184.93" y1="331.32" y2="312.02" gradientUnits="userSpaceOnUse"><stop offset="0" stop-color="#c8ff00"/><stop offset=".15" stop-color="#afc52c"/><stop offset=".31" stop-color="#999055"/><stop offset=".47" stop-color="#866377"/><stop offset=".62" stop-color="#774193"/><stop offset=".76" stop-color="#6c2aa6"/><stop offset=".89" stop-color="#671bb1"/><stop offset="1" stop-color="#6516b5"/></linearGradient><linearGradient id="8w5dF" x1="188.2" x2="141.04" y1="277.81" y2="313.85" gradientUnits="userSpaceOnUse"><stop offset="0" stop-color="#c8ff00"/><stop offset=".1" stop-color="#afc52c"/><stop offset=".21" stop-color="#999055"/><stop offset=".31" stop-color="#866377"/><stop offset=".41" stop-color="#774193"/><stop offset=".51" stop-color="#6c2aa6"/><stop offset=".59" stop-color="#671bb1"/><stop offset=".66" stop-color="#6516b5"/></linearGradient></defs><g><g transform="translate(166 -38)"><g><use fill="url(#8w5db)" xlink:href="#8w5da"/></g><g><g><g><g><use fill="url(#8w5dd)" xlink:href="#8w5dc"/></g><g><use fill="#c8ff00" xlink:href="#8w5de"/></g></g><g><use fill="#c8ff00" xlink:href="#8w5df"/></g></g><g><use fill="#6516b5" xlink:href="#8w5dg"/></g><g><use fill="#6516b5" xlink:href="#8w5dh"/></g><g><use fill="url(#8w5dj)" xlink:href="#8w5di"/></g><g><use fill="url(#8w5dl)" xlink:href="#8w5dk"/></g><g><use fill="url(#8w5dn)" xlink:href="#8w5dm"/></g><g><use fill="url(#8w5dp)" xlink:href="#8w5do"/></g><g><use fill="#6516b5" xlink:href="#8w5dq"/></g><g><use fill="#6516b5" xlink:href="#8w5dr"/></g><g><use fill="#6516b5" xlink:href="#8w5ds"/></g><g><use fill="#6516b5" xlink:href="#8w5dt"/></g><g><use fill="#6516b5" xlink:href="#8w5du"/></g><g><use fill="url(#8w5dw)" xlink:href="#8w5dv"/></g><g><use fill="url(#8w5dy)" xlink:href="#8w5dx"/></g><g><use fill="#6516b5" xlink:href="#8w5dz"/></g><g><use fill="url(#8w5dB)" xlink:href="#8w5dA"/></g><g><use fill="url(#8w5dD)" xlink:href="#8w5dC"/></g><g><use fill="url(#8w5dF)" xlink:href="#8w5dE"/></g></g></g></g></svg>