<svg xmlns="http://www.w3.org/2000/svg" xmlns:xlink="http://www.w3.org/1999/xlink" width="129" height="177" viewBox="0 0 129 177"><defs><path id="k0jaa" d="M145.66 2177.81l-4.6 2.13a.6.6 0 0 1-.8-.27l-9.2-18.7a.58.58 0 0 1 .28-.78l4.6-2.13a.6.6 0 0 1 .8.27l9.2 18.7c.14.28.02.64-.28.78z"/><path id="k0jac" d="M97 2174c0-17.67 14.77-32 33-32s33 14.33 33 32-14.77 32-33 32-33-14.33-33-32z"/><path id="k0jae" d="M130.2 2198.24l4.65 3.23-3.1 2.15z"/><path id="k0jaf" d="M118.64 2203.05c0-3.72 3.15-6.74 7.04-6.74s7.04 3.02 7.04 6.74c0 3.71-3.15 6.73-7.04 6.73s-7.04-3.02-7.04-6.74z"/><path id="k0jah" d="M129.72 2199.87a.53.53 0 0 1-.71.08l-.88-.65a.47.47 0 0 1-.1-.68c.18-.21.5-.25.72-.09l.88.65c.22.17.27.47.1.69z"/><path id="k0jai" d="M126.14 2196.33a.25.25 0 0 0 .06-.06H96.73c-3.61 0-6.54 2.8-6.54 6.26v.2c0 3.45 2.93 6.26 6.54 6.26h25.24c-3.66-3.92-2.26-11.66 4.17-12.66z"/><path id="k0jaj" d="M117.93 2203.81c0-1.06.9-1.93 2-1.94 1.12 0 2.02.85 2.03 1.92 0 1.06-.9 1.93-2 1.94a1.97 1.97 0 0 1-2.03-1.92z"/><path id="k0jak" d="M57.76 2218.8l.24-14.64-21-.16v1.37c0 3.22 2.6 5.95 6.06 6.38l1.94.25c3.6.54 3.96 3.58 3.95 5.34-.02 2.47 8.81 1.45 8.81 1.45z"/><path id="k0jam" d="M35 2205.94l22 .06v-2.93l-22-.07z"/><path id="k0jao" d="M51.9 2270c3.26 0 5.93-2.52 5.94-5.62l.16-48.35-11.84-.03-.16 48.35c0 3.1 2.65 5.64 5.9 5.65z"/><path id="k0jaq" d="M87.34 2285l-.51.31a34.01 34.01 0 0 0-13.1 14.03l-.73 1.46 24.94.2.05-1.4a6.31 6.31 0 0 0-5.49-6.55l-3.53-.26c-3.13-.55-.86-3.17.1-4.97 1.37-2.54-1.73-2.82-1.73-2.82z"/><path id="k0jas" d="M133.21 2261.85a5.7 5.7 0 0 0-7.84-2.05L83 2285l5.82 9.99 42.36-25.22a5.84 5.84 0 0 0 2.03-7.93z"/><path id="k0jau" d="M60 2239h.07c-.03.03-.05.03-.07 0z"/><path id="k0jaw" d="M57 2224.71l6.5 6.29 22.16-21.41a4.35 4.35 0 0 0 0-6.3 4.72 4.72 0 0 0-6.5 0z"/><path id="k0jay" d="M134.06 2268.43a5.6 5.6 0 0 0-1.7-7.85l-40.35-25.66a5.95 5.95 0 0 0-8.07 1.64 5.6 5.6 0 0 0 1.7 7.85l40.34 25.67c2.7 1.7 6.32.97 8.08-1.65z"/><path id="k0jaA" d="M89.3 2229.66a5.93 5.93 0 0 0-8.23 0L47.7 2262.3a5.61 5.61 0 0 0 0 8.04 5.93 5.93 0 0 0 8.23 0l33.37-32.64a5.61 5.61 0 0 0 0-8.04z"/><path id="k0jaC" d="M118.86 2228.09a4.85 4.85 0 0 0 6.56 1.09l20.59-13.96a4.42 4.42 0 0 0 1.13-6.3 4.85 4.85 0 0 0-6.56-1.1l-20.6 13.96a4.43 4.43 0 0 0-1.12 6.3z"/><path id="k0jaE" d="M150 2181.1l-9.64-.1-.36 29.5c-.03 2.44 2.11 4.47 4.77 4.5 2.65.03 4.85-1.95 4.87-4.4z"/><path id="k0jaG" d="M112 2206.5c0-2.47-2.08-4.5-4.63-4.5H82.63a4.58 4.58 0 0 0-4.63 4.5c0 2.47 2.08 4.5 4.63 4.5h24.74a4.58 4.58 0 0 0 4.63-4.5z"/><path id="k0jaI" d="M82.48 2243.25c-4.2-4.34-4.76-11.39-.81-16.23l18.75-22.2c2.96-3.61 8.55-3.79 11.46-.34l13.56 16.06c2.79 3.31 1.72 8.35-2.24 10.59l-24.99 14.1c-5.22 2.96-11.75 2.14-15.73-1.98z"/><path id="k0jaK" d="M49 2305h74.79c4.6 0 9.02-1.88 12.27-5.22l2.38-2.44c.75-.77.75-2 0-2.77a1.86 1.86 0 0 0-2.69 0l-1.82 1.87a15.27 15.27 0 0 1-10.93 4.65H49c-3.63 0-7.03-1.45-9.59-4.08l-2.16-2.22a1.86 1.86 0 0 0-2.7 0c-.74.77-.74 2 0 2.77l2.17 2.22A16.99 16.99 0 0 0 49 2305z"/><path id="k0jaL" d="M114 2313a5 5 0 1 1 10 0 5 5 0 0 1-10 0z"/><path id="k0jaM" d="M46 2314a5 5 0 1 1 10 0 5 5 0 0 1-10 0z"/><path id="k0jaN" d="M80.64 2231.41l.2-.59c19.74 4.67 34.8 2.34 46.04-7.12l.41.47c-7.62 6.41-16.96 9.6-28.27 9.6-5.63 0-11.75-.78-18.38-2.36z"/><path id="k0jaO" d="M117.36 2210.74l.41.47c-5.71 4.82-12.72 7.21-21.2 7.21-1.92 0-3.9-.13-5.97-.37l.48-.57c10.85 1.2 19.5-1.03 26.28-6.74z"/><path id="k0jaP" d="M114.52 2206.97c-5.07 4.24-11.27 6.34-18.77 6.34l-1.16-.02.51-.61c7.65.12 13.93-1.94 19.02-6.19z"/><path id="k0jaQ" d="M120.54 2215.06l.41.47c-6.35 5.35-14.14 8-23.56 8-3.3 0-6.82-.32-10.54-.98l.46-.55c13.96 2.39 24.87.1 33.23-6.94z"/><path id="k0jaR" d="M83.21 2226.9l.45-.53c17.04 3.62 30.17 1.33 40.05-7l.4.47c-6.98 5.89-15.54 8.81-25.91 8.81-4.63 0-9.63-.58-14.99-1.74z"/><path id="k0jaS" d="M46 2236l4.04 3 7.96-.22 4.95-5.38.05-3.15-5.5-6.25v4.5H46.12z"/><path id="k0jaU" d="M145.65 2178.81l-4.59 2.13a.6.6 0 0 1-.8-.27l-9.2-18.7a.58.58 0 0 1 .28-.78l4.6-2.13a.6.6 0 0 1 .8.27l9.2 18.7c.15.28.02.64-.29.78z"/><path id="k0jaW" d="M131.15 2169.47l1.92 3.9a3.03 3.03 0 0 0 3.96 1.36l-3.19-6.48a1.5 1.5 0 0 0-1.38-.81c-1.08.03-1.78 1.1-1.31 2.03zm10.43-5.47l3.42 6.65-3.01 3.3c-.48.52-1.38.4-1.69-.24l-2.46-5.15a.94.94 0 0 1 .19-1.07l3.55-3.49z"/><linearGradient id="k0jab" x1="137.02" x2="142.86" y1="2165.09" y2="2180.52" gradientUnits="userSpaceOnUse"><stop offset="0" stop-color="#c8ff00"/><stop offset=".1" stop-color="#afc52c"/><stop offset=".21" stop-color="#999055"/><stop offset=".31" stop-color="#866377"/><stop offset=".41" stop-color="#774193"/><stop offset=".51" stop-color="#6c2aa6"/><stop offset=".59" stop-color="#671bb1"/><stop offset=".66" stop-color="#6516b5"/></linearGradient><radialGradient id="k0jad" cx="130" cy="2174" r="29.93" gradientUnits="userSpaceOnUse"><stop offset="0" stop-color="#c8ff00"/><stop offset="1" stop-color="#c8ff00" stop-opacity="0"/></radialGradient><linearGradient id="k0jag" x1="132.65" x2="116.52" y1="2201.54" y2="2205.46" gradientUnits="userSpaceOnUse"><stop offset="0" stop-color="#c8ff00"/><stop offset=".47" stop-color="#6516b5"/></linearGradient><linearGradient id="k0jal" x1="58.67" x2="40.35" y1="2210.55" y2="2211.89" gradientUnits="userSpaceOnUse"><stop offset="0" stop-color="#c8ff00"/><stop offset=".1" stop-color="#afc52c"/><stop offset=".21" stop-color="#999055"/><stop offset=".31" stop-color="#866377"/><stop offset=".41" stop-color="#774193"/><stop offset=".51" stop-color="#6c2aa6"/><stop offset=".59" stop-color="#671bb1"/><stop offset=".66" stop-color="#6516b5"/></linearGradient><linearGradient id="k0jan" x1="56.69" x2="35.47" y1="2204.44" y2="2204.49" gradientUnits="userSpaceOnUse"><stop offset="0" stop-color="#c8ff00"/><stop offset=".1" stop-color="#afc52c"/><stop offset=".21" stop-color="#999055"/><stop offset=".31" stop-color="#866377"/><stop offset=".41" stop-color="#774193"/><stop offset=".51" stop-color="#6c2aa6"/><stop offset=".59" stop-color="#671bb1"/><stop offset=".66" stop-color="#6516b5"/></linearGradient><linearGradient id="k0jap" x1="64.18" x2="47.61" y1="2237.48" y2="2243.81" gradientUnits="userSpaceOnUse"><stop offset="0" stop-color="#c8ff00"/><stop offset=".15" stop-color="#afc52c"/><stop offset=".31" stop-color="#999055"/><stop offset=".47" stop-color="#866377"/><stop offset=".62" stop-color="#774193"/><stop offset=".76" stop-color="#6c2aa6"/><stop offset=".89" stop-color="#671bb1"/><stop offset="1" stop-color="#6516b5"/></linearGradient><linearGradient id="k0jar" x1="81.5" x2="83.83" y1="2290.93" y2="2295.83" gradientUnits="userSpaceOnUse"><stop offset="0" stop-color="#c8ff00"/><stop offset=".15" stop-color="#afc52c"/><stop offset=".31" stop-color="#999055"/><stop offset=".47" stop-color="#866377"/><stop offset=".62" stop-color="#774193"/><stop offset=".76" stop-color="#6c2aa6"/><stop offset=".89" stop-color="#671bb1"/><stop offset="1" stop-color="#6516b5"/></linearGradient><linearGradient id="k0jat" x1="106" x2="112.83" y1="2272.11" y2="2281.05" gradientUnits="userSpaceOnUse"><stop offset="0" stop-color="#c8ff00"/><stop offset=".1" stop-color="#afc52c"/><stop offset=".21" stop-color="#999055"/><stop offset=".31" stop-color="#866377"/><stop offset=".41" stop-color="#774193"/><stop offset=".51" stop-color="#6c2aa6"/><stop offset=".59" stop-color="#671bb1"/><stop offset=".66" stop-color="#6516b5"/></linearGradient><linearGradient id="k0jav" x1="60.01" x2="60.06" y1="2239.02" y2="2238.98" gradientUnits="userSpaceOnUse"><stop offset="0" stop-color="#c8ff00"/><stop offset=".1" stop-color="#afc52c"/><stop offset=".21" stop-color="#999055"/><stop offset=".31" stop-color="#866377"/><stop offset=".41" stop-color="#774193"/><stop offset=".51" stop-color="#6c2aa6"/><stop offset=".59" stop-color="#671bb1"/><stop offset=".66" stop-color="#6516b5"/></linearGradient><linearGradient id="k0jax" x1="62.68" x2="75.6" y1="2210.72" y2="2217.59" gradientUnits="userSpaceOnUse"><stop offset="0" stop-color="#c8ff00"/><stop offset=".15" stop-color="#afc52c"/><stop offset=".31" stop-color="#999055"/><stop offset=".47" stop-color="#866377"/><stop offset=".62" stop-color="#774193"/><stop offset=".76" stop-color="#6c2aa6"/><stop offset=".89" stop-color="#671bb1"/><stop offset="1" stop-color="#6516b5"/></linearGradient><linearGradient id="k0jaz" x1="112.06" x2="105.59" y1="2244.96" y2="2260.91" gradientUnits="userSpaceOnUse"><stop offset="0" stop-color="#c8ff00"/><stop offset=".15" stop-color="#afc52c"/><stop offset=".31" stop-color="#999055"/><stop offset=".47" stop-color="#866377"/><stop offset=".62" stop-color="#774193"/><stop offset=".76" stop-color="#6c2aa6"/><stop offset=".89" stop-color="#671bb1"/><stop offset="1" stop-color="#6516b5"/></linearGradient><linearGradient id="k0jaB" x1="62.76" x2="68.59" y1="2229.14" y2="2250.3" gradientUnits="userSpaceOnUse"><stop offset="0" stop-color="#c8ff00"/><stop offset=".15" stop-color="#afc52c"/><stop offset=".31" stop-color="#999055"/><stop offset=".47" stop-color="#866377"/><stop offset=".62" stop-color="#774193"/><stop offset=".76" stop-color="#6c2aa6"/><stop offset=".89" stop-color="#671bb1"/><stop offset="1" stop-color="#6516b5"/></linearGradient><linearGradient id="k0jaD" x1="128.19" x2="139.43" y1="2214.98" y2="2223.97" gradientUnits="userSpaceOnUse"><stop offset="0" stop-color="#c8ff00"/><stop offset=".1" stop-color="#afc52c"/><stop offset=".21" stop-color="#999055"/><stop offset=".31" stop-color="#866377"/><stop offset=".41" stop-color="#774193"/><stop offset=".51" stop-color="#6c2aa6"/><stop offset=".59" stop-color="#671bb1"/><stop offset=".66" stop-color="#6516b5"/></linearGradient><linearGradient id="k0jaF" x1="150.88" x2="139.79" y1="2197.32" y2="2198.12" gradientUnits="userSpaceOnUse"><stop offset="0" stop-color="#c8ff00"/><stop offset=".1" stop-color="#afc52c"/><stop offset=".21" stop-color="#999055"/><stop offset=".31" stop-color="#866377"/><stop offset=".41" stop-color="#774193"/><stop offset=".51" stop-color="#6c2aa6"/><stop offset=".59" stop-color="#671bb1"/><stop offset=".66" stop-color="#6516b5"/></linearGradient><linearGradient id="k0jaH" x1="97.19" x2="92.4" y1="2201.41" y2="2212.54" gradientUnits="userSpaceOnUse"><stop offset="0" stop-color="#c8ff00"/><stop offset=".15" stop-color="#afc52c"/><stop offset=".31" stop-color="#999055"/><stop offset=".47" stop-color="#866377"/><stop offset=".62" stop-color="#774193"/><stop offset=".76" stop-color="#6c2aa6"/><stop offset=".89" stop-color="#671bb1"/><stop offset="1" stop-color="#6516b5"/></linearGradient><linearGradient id="k0jaJ" x1="99.9" x2="105.76" y1="2218.92" y2="2240.05" gradientUnits="userSpaceOnUse"><stop offset="0" stop-color="#c8ff00"/><stop offset=".04" stop-color="#c1ee0c"/><stop offset=".2" stop-color="#a0a248"/><stop offset=".35" stop-color="#876677"/><stop offset=".47" stop-color="#753b99"/><stop offset=".57" stop-color="#6920ad"/><stop offset=".63" stop-color="#6516b5"/></linearGradient><linearGradient id="k0jaT" x1="54.5" x2="54.5" y1="2224.36" y2="2237.43" gradientUnits="userSpaceOnUse"><stop offset="0" stop-color="#c8ff00"/><stop offset=".1" stop-color="#afc52c"/><stop offset=".21" stop-color="#999055"/><stop offset=".31" stop-color="#866377"/><stop offset=".41" stop-color="#774193"/><stop offset=".51" stop-color="#6c2aa6"/><stop offset=".59" stop-color="#671bb1"/><stop offset=".66" stop-color="#6516b5"/></linearGradient><linearGradient id="k0jaV" x1="127.96" x2="145.39" y1="2163.26" y2="2174.4" gradientUnits="userSpaceOnUse"><stop offset="0" stop-color="#c8ff00"/><stop offset=".1" stop-color="#afc52c"/><stop offset=".21" stop-color="#999055"/><stop offset=".31" stop-color="#866377"/><stop offset=".41" stop-color="#774193"/><stop offset=".51" stop-color="#6c2aa6"/><stop offset=".59" stop-color="#671bb1"/><stop offset=".66" stop-color="#6516b5"/></linearGradient><linearGradient id="k0jaX" x1="137.19" x2="141.38" y1="2167.59" y2="2176" gradientUnits="userSpaceOnUse"><stop offset="0" stop-color="#c8ff00"/><stop offset=".1" stop-color="#afc52c"/><stop offset=".21" stop-color="#999055"/><stop offset=".31" stop-color="#866377"/><stop offset=".41" stop-color="#774193"/><stop offset=".51" stop-color="#6c2aa6"/><stop offset=".59" stop-color="#671bb1"/><stop offset=".66" stop-color="#6516b5"/></linearGradient></defs><g><g transform="translate(-34 -2142)"><g><use fill="url(#k0jab)" xlink:href="#k0jaa"/></g><g><use fill="url(#k0jad)" xlink:href="#k0jac"/></g><g><g><use fill="#c8ff00" xlink:href="#k0jae"/></g><g><use fill="url(#k0jag)" xlink:href="#k0jaf"/></g><g><use fill="#6516b5" xlink:href="#k0jah"/></g><g><use fill="#c8ff00" xlink:href="#k0jai"/></g><g><use fill="#6516b5" xlink:href="#k0jaj"/></g></g><g><use fill="url(#k0jal)" xlink:href="#k0jak"/></g><g><use fill="url(#k0jan)" xlink:href="#k0jam"/></g><g><use fill="url(#k0jap)" xlink:href="#k0jao"/></g><g><use fill="url(#k0jar)" xlink:href="#k0jaq"/></g><g><use fill="url(#k0jat)" xlink:href="#k0jas"/></g><g><use fill="url(#k0jav)" xlink:href="#k0jau"/></g><g><use fill="url(#k0jax)" xlink:href="#k0jaw"/></g><g><use fill="url(#k0jaz)" xlink:href="#k0jay"/></g><g><use fill="url(#k0jaB)" xlink:href="#k0jaA"/></g><g><use fill="url(#k0jaD)" xlink:href="#k0jaC"/></g><g><use fill="url(#k0jaF)" xlink:href="#k0jaE"/></g><g><use fill="url(#k0jaH)" xlink:href="#k0jaG"/></g><g><use fill="url(#k0jaJ)" xlink:href="#k0jaI"/></g><g><use fill="#6516b5" xlink:href="#k0jaK"/></g><g><use fill="#6516b5" xlink:href="#k0jaL"/></g><g><use fill="#6516b5" xlink:href="#k0jaM"/></g><g/><g><g><use fill="#c8ff00" xlink:href="#k0jaN"/></g><g><use fill="#c8ff00" xlink:href="#k0jaO"/></g><g><use fill="#c8ff00" xlink:href="#k0jaP"/></g><g><use fill="#c8ff00" xlink:href="#k0jaQ"/></g><g><use fill="#c8ff00" xlink:href="#k0jaR"/></g></g><g><use fill="url(#k0jaT)" xlink:href="#k0jaS"/></g><g><use fill="url(#k0jaV)" xlink:href="#k0jaU"/></g><g><use fill="url(#k0jaX)" xlink:href="#k0jaW"/></g></g></g></svg>