<svg xmlns="http://www.w3.org/2000/svg" xmlns:xlink="http://www.w3.org/1999/xlink" width="809" height="511" viewBox="0 0 809 511"><defs><path id="ttvia" d="M568 550V39h391v511z"/><path id="ttvic" d="M750.7 192.84l9.62 8.23c1.69 1.46 1.9 4 .45 5.72a4.01 4.01 0 0 1-5.68.46l-3.06-2.62 1.31 8.8-12.61 6.23-4.89-9.58z"/><path id="ttvie" d="M752.03 189.34a3.79 3.79 0 0 1 .43 5.32l-9.17 10.84 2.75 6.9 13.73-7.13a3.98 3.98 0 0 1 5.41 1.8c.96 1.95.2 4.32-1.7 5.33l-30.84 16.47-5.84 6.92 2.52-25.09 17.42-20.92a3.72 3.72 0 0 1 5.29-.44z"/><path id="ttvif" d="M769.7 188.47l-18.75 6.72a3.56 3.56 0 0 1-4.53-2.16 3.6 3.6 0 0 1 2.15-4.56l18.75-6.73a3.56 3.56 0 0 1 4.53 2.17 3.6 3.6 0 0 1-2.15 4.56z"/><path id="ttvig" d="M503.27 376.14l-60.17 27.52-28.07 65.62a25.87 25.87 0 0 0 34.22-13.3l9.27-21.09a20.44 20.44 0 0 1 10.14-10.33l43.83-20.12z"/><path id="ttvih" d="M261.57 330.3l-35.54-22.83L150 325.13a29.56 29.56 0 0 0 33.55 19.6l19.06-3.65c5-.96 10.17.04 14.45 2.8l29.47 18.92z"/><path id="ttvii" d="M654.08 185.65l8.73 17.57-12.84 1.97z"/><path id="ttvik" d="M608.71 195.94a24 24 0 0 1 23.91-24.07 24 24 0 0 1 23.92 24.07 24 24 0 0 1-23.91 24.08 24 24 0 0 1-23.92-24.08z"/><path id="ttvim" d="M643.76 192.24h-.2c-.9 0-1.64-.74-1.64-1.65v-4.02c0-.9.73-1.65 1.64-1.65h.2c.9 0 1.64.74 1.64 1.65v4.02c0 .91-.74 1.65-1.64 1.65z"/><path id="ttvio" d="M616.66 197.54A25.9 25.9 0 0 1 646 176.29c-6.16-8.64-16.12-11.66-27.99-13.76-13.3-2.35-17.12 3.72-30.42 1.38-13.3-2.35-12.35-7.78-25.65-10.13-13.3-2.35-14.24 3.08-27.54.74-11.67-2.06-19.14-10.28-28.31-10.52v52.92c9.58 5.8 10.21 6.36 22.67 8.55 13.3 2.35 14.25-3.09 27.53-.74 13.3 2.35 12.35 7.78 25.65 10.13 13.3 2.35 14.24-3.09 27.54-.74 5.53.97 8.82 2.24 11.73 3.2a26.07 26.07 0 0 1-4.55-19.78z"/><path id="ttviq" d="M611.2 196.38c0-3.97 3.2-7.2 7.16-7.2a7.18 7.18 0 0 1 7.15 7.2c0 3.98-3.2 7.21-7.16 7.21a7.18 7.18 0 0 1-7.15-7.2z"/><path id="ttvir" d="M375.69 428.69a20.08 20.08 0 0 0-6.14-27.52l-123.17-80.3-21.2 33.7 123.16 80.29a19.8 19.8 0 0 0 27.35-6.17z"/><path id="ttvis" d="M481.09 285.76l-1.7-1.56a18.63 18.63 0 0 0-26.37 1.21L343.09 406.64a18.93 18.93 0 0 0 1.2 26.55l1.7 1.55a18.63 18.63 0 0 0 26.37-1.2L482.29 312.3a18.93 18.93 0 0 0-1.2-26.55z"/><path id="ttvit" d="M549.12 230.2v-1.83a14.86 14.86 0 0 0-14.8-14.83l-85.62.2a14.86 14.86 0 0 0-14.73 14.89v1.82a14.86 14.86 0 0 0 14.8 14.83l85.62-.19a14.86 14.86 0 0 0 14.73-14.9z"/><path id="ttviu" d="M389.53 271.44l14.34 30.94 55.5-60.95a15.9 15.9 0 0 0-.95-22.29 15.65 15.65 0 0 0-22.15.96z"/><path id="ttviv" d="M610.06 212.44h-79.65a19.24 19.24 0 0 0-13.92 5.98l-61.86 64.97c-17.23 18.1-14.84 47.27 5.1 62.29a41.24 41.24 0 0 0 52.03-1.94l110.98-97.24c13.44-11.79 5.15-34.06-12.68-34.06z"/><path id="ttvix" d="M609.53 221.4l-1.29 1.3a15 15 0 0 0-.04 21.02l60.44 61.06a14.75 14.75 0 0 0 20.88.04l1.28-1.3a15 15 0 0 0 .04-21.01l-60.43-61.06a14.74 14.74 0 0 0-20.88-.04z"/><path id="ttviz" d="M402.38 304.09l9.82-10.77-6.3-5.82-9.82 10.77a4.32 4.32 0 0 0-.76 4.63 4.25 4.25 0 0 0 7.06 1.19zm-21.15 7.13l-9.3-20.38 8.89-9.76a2.9 2.9 0 0 1 4.81.83l6.7 15.8c.46 1.1.2 2.38-.64 3.22a7393.9 7393.9 0 0 1-10.46 10.3z"/><path id="ttviA" d="M745.03 240.67l-11.1-23.36-.55-1.16-3.17-6.67-62.17 73.9a15.9 15.9 0 0 0 1.84 22.22 15.64 15.64 0 0 0 22.08-1.84z"/><path id="ttviC" d="M657.55 325.84a19.82 19.82 0 0 0-26.3-9.73L477.03 387.9l16.64 36.2 154.23-71.78a20.05 20.05 0 0 0 9.66-26.47z"/><path id="ttviE" d="M659.2 335.84l.05-2.3A18.78 18.78 0 0 0 641 314.33l-166.15-3.79a18.77 18.77 0 0 0-19.08 18.36l-.06 2.3a18.78 18.78 0 0 0 18.24 19.22l166.16 3.78a18.76 18.76 0 0 0 19.08-18.36z"/><radialGradient id="ttvib" cx="563.94" cy="293.09" r="264.69" gradientUnits="userSpaceOnUse"><stop offset="0" stop-color="#c8ff00"/><stop offset="1" stop-color="#c8ff00" stop-opacity="0"/></radialGradient><linearGradient id="ttvid" x1="756.58" x2="730.07" y1="199.2" y2="229.33" gradientUnits="userSpaceOnUse"><stop offset="0" stop-color="#c8ff00"/><stop offset=".14" stop-color="#b6d320"/><stop offset=".37" stop-color="#999155"/><stop offset=".58" stop-color="#835c7f"/><stop offset=".76" stop-color="#73359c"/><stop offset=".91" stop-color="#691fae"/><stop offset="1" stop-color="#6516b5"/></linearGradient><linearGradient id="ttvij" x1="568.9" x2="565.75" y1="195.42" y2="195.42" gradientUnits="userSpaceOnUse"><stop offset="0" stop-color="#c8ff00"/><stop offset=".04" stop-color="#c1ee0c"/><stop offset=".2" stop-color="#a0a248"/><stop offset=".35" stop-color="#876677"/><stop offset=".47" stop-color="#753b99"/><stop offset=".57" stop-color="#6920ad"/><stop offset=".63" stop-color="#6516b5"/></linearGradient><linearGradient id="ttvil" x1="655.38" x2="623.76" y1="195.94" y2="195.94" gradientUnits="userSpaceOnUse"><stop offset="0" stop-color="#c8ff00"/><stop offset=".04" stop-color="#c1ee0c"/><stop offset=".2" stop-color="#a0a248"/><stop offset=".35" stop-color="#876677"/><stop offset=".47" stop-color="#753b99"/><stop offset=".57" stop-color="#6920ad"/><stop offset=".63" stop-color="#6516b5"/></linearGradient><linearGradient id="ttvin" x1="568.96" x2="565.81" y1="188.59" y2="188.59" gradientUnits="userSpaceOnUse"><stop offset="0" stop-color="#c8ff00"/><stop offset=".04" stop-color="#c1ee0c"/><stop offset=".2" stop-color="#a0a248"/><stop offset=".35" stop-color="#876677"/><stop offset=".47" stop-color="#753b99"/><stop offset=".57" stop-color="#6920ad"/><stop offset=".63" stop-color="#6516b5"/></linearGradient><linearGradient id="ttvip" x1="568.91" x2="565.76" y1="180.67" y2="180.67" gradientUnits="userSpaceOnUse"><stop offset="0" stop-color="#c8ff00"/><stop offset=".04" stop-color="#c1ee0c"/><stop offset=".2" stop-color="#a0a248"/><stop offset=".35" stop-color="#876677"/><stop offset=".47" stop-color="#753b99"/><stop offset=".57" stop-color="#6920ad"/><stop offset=".63" stop-color="#6516b5"/></linearGradient><linearGradient id="ttviw" x1="574.68" x2="550.18" y1="208.46" y2="246.91" gradientUnits="userSpaceOnUse"><stop offset="0" stop-color="#c8ff00"/><stop offset=".04" stop-color="#c1ee0c"/><stop offset=".2" stop-color="#a0a248"/><stop offset=".35" stop-color="#876677"/><stop offset=".47" stop-color="#753b99"/><stop offset=".57" stop-color="#6920ad"/><stop offset=".63" stop-color="#6516b5"/></linearGradient><linearGradient id="ttviy" x1="660.54" x2="640.97" y1="255.2" y2="269.25" gradientUnits="userSpaceOnUse"><stop offset="0" stop-color="#c8ff00"/><stop offset=".1" stop-color="#afc52c"/><stop offset=".21" stop-color="#999055"/><stop offset=".31" stop-color="#866377"/><stop offset=".41" stop-color="#774193"/><stop offset=".51" stop-color="#6c2aa6"/><stop offset=".59" stop-color="#671bb1"/><stop offset=".66" stop-color="#6516b5"/></linearGradient><linearGradient id="ttviB" x1="710.03" x2="637.08" y1="261.63" y2="235.88" gradientUnits="userSpaceOnUse"><stop offset="0" stop-color="#c8ff00"/><stop offset=".1" stop-color="#afc52c"/><stop offset=".21" stop-color="#999055"/><stop offset=".31" stop-color="#866377"/><stop offset=".41" stop-color="#774193"/><stop offset=".51" stop-color="#6c2aa6"/><stop offset=".59" stop-color="#671bb1"/><stop offset=".66" stop-color="#6516b5"/></linearGradient><linearGradient id="ttviD" x1="584.82" x2="566.44" y1="385.93" y2="363.09" gradientUnits="userSpaceOnUse"><stop offset="0" stop-color="#c8ff00"/><stop offset=".15" stop-color="#afc52c"/><stop offset=".31" stop-color="#999055"/><stop offset=".47" stop-color="#866377"/><stop offset=".62" stop-color="#774193"/><stop offset=".76" stop-color="#6c2aa6"/><stop offset=".89" stop-color="#671bb1"/><stop offset="1" stop-color="#6516b5"/></linearGradient><linearGradient id="ttviF" x1="570.32" x2="514.36" y1="322.59" y2="365.25" gradientUnits="userSpaceOnUse"><stop offset="0" stop-color="#c8ff00"/><stop offset=".1" stop-color="#afc52c"/><stop offset=".21" stop-color="#999055"/><stop offset=".31" stop-color="#866377"/><stop offset=".41" stop-color="#774193"/><stop offset=".51" stop-color="#6c2aa6"/><stop offset=".59" stop-color="#671bb1"/><stop offset=".66" stop-color="#6516b5"/></linearGradient></defs><g><g transform="translate(-150 -39)"><g><use fill="url(#ttvib)" xlink:href="#ttvia"/></g><g><g><g><g><use fill="url(#ttvid)" xlink:href="#ttvic"/></g><g><use fill="#c8ff00" xlink:href="#ttvie"/></g></g><g><use fill="#c8ff00" xlink:href="#ttvif"/></g></g><g><use fill="#6516b5" xlink:href="#ttvig"/></g><g><use fill="#6516b5" xlink:href="#ttvih"/></g><g><use fill="url(#ttvij)" xlink:href="#ttvii"/></g><g><use fill="url(#ttvil)" xlink:href="#ttvik"/></g><g><use fill="url(#ttvin)" xlink:href="#ttvim"/></g><g><use fill="url(#ttvip)" xlink:href="#ttvio"/></g><g><use fill="#6516b5" xlink:href="#ttviq"/></g><g><use fill="#6516b5" xlink:href="#ttvir"/></g><g><use fill="#6516b5" xlink:href="#ttvis"/></g><g><use fill="#6516b5" xlink:href="#ttvit"/></g><g><use fill="#6516b5" xlink:href="#ttviu"/></g><g><use fill="url(#ttviw)" xlink:href="#ttviv"/></g><g><use fill="url(#ttviy)" xlink:href="#ttvix"/></g><g><use fill="#6516b5" xlink:href="#ttviz"/></g><g><use fill="url(#ttviB)" xlink:href="#ttviA"/></g><g><use fill="url(#ttviD)" xlink:href="#ttviC"/></g><g><use fill="url(#ttviF)" xlink:href="#ttviE"/></g></g></g></g></svg>