<svg xmlns="http://www.w3.org/2000/svg" xmlns:xlink="http://www.w3.org/1999/xlink" width="110" height="21" viewBox="0 0 110 21"><defs><path id="fef5a" d="M258.44 5098.62c-.67.04-1.35.01-2.02.01-1.26 0-1.26 0-1.69 1.18l-2.52 7c-.96-2.69-1.87-5.19-2.75-7.7-.12-.34-.25-.5-.67-.49-.92.04-1.85.04-2.78 0-.44-.02-.59.09-.59.55.02 3.66.02 7.33 0 10.99 0 .4.08.56.54.54a18.4 18.4 0 0 1 2 0c.48.02.59-.14.58-.58-.03-1.76-.01-3.52 0-5.3 0-.11-.12-.3.1-.38.02.02.06.03.06.05.5 1.43.99 2.86 1.5 4.28.23.63.24 1.52.76 1.82.52.29 1.36.05 2.04.1.44.02.6-.14.73-.52.59-1.75 1.2-3.5 1.82-5.24.06-.16.03-.37.3-.43 0 1.89.02 3.76 0 5.63-.02.45.12.58.57.56.65-.04 1.3-.04 1.95 0 .43.02.6-.08.6-.55-.02-3.66-.02-7.33 0-10.99 0-.38-.08-.55-.53-.53z"/><path id="fef5b" d="M272.82 5098.62c-.65.03-1.32.04-1.98 0-.45-.02-.59.1-.58.56.03 1.99.01 3.96.01 5.95l-.13.07-.4-.6c-1.24-1.84-2.48-3.68-3.7-5.53-.2-.3-.4-.46-.8-.45-.83.04-1.65.01-2.48.01-.71 0-.75.05-.33.65.44.64.6 1.31.58 2.09-.03 2.9 0 5.81-.02 8.72 0 .42.08.6.55.58a16 16 0 0 1 1.99 0c.44.03.53-.13.53-.54-.02-1.5-.01-3.02-.01-4.53v-1.02c1.03 1.49 1.93 2.8 2.86 4.11.46.66.75 1.61 1.45 1.9.71.28 1.63.07 2.45.07h.06c.38.06.46-.13.45-.47v-11.1c.02-.4-.12-.48-.5-.47z"/><path id="fef5c" d="M213.11 5098.62c-.68.02-1.37.04-2.05 0-.5-.03-.6.15-.6.6.03 1.98.01 3.97.01 6.16l-.41-.6-3.8-5.7c-.16-.25-.3-.46-.68-.46-.94.03-1.87.02-2.8.01-.45 0-.5.17-.25.46.69.8.7 1.75.7 2.73-.03 2.74 0 5.5-.02 8.25 0 .46.09.64.59.61a15.9 15.9 0 0 1 1.98 0c.4.02.5-.11.5-.49-.02-1.6 0-3.2 0-4.8 0-.19-.1-.4.15-.6l2.7 3.9c.45.66.78 1.55 1.4 1.87.66.33 1.6.1 2.42.11h.14c.37.06.45-.12.45-.46v-11.16c0-.35-.11-.44-.43-.43z"/><path id="fef5d" d="M288.72 5104.15l.53-1.53.96 2.71c.09.22 0 .29-.22.28h-.06c-1.76.16-1.76.16-1.2-1.46zm-1.96 5.47c.36-1.07.36-1.07 1.53-1.07h.92c.7.01 1.55-.19 2.07.12.44.25.5 1.1.72 1.69.09.23.19.38.5.37h3.13c-.03-.14-.03-.23-.06-.32l-4.4-11.43c-.1-.3-.29-.35-.57-.35-.87 0-1.75.03-2.62-.01-.38 0-.53.12-.65.44-.59 1.57-1.21 3.14-1.8 4.7-.88 2.28-1.76 4.56-2.65 6.91.13.03.18.05.23.05h2.06c1.2.01 1.2.01 1.59-1.1z"/><path id="fef5e" d="M222.63 5103.88c-.68-.4-1.38-.75-2.05-1.15-.28-.16-.54-.4-.44-.76.1-.37.42-.5.8-.54.22-.03.46-.04.69-.02.83.04 1.58.37 2.42.72 0-.92-.02-1.75 0-2.6.02-.35-.14-.5-.47-.6a8.31 8.31 0 0 0-3.36-.24c-1.85.22-3.04 1.2-3.39 2.72-.39 1.69.23 3.05 1.86 4 .68.4 1.38.74 2.07 1.13.34.2.68.43.54.9-.13.44-.53.5-.94.52-.42.02-.84-.04-1.25-.12-.7-.14-1.3-.47-1.99-.78v2.83c-.02.34.21.38.47.46 1.04.31 2.1.42 3.2.38 2.57-.1 4.12-1.74 3.88-4.14-.15-1.25-.97-2.08-2.04-2.71z"/><path id="fef5f" d="M305.18 5110.08v-3.1c-1.98 1.16-3.73 1.03-4.87-.27a3.2 3.2 0 0 1 .06-4.14c1.11-1.26 2.87-1.35 4.82-.17 0-1.01-.02-1.94 0-2.85.02-.38-.13-.54-.49-.64a6.77 6.77 0 0 0-2.46-.27c-2.54.19-4.4 1.4-5.31 3.74a5.77 5.77 0 0 0 1.32 6.59c1.83 1.82 4.1 2.11 6.55 1.42.15-.05.38-.07.38-.31z"/><path id="fef5g" d="M279.97 5098.62c-.73.03-1.48.02-2.2 0-.33 0-.47.04-.47.4v11.28c0 .32.09.44.44.43.74-.02 1.48-.03 2.2 0 .47.03.55-.14.55-.54-.02-1.81-.01-3.63-.01-5.44v-5.64c0-.38-.1-.5-.51-.49z"/><path id="fef5h" d="M199.18 5104.74v-5.63c0-.39-.1-.5-.5-.49-.74.03-1.48.02-2.22 0-.32 0-.46.06-.46.4v11.27c0 .32.09.44.43.43a14.9 14.9 0 0 1 1.93 0c.61.05.85-.1.83-.75-.04-1.74-.01-3.49-.01-5.23z"/><path id="fef5i" d="M298.47 5114c-.41.04-.98-.27-1.19.4-.21.7-.52 1.38-.78 2.07l-.15-.01c-.27-.71-.53-1.43-.81-2.13-.24-.6-.79-.28-1.2-.31-.45-.05-.26.34-.27.53-.02.96.01 1.92-.02 2.89 0 .37.04.56.54.56.46 0 .58-.14.56-.54-.02-.35-.08-.73.1-1.27.23.57.42.97.54 1.38.08.33.28.42.62.42.33 0 .5-.1.63-.4.18-.49.26-1.02.66-1.53 0 .56.02 1.03-.01 1.5-.03.4.17.43.52.43.36 0 .59-.02.57-.45-.03-.98 0-1.97-.02-2.95 0-.21.25-.63-.29-.58z"/><path id="fef5j" d="M287.45 5115.47c-.09 0-.19-.02-.26 0-.24.09-.66-.26-.71.32-.04.46.12.65.6.58.07 0 .17 0 .2.12.02.12-.06.2-.14.28a.91.91 0 0 1-.88.2c-.39-.09-.6-.36-.7-.72-.22-.87.5-1.52 1.5-1.24.64.18.59-.12.59-.53-.01-.29-.09-.44-.41-.47a3.75 3.75 0 0 0-1.27.01 2 2 0 0 0-1.48 2.1c.08 1.03.82 1.8 1.83 1.87 1.03.07 1.85-.48 2.06-1.4.2-.97.1-1.12-.93-1.12z"/><path id="fef5k" d="M291.53 5116.2c-.02.14-.33.08-.55.01l.25-.77c.24.23.34.51.3.76zm.51-1.76c-.15-.48-.44-.45-.82-.48-.41-.02-.59.14-.72.5-.33.94-.69 1.85-1.02 2.79-.09.22-.34.51-.15.67.16.13.52.05.79.07.29 0 .3-.23.36-.41.07-.19.13-.36.36-.33.49.05 1.14-.3 1.3.55.07.3.39.13.46.16.7.13.74-.08.54-.56-.4-.97-.78-1.95-1.1-2.96z"/><path id="fef5l" d="M301.46 5116.98c-.18.02-.35 0-.53 0-.17 0-.24-.1-.24-.24 0-.15.04-.27.2-.29.15 0 .31-.02.47 0 .36.03.55-.03.55-.48 0-.45-.19-.52-.55-.47h-.34c-.18 0-.35 0-.34-.26.01-.27.2-.25.37-.25.2 0 .4-.02.6 0 .39.04.35-.21.34-.46 0-.22.1-.45-.32-.49-1.98-.19-1.98-.2-1.98 1.73v.53c.04.53-.25 1.27.12 1.56.35.26 1.05.07 1.6.1.38.02.6-.02.6-.5 0-.47-.2-.51-.55-.48z"/><path id="fef5m" d="M305.16 5115.57c-.06-.05-.14-.08-.21-.13-.14-.1-.35-.17-.27-.37.07-.23.3-.19.48-.15.1.01.22.02.31.08.27.15.3.02.33-.23.05-.7-.28-.92-1.17-.76-.54.1-.9.38-1 .93-.09.52.09.94.52 1.23.2.13.39.23.59.37.12.08.28.15.2.34-.07.18-.24.18-.37.16-.27-.05-.53-.14-.88-.24.12.37-.2.78.2 1.03.6.36 1.62.1 1.93-.44.39-.68.15-1.33-.66-1.82z"/><path id="fef5n" d="M234.3 5097.22c3.48 1.14 5.58 3.4 5.64 6.9.07 3.64-2.06 6.02-5.68 7.22 1.75.65 5.56-.3 7.45-2.95a7.11 7.11 0 0 0-.68-9.08c-1.9-1.92-5.27-2.74-6.73-2.09z"/><path id="fef5o" d="M230.76 5103.88c0-1.94 1-3.27 2.65-4.2a4.02 4.02 0 0 0-4.63 1.44 4.65 4.65 0 0 0-.12 5.33 4.14 4.14 0 0 0 4.8 1.63c-1.7-.94-2.7-2.26-2.7-4.2z"/></defs><g><g transform="translate(-196 -5097)"><g><use fill="#afb1b3" xlink:href="#fef5a"/></g><g><use fill="#afb1b3" xlink:href="#fef5b"/></g><g><use fill="#afb1b3" xlink:href="#fef5c"/></g><g><use fill="#afb1b3" xlink:href="#fef5d"/></g><g><use fill="#afb1b3" xlink:href="#fef5e"/></g><g><use fill="#afb1b3" xlink:href="#fef5f"/></g><g><use fill="#afb1b3" xlink:href="#fef5g"/></g><g><use fill="#afb1b3" xlink:href="#fef5h"/></g><g><use fill="#afb1b3" xlink:href="#fef5i"/></g><g><use fill="#afb1b3" xlink:href="#fef5j"/></g><g><use fill="#afb1b3" xlink:href="#fef5k"/></g><g><use fill="#afb1b3" xlink:href="#fef5l"/></g><g><use fill="#afb1b3" xlink:href="#fef5m"/></g><g><use fill="#afb1b3" xlink:href="#fef5n"/></g><g><use fill="#afb1b3" xlink:href="#fef5o"/></g></g></g></svg>