<svg xmlns="http://www.w3.org/2000/svg" xmlns:xlink="http://www.w3.org/1999/xlink" width="43.93" height="44.45" viewBox="0 0 43.93 44.45"><defs><path id="sbbba" d="M212.94 3609.88l-3.83-21.62c-.23-1.5-.78-3.02-1.71-4.48a9.05 9.05 0 0 0-5.5-3.97c-8.93-2.16-15.55 6.83-11.65 14.86v.01l9.28 20.12c.26.63.6 1.25 1.05 1.85a5.91 5.91 0 0 0 2.96 2.14c6.07 1.92 10.85-3.47 9.4-8.91z"/><path id="sbbbc" d="M230.28 3596.33a8.16 8.16 0 0 0-3.58-3.1l-22.72-12.64-.01.01a9.1 9.1 0 0 0-2.07-.8c-9.66-2.33-16.63 8.42-10.45 16.85a8.35 8.35 0 0 0 3.73 2.85l22.97 10.4c.5.28 1 .52 1.55.7 8.8 2.77 15.46-6.6 10.58-14.27z"/><path id="sbbbe" d="M230.27 3596.33a8.12 8.12 0 0 0-4.95-3.57 9.33 9.33 0 0 0-5.99.46l-24.18 9.2-.37.23c-6.23 2.5-9.27 10.7-4.3 17.47a8.86 8.86 0 0 0 4.45 3.21c3.3 1.04 6.34.64 8.78-.68h.03l23.59-12.75.07-.06c4.24-2.51 6.14-8.39 2.87-13.51z"/><path id="sbbbg" d="M219.53 3587.59c.74-1.7.69-3.8-.53-5.72a5.03 5.03 0 0 0-3.06-2.2 5.6 5.6 0 0 0-6.34 2.67l-19.38 23.8v.04c-2.77 3.7-3.24 9.17.27 13.95a8.86 8.86 0 0 0 4.44 3.2c6.59 2.08 12.15-1.57 13.9-6.83z"/><path id="sbbbi" d="M196.4 3615.42v-27.43h27.11v27.43z"/><path id="sbbbj" d="M198.97 3611.99v-1.71h10.17v1.71z"/><path id="sbbbk" d="M202.37 3593.9h-3.41v-2.3h9.3v2.3h-3.41v9.06h-2.48z"/><path id="sbbbl" d="M208.4 3597.32v-.04c0-3.22 2.4-5.87 5.85-5.87 2.12 0 3.39.72 4.43 1.75l-1.57 1.84a4.13 4.13 0 0 0-2.87-1.29c-1.9 0-3.26 1.6-3.26 3.54v.03c0 1.95 1.33 3.58 3.26 3.58 1.28 0 2.07-.52 2.95-1.34l1.57 1.61a5.72 5.72 0 0 1-4.6 2.03 5.7 5.7 0 0 1-5.76-5.84"/><linearGradient id="sbbbb" x1="189.11" x2="213.2" y1="3599.34" y2="3599.34" gradientUnits="userSpaceOnUse"><stop offset="0" stop-color="#905cfb"/><stop offset=".07" stop-color="#776cf9"/><stop offset=".17" stop-color="#5581f7"/><stop offset=".29" stop-color="#3b92f5"/><stop offset=".41" stop-color="#269ff3"/><stop offset=".55" stop-color="#17a9f3"/><stop offset=".71" stop-color="#0faef2"/><stop offset=".97" stop-color="#0bb0f2"/></linearGradient><linearGradient id="sbbbd" x1="191.34" x2="231.44" y1="3585.62" y2="3607.33" gradientUnits="userSpaceOnUse"><stop offset="0" stop-color="#905cfb"/><stop offset=".07" stop-color="#776cf9"/><stop offset=".17" stop-color="#5581f7"/><stop offset=".29" stop-color="#3b92f5"/><stop offset=".41" stop-color="#269ff3"/><stop offset=".55" stop-color="#17a9f3"/><stop offset=".71" stop-color="#0faef2"/><stop offset=".97" stop-color="#0bb0f2"/></linearGradient><linearGradient id="sbbbf" x1="175.9" x2="223.13" y1="3624.44" y2="3600.55" gradientUnits="userSpaceOnUse"><stop offset="0" stop-color="#3bea61"/><stop offset=".12" stop-color="#30de80"/><stop offset=".3" stop-color="#24cea8"/><stop offset=".48" stop-color="#1ac1c9"/><stop offset=".66" stop-color="#12b7df"/><stop offset=".82" stop-color="#0db2ed"/><stop offset=".97" stop-color="#0bb0f2"/></linearGradient><linearGradient id="sbbbh" x1="212.44" x2="191.4" y1="3583.2" y2="3628.69" gradientUnits="userSpaceOnUse"><stop offset="0" stop-color="#3bea61"/><stop offset=".09" stop-color="#2fdb87"/><stop offset=".2" stop-color="#24cea8"/><stop offset=".31" stop-color="#1bc3c3"/><stop offset=".43" stop-color="#14bad8"/><stop offset=".56" stop-color="#10b5e7"/><stop offset=".72" stop-color="#0cb1ef"/><stop offset=".97" stop-color="#0bb0f2"/></linearGradient></defs><g><g transform="translate(-188 -3579.48)"><g><g><use fill="url(#sbbbb)" xlink:href="#sbbba"/></g><g><use fill="url(#sbbbd)" xlink:href="#sbbbc"/></g><g><use fill="url(#sbbbf)" xlink:href="#sbbbe"/></g><g><use fill="url(#sbbbh)" xlink:href="#sbbbg"/></g></g><g><g><use xlink:href="#sbbbi"/></g><g><use fill="#fff" xlink:href="#sbbbj"/></g><g><use fill="#fff" xlink:href="#sbbbk"/></g><g><use fill="#fff" xlink:href="#sbbbl"/></g></g></g></g></svg>