<svg xmlns="http://www.w3.org/2000/svg" xmlns:xlink="http://www.w3.org/1999/xlink" width="140.6" height="37" viewBox="0 0 140.6 37"><defs><path id="5rrza" d="M81.68 4586.64v-1.72h-2.65v-2.34H74.1l.01 2.34h-2.66v1.72h2.66v11.56h4.9v-11.56z"/><path id="5rrzb" d="M65.9 4586.08a5.74 5.74 0 0 0-3.91 1.74v-1.21h-4.87v11.58h4.87v-7.6c0-1.02 1-2.14 2.32-2.14a2.24 2.24 0 0 1 2.25 2.13v7.61h4.87v-6.3a5.45 5.45 0 0 0-5.53-5.8z"/><path id="5rrzc" d="M49.51 4598.21v-11.59h4.91v11.59z"/><path id="5rrzd" d="M41.67 4592.93l-7.03-12.14h-5.08v17.42h5.05v-12.15l7.06 12.15h5.04v-17.42h-5.04z"/><path id="5rrze" d="M49.5 4584.34v-3.56h4.92v3.56z"/><path id="5rrzf" d="M86.58 4588.38a1.98 1.98 0 0 1 1.72-1.05c.65 0 1.34.34 1.73 1.05.32.58.33 1.25.33 2.27h-4.1c-.02-1.02 0-1.7.32-2.27zm8.9 4.08c0-3.6-3.24-6.57-7.22-6.57-4 0-7.22 2.9-7.22 6.5s3.24 6.51 7.22 6.51c3.3 0 6.1-2.01 6.96-4.75h-4.9v.7c0 2.12-1.3 2.6-2.03 2.6-.73 0-2.05-.48-2.05-2.6l.01-2.39z"/><path id="5rrzg" d="M137.8 4603.5H34.03c-8.76.03-14.08-6.25-14.08-13.96 0-7.71 5.37-13.94 14.08-13.96H137.8c8.73.02 14.1 6.25 14.1 13.96 0 7.7-5.33 13.98-14.09 13.95zm.05-32.48H33.99c-10.99-.03-18.38 8.41-18.38 18.53 0 10.12 7.37 18.47 18.39 18.47h103.82c11.04 0 18.4-8.35 18.4-18.47s-7.38-18.56-18.37-18.53z"/><path id="5rrzh" d="M142.95 4582.71v-1.24h.77c.4 0 .82.09.82.58 0 .62-.43.66-.91.66zm2.17-.61c0-.78-.43-1.13-1.31-1.13h-1.42v3.96h.56v-1.72h.65l.98 1.72h.63l-1.06-1.74c.55-.08.97-.39.97-1.1z"/><path id="5rrzi" d="M143.63 4585.8c-1.46 0-2.61-1.21-2.61-2.87 0-1.63 1.15-2.86 2.61-2.86s2.61 1.23 2.61 2.86c0 1.66-1.14 2.87-2.6 2.87zm0-6.29a3.33 3.33 0 0 0-3.27 3.44c0 1.99 1.5 3.44 3.27 3.44 1.76 0 3.25-1.45 3.25-3.44a3.32 3.32 0 0 0-3.25-3.44z"/><path id="5rrzj" d="M105.75 4586.08a5.74 5.74 0 0 0-3.91 1.74v-1.21h-4.87v11.58h4.87l-.01-7.6c0-1.02 1-2.14 2.33-2.14a2.24 2.24 0 0 1 2.25 2.13v7.61h4.87v-6.3a5.45 5.45 0 0 0-5.53-5.8z"/><path id="5rrzk" d="M137.42 4594.77c0 1.84-1.03 2.6-2.01 2.6-1 0-2.02-.76-2.02-2.6v-2.5-2.42c0-1.84 1.03-2.6 2.02-2.6.97 0 2 .76 2 2.6v4.92zm-1.97-8.94c-3.96 0-7.16 2.9-7.16 6.5s3.2 6.51 7.16 6.51c3.95 0 7.17-2.9 7.17-6.5-.01-3.6-3.22-6.51-7.17-6.51z"/><path id="5rrzl" d="M121.89 4592.35v2.05c0 1.79-1.16 2.25-1.93 2.25-.78 0-1.92-.46-1.92-2.25v-2.05-2.07c0-1.8 1.14-2.24 1.92-2.24.77 0 1.93.45 1.93 2.24v2.07zm-.04-5.15a6.23 6.23 0 0 0-2.78-1.03c-3.53-.33-6.23 3-6.23 6.07a6.17 6.17 0 0 0 3.36 5.74c1.65.81 3.76.83 5.64-.44v.67h4.85v-17.42h-4.84v6.4z"/></defs><g><g transform="translate(-15.61 -4571.02)"><g><g><g><use fill="#afb1b3" xlink:href="#5rrza"/></g><g><use fill="#afb1b3" xlink:href="#5rrzb"/></g><g><use fill="#afb1b3" xlink:href="#5rrzc"/></g><g><use fill="#afb1b3" xlink:href="#5rrzd"/></g><g><use fill="#afb1b3" xlink:href="#5rrze"/></g><g><use fill="#afb1b3" xlink:href="#5rrzf"/></g><g><use fill="#afb1b3" xlink:href="#5rrzg"/></g><g><use fill="#afb1b3" xlink:href="#5rrzh"/></g><g><use fill="#afb1b3" xlink:href="#5rrzi"/></g><g><use fill="#afb1b3" xlink:href="#5rrzj"/></g><g><use fill="#afb1b3" xlink:href="#5rrzk"/></g><g><use fill="#afb1b3" xlink:href="#5rrzl"/></g></g></g></g></g></svg>