<svg xmlns="http://www.w3.org/2000/svg" xmlns:xlink="http://www.w3.org/1999/xlink" width="107.5" height="149.5" viewBox="0 0 107.5 149.5"><defs><path id="ly3wa" d="M120 4137.5a52.5 52.5 0 1 1 105 0 52.5 52.5 0 0 1-105 0z"/><path id="ly3wc" d="M155.57 4176.92l2.28 16.63-9.58-6.27zm36.3 16l2.04-14.98 6.59 9.33zm35.56 25a6.6 6.6 0 0 0-2.53-4.34 6.52 6.52 0 0 0-3.49-1.72l-31.45-5.06.02-.12 20.43-13.54a5.26 5.26 0 0 0 1.76-6.47c-.12-.47-.31-.93-.58-1.36l-18.12-26.1c-.31-.54-.66-1.04-1.03-1.5a4.85 4.85 0 0 0-2.01-1.81 6.52 6.52 0 0 0-3.52-1.1l-24.7-.22a6.38 6.38 0 0 0-3.97 1.38c-.76.39-1.43.98-1.91 1.76l-19.15 27.59c-.27.43-.46.9-.57 1.36a5.26 5.26 0 0 0 1.76 6.47l20.72 13.73-31 4.99a6.56 6.56 0 0 0-3.48 1.72 6.6 6.6 0 0 0 3.13 11.81l18.97 2.59-6.44 3.55a17.2 17.2 0 0 0 16.96 1.34l5.53-2.59-.08-.12 10.83 1.48c.42.06.84.08 1.25.05.41.03.83.01 1.25-.05l10.83-1.48-.08.12 5.53 2.6a17.18 17.18 0 0 0 16.96-1.35l-6.44-3.55 18.97-2.59a6.65 6.65 0 0 0 5.65-7.46z"/><path id="ly3wd" d="M165.64 4142.24a8.6 8.6 0 0 0 16.67 0 2.5 2.5 0 0 0 .3-4.92v-5.6a8.6 8.6 0 0 0-17.2 0v5.57a2.5 2.5 0 0 0-2.15 2.46 2.5 2.5 0 0 0 2.38 2.5z"/><radialGradient id="ly3wb" cx="172.5" cy="4137.5" r="47.6" gradientUnits="userSpaceOnUse"><stop offset="0" stop-color="#c8ff00"/><stop offset="1" stop-color="#c8ff00" stop-opacity="0"/></radialGradient></defs><g><g transform="translate(-120 -4085)"><g><use fill="url(#ly3wb)" xlink:href="#ly3wa"/></g><g><g><use fill="#6516b5" xlink:href="#ly3wc"/></g><g><use fill="#6516b5" xlink:href="#ly3wd"/></g></g></g></g></svg>