<svg xmlns="http://www.w3.org/2000/svg" xmlns:xlink="http://www.w3.org/1999/xlink" width="32" height="45" viewBox="0 0 32 45"><defs><path id="nkkmb" d="M60.01 1526.45a2 2 0 0 1 1.73-2.2l2.22-.24a1.96 1.96 0 0 1 2.13 1.78l.83 8.18h-.03l.02.1.07 2.13.02.13c.05 1.38-1 2.54-2.33 2.58l-2.61.09a1.54 1.54 0 0 1-1.57-1.52l-.04-1.07c-.02-.65.46-1.1.46-1.1z"/><path id="nkkmc" d="M41.99 1526.45a2 2 0 0 0-1.73-2.2l-2.22-.24a1.96 1.96 0 0 0-2.13 1.78l-.83 8.18h.03l-.02.1-.07 2.13-.02.13a2.46 2.46 0 0 0 2.33 2.58l2.61.09c.84.03 1.55-.65 1.57-1.52l.04-1.07c.02-.65-.46-1.1-.46-1.1z"/><path id="nkkmd" d="M56 1542c-1.65 0-3-1.24-3-2.76v-3.26c0-1.09.97-1.98 2.15-1.98h1.7c1.18 0 2.15.89 2.15 1.98v3.26c0 1.52-1.35 2.76-3 2.76"/><path id="nkkme" d="M59 1526.2c0-.66-.52-1.2-1.15-1.2h-3.7c-.63 0-1.15.54-1.15 1.2v12.8c0 1.1.86 2 1.9 2h2.2c1.04 0 1.9-.9 1.9-2z"/><path id="nkkma" d="M50.58 1555h-5.81v-7.87h5.81v7.87z"/><path id="nkkmg" d="M47.68 1555c1.6 0 2.9-1.22 2.9-2.71v-3.21c0-1.07-.94-1.95-2.08-1.95h-1.65c-1.14 0-2.08.88-2.08 1.95v3.2c0 1.5 1.3 2.72 2.9 2.72"/><path id="nkkmh" d="M48.85 1531h-3.7c-.64 0-1.15.54-1.15 1.19v16.83c0 1.09.86 1.98 1.9 1.98h2.2c1.04 0 1.9-.9 1.9-1.98v-16.83c0-.65-.52-1.19-1.15-1.19"/><path id="nkkmi" d="M60.81 1521H41.2a3.23 3.23 0 0 0-3.19 3.26v3.75c0 1.8 1.43 3.26 3.19 3.26h2.1a8.49 8.49 0 1 0 15.25 0h2.27a3.23 3.23 0 0 0 3.19-3.26v-3.75c0-1.8-1.44-3.26-3.19-3.26"/><path id="nkkmj" d="M57 1525.87c0-.81-.62-1.47-1.4-1.48a4.87 4.87 0 0 0-4.57-3.39 4.87 4.87 0 0 0-4.57 3.4l-.05-.01c-.78 0-1.41.66-1.41 1.48 0 .79.6 1.43 1.34 1.47.44 1.8 1.8 3.2 3.51 3.65l1.18 1.01 1.18-1a4.97 4.97 0 0 0 3.52-3.67c.71-.08 1.27-.7 1.27-1.46"/><path id="nkkmk" d="M57 1526H46v-11.1c0-2.7 2.46-4.9 5.5-4.9s5.5 2.2 5.5 4.9z"/><clipPath id="nkkmf"><use xlink:href="#nkkma"/></clipPath></defs><g><g transform="translate(-35 -1510)"><g><use fill="#6415b5" xlink:href="#nkkmb"/></g><g><use fill="#6415b5" xlink:href="#nkkmc"/></g><g><use fill="#6415b5" xlink:href="#nkkmd"/></g><g><use fill="#6415b5" xlink:href="#nkkme"/></g><g><g/><g clip-path="url(#nkkmf)"><use fill="#6415b5" xlink:href="#nkkmg"/></g></g><g><use fill="#6415b5" xlink:href="#nkkmh"/></g><g><use fill="#c7ff00" xlink:href="#nkkmi"/></g><g><use fill="#6415b5" xlink:href="#nkkmj"/></g><g><use fill="#c7ff00" xlink:href="#nkkmk"/></g></g></g></svg>