<svg xmlns="http://www.w3.org/2000/svg" xmlns:xlink="http://www.w3.org/1999/xlink" width="129.15" height="33.97" viewBox="0 0 129.15 33.97"><defs><path id="m1sda" d="M23.62 4679.66H140.9v26.9H23.62zM20 4709.97h124.43v-33.88L20 4676v33.97z"/><path id="m1sdb" d="M60.23 4694.74l2.17-8.43 2.43 8.43zM59.7 4683L54 4702.86s2.99.09 4.25 0c.18-.87 1.27-4.88 1.27-4.88h6.14l1.36 4.97h4.16L65.31 4683z"/><path id="m1sdc" d="M123 4696.66h8.68v-2.6h-5.6v-2.96h5.06v-2.61h-5.06v-2.88h5.6V4683h-8.59z"/><path id="m1sdd" d="M107.14 4697.9l-3.98-14.9H99l6.23 19.94h3.71l6.23-19.94h-4.15z"/><path id="m1sde" d="M85.12 4683h-3.97c-.27 6.45-.1 13.32-.1 20.03H93.8v-3.4h-8.68V4683z"/><path id="m1sdf" d="M39.05 4698.06L35.06 4683H31l6.15 19.94h3.8l6.32-19.94h-4.35z"/><path id="m1sdg" d="M147.63 4678.04h-.27v-.7h.27c.37 0 .54.17.54.35 0 .26-.27.35-.54.35zm.81.6c0-.34-.18-.51-.36-.51.27-.1.45-.26.45-.52 0-.17 0-.35-.17-.44a1.4 1.4 0 0 0-.73-.17c-.27 0-.45.09-.63.09v2.18h.36v-1.05h.27c.27 0 .37.17.46.44.1.27.17.44.17.52h.37c-.1-.01-.1-.18-.19-.53z"/><path id="m1sdh" d="M147.16 4679.66c-.9 0-1.62-.7-1.62-1.66 0-.87.72-1.66 1.62-1.66.9 0 1.62.7 1.62 1.66a1.6 1.6 0 0 1-1.62 1.66zm0-3.66c-1.16 0-2.07.87-2.16 2 0 1.13 1 2 2.07 2a2 2 0 0 0 2.08-2c0-1.13-.9-2-1.98-2z"/></defs><g><g transform="translate(-20 -4676)"><g><g><use fill="#afb1b3" xlink:href="#m1sda"/></g><g><use fill="#afb1b3" xlink:href="#m1sdb"/></g><g><use fill="#afb1b3" xlink:href="#m1sdc"/></g><g><use fill="#afb1b3" xlink:href="#m1sdd"/></g><g><use fill="#afb1b3" xlink:href="#m1sde"/></g><g><use fill="#afb1b3" xlink:href="#m1sdf"/></g><g><use fill="#afb1b3" xlink:href="#m1sdg"/></g><g><use fill="#afb1b3" xlink:href="#m1sdh"/></g></g></g></g></svg>