<svg xmlns="http://www.w3.org/2000/svg" xmlns:xlink="http://www.w3.org/1999/xlink" width="89" height="49" viewBox="0 0 89 49"><defs><path id="62qpa" d="M944 905v-3h37v3z"/><path id="62qpb" d="M946.18 924.98c0-1.66-1.45-3.02-3.2-3.02H922.9c-1.76 0-3.2 1.36-3.2 3.02s1.44 3.02 3.2 3.02h20.06c1.76 0 3.2-1.35 3.2-3.02zm0-42.96c0-1.66-1.45-3.02-3.2-3.02H922.9c-1.76 0-3.2 1.36-3.2 3.02s1.44 3.02 3.2 3.02h20.06c1.76 0 3.2-1.36 3.2-3.02zm36.8 14.85c-3.89 0-7.03 2.97-7.03 6.63 0 3.66 3.14 6.63 7.02 6.63 3.89 0 7.03-2.97 7.03-6.63 0-3.66-3.14-6.63-7.03-6.63zm-10.96.11h-3.37v13.05h3.37zm-8.32-3.5h-3.37v20.03h3.37zm-8.3-3.82h-3.38v27.68h3.37zm-39.8 27.63h30.22c.45 0 .8-.33.8-.75v-26.07a.77.77 0 0 0-.8-.76h-30.21c-8.07 0-14.61 6.17-14.61 13.79 0 7.62 6.54 13.8 14.6 13.8z"/><path id="62qpc" d="M929.02 900.05l-1.48-.98-6.68 8.87 1.48.98zm-10.87 7.82l-3.73-3.9 3.62-3.84-1.36-1.12-4.68 4.98 4.8 5.01zm19.85-3.9l-4.68-4.97-1.36 1.13 3.62 3.84-3.73 3.9 1.35 1.13z"/></defs><g><g transform="translate(-901 -879)"><g><use fill="#6516b5" xlink:href="#62qpa"/></g><g><use fill="#6516b5" xlink:href="#62qpb"/></g><g><use fill="#fff" xlink:href="#62qpc"/></g></g></g></svg>