<svg xmlns="http://www.w3.org/2000/svg" xmlns:xlink="http://www.w3.org/1999/xlink" width="55" height="53" viewBox="0 0 55 53"><defs><path id="4qhoa" d="M276.38 875.24l9.23 8.89c1 .97 2.63.97 3.64 0 1-.97 1-2.54 0-3.51l-9.23-8.9c-1-.96-2.64-.96-3.64 0-1 .98-1 2.55 0 3.52zm-27.68 44.7l-9.47-9.13c-.94-.9-2.46-.9-3.4 0s-.94 2.38 0 3.28l9.46 9.12c.94.9 2.47.9 3.4 0 .95-.9.95-2.37 0-3.28zm-9.38-35.76l9.3-8.98c.98-.94.98-2.49 0-3.44a2.58 2.58 0 0 0-3.58 0l-9.3 8.98a2.37 2.37 0 0 0 0 3.44 2.6 2.6 0 0 0 3.58 0zm46.33 26.7l-9.3 8.98a2.37 2.37 0 0 0 0 3.43c.97.95 2.57.95 3.56 0l9.3-8.97c.98-.94.98-2.49 0-3.43a2.58 2.58 0 0 0-3.56 0zm-7.7-28.53a22.67 22.67 0 0 0-31.22 0 20.73 20.73 0 0 0 0 30.09c8.62 8.3 22.6 8.3 31.22 0a20.73 20.73 0 0 0 0-30.09z"/><path id="4qhob" d="M244 898c0-9.94 8.5-18 19-18s19 8.06 19 18-8.5 18-19 18-19-8.06-19-18z"/><path id="4qhoc" d="M258.3 904H250v-1.47h8.3zm15.7-5.09v1.47h-13.75v-1.47zm-15.62 1.47h-2.66v-1.47h2.66zm15.61-3.62h-18.28v-1.47H274zm.01-5.1v1.48h-8.4v-1.47zm-10.11 1.48h-8.18v-1.47h8.18zm-.01-3.67H250V888h13.88z"/></defs><g><g transform="translate(-235 -871)"><g><use fill="#6516b5" xlink:href="#4qhoa"/></g><g><use fill="#6516b5" xlink:href="#4qhob"/></g><g><use fill="#fff" xlink:href="#4qhoc"/></g></g></g></svg>