<svg xmlns="http://www.w3.org/2000/svg" xmlns:xlink="http://www.w3.org/1999/xlink" width="596" height="86" viewBox="0 0 596 86"><defs><path id="ksaba" d="M1126.84 315.88H1164v36.93a53.45 53.45 0 0 1-35.2 12.82c-25.23 0-43.98-17.65-43.98-42.58v-.24c0-24 18.53-42.81 43.53-42.81 14.23 0 24.3 4.35 32.88 11.89l-13.2 16.23c-5.8-4.94-11.46-7.77-19.57-7.77-11.69 0-20.72 9.88-20.72 22.47v.24c0 13.4 9.15 22.93 22 22.93 5.55 0 9.72-1.18 12.96-3.41v-10h-15.86zm-71.3 9.28v-43.51h22.23v82.32h-19.57l-34.72-45.16v45.16h-22.23v-82.32h20.95zm-64.48 38.81h-22.43v-82.32h22.43zm-71.66-31.03v-16.7h37.16v36.94a53.45 53.45 0 0 1-35.2 12.82c-25.23 0-43.98-17.65-43.98-42.58v-.24c0-24 18.52-42.8 43.53-42.8 14.23 0 24.3 4.34 32.88 11.87l-13.2 16.23c-5.78-4.94-11.46-7.76-19.56-7.76-11.7 0-20.72 9.88-20.72 22.46v.24c0 13.4 9.14 22.93 21.99 22.93 5.56 0 9.72-1.18 12.97-3.4v-10zm-71.3-7.41v-43.51h22.23v82.32h-19.57l-34.72-45.16v45.16H793.8v-82.32h20.95zm-94 6.24l-9.03-23.29-9.14 23.3zm1.97-50.34l34.5 82.92h-24.08l-5.79-14.82h-31.37l-5.8 14.82h-23.49l34.38-82.92zM645.4 364.34h-22.46v-82.32h22.46v30.81h28.83v-30.81h22.45v82.32h-22.45v-31.29H645.4zM582.09 366c-4.95 0-9.69-.82-14.09-2.36v-25.78a18.1 18.1 0 0 0 14.67 7.32c8.45 0 13.43-4 18.29-10l16.9 12.23c-7.64 10.7-17.94 18.59-35.77 18.59zM568 308.47v-25.6a44.5 44.5 0 0 1 14.9-2.5c16.56 0 27.2 7.05 34.38 17.06l-16.9 13.3c-4.63-5.77-9.95-9.65-17.7-9.65a18.15 18.15 0 0 0-14.68 7.39z"/></defs><g><g transform="translate(-568 -280)"><use fill="#fff" xlink:href="#ksaba"/></g></g></svg>