<svg xmlns="http://www.w3.org/2000/svg" xmlns:xlink="http://www.w3.org/1999/xlink" width="325" height="86" viewBox="0 0 325 86"><defs><path id="amwva" d="M536.36 382.86H569v19.5h-54.86v-82.7H569v19.37h-32.64v12.64H569v18.08h-32.64zm-55.66-63.2h23.72v82.7H482.1v-47.5l-20.7 32.37h-.47l-20.6-32.25v47.37h-21.98v-82.69h23.72l19.32 32.01zm-102.03 49.98l-9.03-23.4-9.14 23.4zm1.96-50.57l34.48 83.28h-24.07l-5.78-14.89H353.9l-5.79 14.89h-23.48L359 319.07zM286 354.03h37.13v37.1A53.28 53.28 0 0 1 287.96 404c-25.22 0-43.96-17.72-43.96-42.76V361c0-24.1 18.51-43 43.5-43 14.23 0 24.3 4.37 32.85 11.93l-13.19 16.3c-5.78-4.96-11.45-7.8-19.55-7.8-11.69 0-20.7 9.92-20.7 22.56v.24c0 13.47 9.13 23.04 21.97 23.04 5.56 0 9.72-1.19 12.96-3.43V370.8H286z"/></defs><g><g transform="translate(-244 -318)"><use fill="#fff" xlink:href="#amwva"/></g></g></svg>