<svg xmlns="http://www.w3.org/2000/svg" xmlns:xlink="http://www.w3.org/1999/xlink" width="46.61" height="46.61" viewBox="0 0 46.61 46.61"><defs><path id="ohmla" d="M235.3 47.99V1.38h46.61v46.61z"/><path id="ohmlb" d="M239.32 42.16v-2.91h17.48v2.91z"/><path id="ohmlc" d="M239.12 13.65l1.35-1.28c.37.44.72.7 1.2.7.51 0 .85-.35.85-1.06V7.2h2.1v4.82c0 .95-.24 1.63-.75 2.14-.5.5-1.22.77-2.08.77a3.1 3.1 0 0 1-2.67-1.28z"/><path id="ohmld" d="M245.11 7.2h6.11v1.78h-4.02v1.16h3.64v1.66h-3.64V13h4.08v1.8h-6.17z"/><path id="ohmle" d="M253.98 9.05h-2.27V7.2h6.66v1.84h-2.29v5.76h-2.1z"/><path id="ohmlf" d="M244 21.76v.02c0 .44-.35.7-1 .7h-1.62v-1.4h1.6c.7 0 1.02.27 1.02.68zm-.3-2.83v.02c0 .45-.36.67-1 .67h-1.32v-1.35h1.37c.62 0 .96.23.96.66zm-4.37 5.23h3.91c1.81 0 2.88-.79 2.88-2.09v-.02c0-1.03-.59-1.55-1.51-1.85.67-.3 1.17-.82 1.17-1.7v-.01c0-.53-.18-.93-.49-1.24-.44-.43-1.12-.67-2.07-.67h-3.9z"/><path id="ohmlg" d="M249.93 20.22c.7 0 1.12-.34 1.12-.9v-.02c0-.6-.44-.9-1.13-.9h-1.38v1.83h1.39zm-3.5-3.64h3.6c1.15 0 1.95.3 2.47.81.44.45.67 1.03.67 1.77v.02c0 1.17-.62 1.94-1.56 2.34l1.8 2.66H251l-1.53-2.3h-.93v2.3h-2.11z"/><path id="ohmlh" d="M257.47 21.16l-.85-2.15-.85 2.15zm-1.84-4.64h2.03l3.23 7.65h-2.25l-.55-1.36h-2.94l-.54 1.36h-2.21z"/><path id="ohmli" d="M261.14 16.58h2.1v7.6h-2.1z"/><path id="ohmlj" d="M263.77 16.58h1.96l3.12 4.02v-4.02h2.1v7.6h-1.84L265.85 20v4.17h-2.09v-7.6z"/><path id="ohmlk" d="M271.08 23.04l1.17-1.4c.76.6 1.59.91 2.46.91.58 0 .88-.2.88-.52v-.02c0-.32-.25-.48-1.29-.73-1.62-.37-2.86-.83-2.86-2.38v-.02c0-1.4 1.11-2.43 2.94-2.43 1.29 0 2.3.34 3.12 1l-1.05 1.5a3.7 3.7 0 0 0-2.12-.75c-.51 0-.76.2-.76.49v.02c0 .34.26.5 1.32.74 1.74.38 2.82.94 2.82 2.36v.02c0 1.56-1.23 2.48-3.07 2.48a5.36 5.36 0 0 1-3.56-1.27z"/></defs><g><g transform="translate(-235.3 -1.38)"><g><g><use fill="#010a0a" xlink:href="#ohmla"/></g><g><use fill="#fff" xlink:href="#ohmlb"/></g><g><g><use fill="#fff" xlink:href="#ohmlc"/></g><g><use fill="#fff" xlink:href="#ohmld"/></g><g><use fill="#fff" xlink:href="#ohmle"/></g><g><use fill="#fff" xlink:href="#ohmlf"/></g><g><use fill="#fff" xlink:href="#ohmlg"/></g><g><use fill="#fff" xlink:href="#ohmlh"/></g><g><use fill="#fff" xlink:href="#ohmli"/></g><g><use fill="#fff" xlink:href="#ohmlj"/></g><g><use fill="#fff" xlink:href="#ohmlk"/></g></g></g></g></g></svg>