<svg xmlns="http://www.w3.org/2000/svg" xmlns:xlink="http://www.w3.org/1999/xlink" width="18.46" height="29.68" viewBox="0 0 18.46 29.68"><defs><path id="1miua" d="M36.87 2161.06c0 .9-.74 1.63-1.65 1.63-.9 0-1.64-.74-1.64-1.63 0-.9.74-1.63 1.64-1.63.92 0 1.65.73 1.65 1.63zm5.01-3.64H28.56v-19.55h13.32zm2.58 2.7v-20.56a4.6 4.6 0 0 0-4.62-4.56h-9.22a4.6 4.6 0 0 0-4.62 4.56v20.57a4.59 4.59 0 0 0 4.62 4.55h9.22a4.59 4.59 0 0 0 4.62-4.55z"/></defs><g><g transform="translate(-26 -2135)"><use  xlink:href="#1miua"/></g></g></svg>