<svg xmlns="http://www.w3.org/2000/svg" xmlns:xlink="http://www.w3.org/1999/xlink" width="26" height="25" viewBox="0 0 26 25"><defs><path id="f41da" d="M212.88 2150.9h10.23c1.07 0 1.62 1.16.86 1.84a8.91 8.91 0 0 1-5.97 2.22 8.96 8.96 0 0 1-5.98-2.22c-.76-.68-.21-1.85.86-1.85zm10.69-4.75h-.47a.77.77 0 0 1-.77-.77v-3.86c0-.42.35-.76.77-.76h.47c.42 0 .76.34.76.76v3.86c0 .42-.34.77-.76.77zm-11.33 0h-.48a.77.77 0 0 1-.76-.77v-3.86c0-.42.35-.76.76-.76h.48c.41 0 .76.34.76.76v3.86c0 .42-.34.77-.76.77zM218 2134c-7.18 0-13 5.6-13 12.5s5.82 12.5 13 12.5 13-5.6 13-12.5-5.82-12.5-13-12.5z"/></defs><g><g transform="translate(-205 -2134)"><use xlink:href="#f41da"/></g></g></svg>