<svg xmlns="http://www.w3.org/2000/svg" xmlns:xlink="http://www.w3.org/1999/xlink" width="84.83" height="31.6" viewBox="0 0 84.83 31.6"><defs><path id="ak9cb" d="M33.38 568.97l-7-6.95H37.5l5.56 9.37zm6.83-8.46l5.56-9.38 2.69 9.38-2.69 9.37zm-6.83-8.48l9.68-2.42-5.56 9.37H26.38zM47.6 545l-12.66 3.3-1.88 3.22-3.8-.03L20 560.5l9.27 9.01 3.8-.02 1.88 3.21L47.6 576 51 563.7l-1.93-3.2 1.93-3.19z"/><path id="ak9cc" d="M75.82 553.41a4 4 0 0 0-3.64 2h-.08v-1.67h-2.93v12.24h3v-6.94c0-1.67 1.06-2.81 2.5-2.81 1.36 0 2.38.8 2.38 2.24v7.51h3V558c0-2.67-1.7-4.58-4.23-4.58"/><path id="ak9cd" d="M64.6 560.8c0 1.63-.94 2.77-2.47 2.77-1.39 0-2.26-.79-2.26-2.22v-7.61h-3.01v8.16c0 2.67 1.53 4.41 4.26 4.41 1.73 0 2.69-.64 3.52-1.76h.08v1.43h2.89v-12.24H64.6z"/><path id="ak9ca" d="M20 575h84.83v-30.6H20z"/><path id="ak9cf" d="M81.63 565.99h3v-12.24h-3z"/><path id="ak9cg" d="M81.63 552.39h3v-2.46h-3z"/><path id="ak9ch" d="M101.62 553.75l-1.78 5.51a29.2 29.2 0 0 0-.72 2.67h-.08s-.4-1.55-.79-2.67l-2.02-5.51h-3.21l3.3 8.7c.7 1.87.94 2.66.94 3.33 0 1-.53 1.67-1.82 1.67h-1.15V570h1.92c2.49 0 3.35-.98 4.29-3.7l4.33-12.55z"/><path id="ak9ci" d="M90.24 562.39v-6.5h1.91v-2.14h-1.91v-3.82h-2.99v3.82h-1.7v2.15h1.7v7.18c0 2.31 1.75 2.93 3.33 2.93 1.3 0 1.64-.05 1.64-.05v-2.36h-.76c-.72 0-1.22-.3-1.22-1.21"/><clipPath id="ak9ce"><use xlink:href="#ak9ca"/></clipPath></defs><g><g transform="translate(-20 -544.4)"><g><use fill="#fdfdfd" xlink:href="#ak9cb"/></g><g><g><use fill="#fdfdfd" xlink:href="#ak9cc"/></g><g><use fill="#fdfdfd" xlink:href="#ak9cd"/></g><g/><g clip-path="url(#ak9ce)"><use fill="#fdfdfd" xlink:href="#ak9cf"/></g><g clip-path="url(#ak9ce)"><use fill="#fdfdfd" xlink:href="#ak9cg"/></g><g clip-path="url(#ak9ce)"><use fill="#fdfdfd" xlink:href="#ak9ch"/></g><g clip-path="url(#ak9ce)"><use fill="#fdfdfd" xlink:href="#ak9ci"/></g></g></g></g></svg>