<svg xmlns="http://www.w3.org/2000/svg" xmlns:xlink="http://www.w3.org/1999/xlink" width="34" height="29" viewBox="0 0 34 29"><defs><path id="a59ia" d="M229.73 1832.66c.82.18 1.66.38 2.5.53.16.03.42 0 .52-.11a18.03 18.03 0 0 1 8.67-4.66c.09-.02.19-.03.28-.06.03 0 .05.03.15.05-.24.29-.47.54-.67.82-.91 1.18-1.8 2.37-2.74 3.54a4 4 0 0 0-.9 2.68c.06 4.11.07 8.23.1 12.33.02.63.63 1.07 1.4.93.46-.07.92-.22 1.34-.42 1.3-.6 2.37-1.47 3.35-2.5.09-.08.17-.18.27-.25-1.8 4.12-4.83 7.17-8.59 9.65-1.09-.92-2.17-1.84-3.09-2.6-1.06.95-2.13 1.83-3.1 2.81-.5.5-.92.7-1.63.56a20.65 20.65 0 0 1-7.55-2.63 9.95 9.95 0 0 1-2.6-2.28c-.08-.08-.13-.17-.2-.27.45 0 .87.02 1.29 0 .6-.04.91-.3 1.02-.9.05-.19.06-.4.06-.61v-10.8c.02-.98-.77-1.66-1.72-1.37-.64.19-1.28.54-1.8.96a25.18 25.18 0 0 0-5.66 6.93c-.1.13-.16.26-.32.54-.05-.34-.09-.57-.1-.78a9.96 9.96 0 0 1 1.61-5.67c3.2-5.29 7.63-9.25 13.43-11.64.48-.2 1-.33 1.54-.44-.34.27-.69.52-1.01.81a4.86 4.86 0 0 0-1.85 4.45c.03.27.09.53.19.79.22.56.64.75 1.24.6l.43-.11v13.98c0 1.23.93 2.18 2.21 2.16.48-.01.97-.21 1.44-.35.17-.04.32-.15.48-.23 1.68-.95 1.68-.95 1.68-2.86 0-3.35-.01-6.7.01-10.04a3.96 3.96 0 0 0-1.42-3.06c-.1-.1-.22-.18-.33-.27a.9.9 0 0 0 .07-.21z"/></defs><g><g transform="translate(-210 -1827)"><use  xlink:href="#a59ia"/></g></g></svg>