<svg xmlns="http://www.w3.org/2000/svg" xmlns:xlink="http://www.w3.org/1999/xlink" width="74" height="39" viewBox="0 0 74 39"><defs><path id="e0eha" d="M579.68 917.53l1.85-4.54a15.68 15.68 0 0 1-3.77-3.45l-4.7 1.96-2.87-6.24 4.69-1.96a14.56 14.56 0 0 1-.11-4.98l-4.77-1.76 2.6-6.36 4.77 1.77a15.58 15.58 0 0 1 3.62-3.59l-2.06-4.46 6.57-2.74 2.06 4.46a16.38 16.38 0 0 1 5.23-.1l1.86-4.54 6.67 2.47-1.85 4.54c1.44.94 2.72 2.1 3.77 3.45l4.7-1.96 2.87 6.24-4.69 1.96c.32 1.64.36 3.33.11 4.98l4.77 1.76-2.6 6.36-4.77-1.77a15.58 15.58 0 0 1-3.62 3.59l2.06 4.46-6.57 2.74-2.06-4.46a16.38 16.38 0 0 1-5.23.1l-1.86 4.54z"/><path id="e0ehb" d="M619.94 920v-4.85a16.32 16.32 0 0 1-4.81-1.9l-3.6 3.43-5.05-4.8 3.6-3.42a14.7 14.7 0 0 1-1.99-4.58H603v-6.78h5.1a14.7 14.7 0 0 1 1.99-4.57l-3.6-3.43 5.03-4.8 3.6 3.44a16.32 16.32 0 0 1 4.82-1.9V881h7.12v4.84c1.7.38 3.33 1.02 4.81 1.9l3.6-3.43 5.05 4.8-3.6 3.43a14.7 14.7 0 0 1 1.99 4.57H644v6.78h-5.1a14.7 14.7 0 0 1-1.99 4.57l3.6 3.43-5.03 4.8-3.6-3.43a16.32 16.32 0 0 1-4.82 1.9V920h-7.12z"/><path id="e0ehc" d="M618.1 895.76a6.94 6.94 0 0 0-9.23 0l-3.37 3.1-.01-.02-4.62 4.25a5.05 5.05 0 0 1-6.7 0 4.12 4.12 0 0 1 0-6.18 5.05 5.05 0 0 1 6.7 0l.63.58 1.27-1.16-.63-.57a6.94 6.94 0 0 0-9.23 0 5.67 5.67 0 0 0 0 8.48 6.82 6.82 0 0 0 4.61 1.75c1.67 0 3.35-.58 4.62-1.75l3.36-3.1.02.02 4.61-4.25a5.05 5.05 0 0 1 6.71 0 4.12 4.12 0 0 1 0 6.18 5.05 5.05 0 0 1-6.7 0l-.64-.58-1.26 1.16.63.58a6.82 6.82 0 0 0 4.61 1.75c1.67 0 3.35-.59 4.62-1.75a5.68 5.68 0 0 0 0-8.49z"/></defs><g><g transform="translate(-570 -881)"><g><use fill="#6516b5" xlink:href="#e0eha"/></g><g><use fill="#6516b5" xlink:href="#e0ehb"/></g><g><use fill="#fff" xlink:href="#e0ehc"/></g></g></g></svg>