<svg xmlns="http://www.w3.org/2000/svg" xmlns:xlink="http://www.w3.org/1999/xlink" width="133.64" height="29" viewBox="0 0 133.64 29"><defs><path id="nnc9a" d="M303.36 4797.8h1.37c.86 0 1.66.24 1.73 1.1.03.84-.74 1.3-1.62 1.3h-1.48v-2.4zm-6.13 10.25h6.16v-4.7l3.2 4.7h7.04l-4.45-5.83s3.89-.48 3.8-3.95c-.09-3.33-3.33-4.25-6.62-4.25L295 4794l2.23 2.04z"/><path id="nnc9b" d="M223.2 4800.02v7.64h6.44v-9.64L221 4798z"/><path id="nnc9c" d="M211.75 4803.62h-1.87v-2.85h1.74c.99 0 1.9.38 1.95 1.37.05.83-.83 1.48-1.82 1.48zm-1.9-9.38h1.35c.88 0 1.54.48 1.56 1.18.04.68-.66 1.22-1.46 1.22h-1.45zm6.9 4.21c1.82-.64 3.42-2.12 3.34-3.98-.15-2.89-3.01-4.45-6.14-4.45L200 4790l2.66 2.6v15.24h10.1c4 0 8.34-.88 8.34-5.1-.03-2.4-1.6-3.67-4.35-4.29z"/><path id="nnc9d" d="M223 4797.12V4794h6.43v3.12z"/><path id="nnc9e" d="M316.25 4808.04h12.05v-3.64h-5.67v-1.58h4.9v-3.65h-4.9v-1.52h5.5v-3.63L314 4794l2.25 2.07z"/><path id="nnc9f" d="M331.86 4793.02h-.27v-.58h.28c.19 0 .28.02.36.08.06.05.1.11.1.19 0 .1-.03.16-.1.22s-.19.09-.37.09zm.65.46a.6.6 0 0 0-.2-.11c.23-.04.42-.12.52-.24.1-.12.17-.27.17-.43 0-.22-.06-.38-.2-.5-.14-.13-.37-.2-.7-.2H331v2.45h.61v-.97h.08c.08 0 .17.04.25.12.08.1.22.35.47.83h.74l-.41-.72c-.08-.1-.17-.17-.23-.23z"/><path id="nnc9g" d="M325.08 4814.27h-.74v-1.34h.72c.45 0 .84.11.86.64.07.48-.4.7-.84.7zm1.05-3.27H320l1.13 1.06v6.37h3.21v-2.24h1.58c1.78 0 3.32-.67 3.27-2.64-.03-1.77-1.36-2.55-3.06-2.55z"/><path id="nnc9h" d="M313.01 4814.27h-.76v-1.26h.72c.43 0 .84.11.88.58.03.44-.37.68-.84.68zm4.2-1c-.03-1.78-1.7-2.27-3.4-2.27H308l1.13 1.06v6.37h3.15v-2.5l1.65 2.5h3.63l-2.28-3.09c-.01-.01 1.97-.25 1.94-2.08z"/><path id="nnc9i" d="M332.63 4794.57c-.37.36-.82.54-1.33.54a1.86 1.86 0 0 1-1.88-1.84 1.86 1.86 0 0 1 1.88-1.84 1.86 1.86 0 0 1 1.88 1.84c0 .5-.18.93-.55 1.3zm.7-2.44a2.36 2.36 0 0 0-3.17-.83c-.36.2-.66.48-.85.83-.2.35-.31.74-.31 1.13 0 .4.1.78.3 1.14a2.35 2.35 0 0 0 3.17.83c.37-.2.66-.49.86-.83a2.33 2.33 0 0 0 0-2.27z"/><path id="nnc9j" d="M301.89 4816.43c-.98 0-1.57-.67-1.61-1.44-.03-.78.6-1.5 1.56-1.53.96-.03 1.54.7 1.56 1.44.05.75-.53 1.5-1.51 1.53zm-.05-5.43c-2.64 0-4.82 1.77-4.84 3.93-.03 2.18 2.13 4 4.77 4.03 2.7.05 4.97-1.61 4.97-3.99.02-2.19-2.21-3.97-4.9-3.97z"/><path id="nnc9k" d="M273.23 4791h-.02l-2.36 8.52-2.4-8.52h-6.2l-2.5 8.66-2.17-8.66H249l2.48 2.42 4.53 14.26h6.77l2.56-8.16 2.52 8.16h6.98l5.47-16.68z"/><path id="nnc9l" d="M288 4815.05c.04 2.16 2.09 3.9 4.79 3.95 1.08.03 2.2-.32 2.23-.34v-2.6a3.6 3.6 0 0 1-1.68.43c-1.1.03-1.92-.7-1.9-1.56.04-.92.88-1.46 1.9-1.45.5 0 1.27.08 1.68.34v-2.48a6.1 6.1 0 0 0-2.04-.34c-2.89.07-5.03 1.85-4.98 4.05z"/><path id="nnc9m" d="M241.54 4803.29c-1.9.03-3.07-1.27-3.13-2.7-.06-1.47 1.19-2.86 3.08-2.92 1.86-.03 2.99 1.33 3.02 2.73.07 1.45-1.04 2.85-2.97 2.89zm-.1-10.29c-5.17.02-9.38 3.34-9.44 7.43-.06 4.12 4.16 7.55 9.33 7.61 5.26.08 9.66-3.04 9.66-7.55 0-4.13-4.35-7.5-9.55-7.49z"/><path id="nnc9n" d="M283.02 4794l-6.02 14.02h6.52l2.82-8.19 2.66 8.19h6.62L289.9 4794z"/></defs><g><g transform="translate(-200 -4790)"><g><use fill="#afb1b3" xlink:href="#nnc9a"/></g><g><use fill="#afb1b3" xlink:href="#nnc9b"/></g><g><use fill="#afb1b3" xlink:href="#nnc9c"/></g><g><use fill="#afb1b3" xlink:href="#nnc9d"/></g><g><use fill="#afb1b3" xlink:href="#nnc9e"/></g><g><use fill="#afb1b3" xlink:href="#nnc9f"/></g><g><use fill="#afb1b3" xlink:href="#nnc9g"/></g><g><use fill="#afb1b3" xlink:href="#nnc9h"/></g><g><use fill="#afb1b3" xlink:href="#nnc9i"/></g><g><use fill="#afb1b3" xlink:href="#nnc9j"/></g><g><use fill="#afb1b3" xlink:href="#nnc9k"/></g><g><use fill="#afb1b3" xlink:href="#nnc9l"/></g><g><use fill="#afb1b3" xlink:href="#nnc9m"/></g><g><use fill="#afb1b3" xlink:href="#nnc9n"/></g></g></g></svg>