<svg xmlns="http://www.w3.org/2000/svg" xmlns:xlink="http://www.w3.org/1999/xlink" width="76" height="30" viewBox="0 0 76 30"><defs><path id="rjr2a" d="M215.51 5017.16c-2.05 0-4.3-.8-4.3-3.46v-1.55a31.38 31.38 0 0 1 8.66-7.62v9.17c0 2.7-2.28 3.46-4.36 3.46zm-11.47-.2h-6.14v-4.93h6.14c1.48 0 2.19 1.18 2.19 2.44 0 1.37-.52 2.48-2.19 2.48zm-.05-11.11c1.83 0 2.17 1.05 2.17 2.34 0 1.2-.75 2.3-2.44 2.3h-5.82v-4.64zm50.6-5.16c-5.95-3.12-13.51-4.46-21.33-3.25a34.51 34.51 0 0 0-22.04 12.97v-6.03h-1.89v8.75c-.37.59-.72 1.18-1.04 1.79l.03-.3c0-1.53-.87-2.84-2.01-3.46a3.53 3.53 0 0 0 1.87-3.21c0-1.96-1.39-3.56-3.66-3.56H196v14.04h8.92c.79 0 1.5-.32 2.09-.84a27.8 27.8 0 0 0-2.2 9.16c-.03.36.64.3.64 0 .45-4.51 1.86-8.5 3.95-11.94.47 3.09 3.4 4.03 6.11 4.03 2.98 0 6.25-1.05 6.25-4.92v-9.54h-1.66c2.9-1.72 6.04-3 9.24-3.82a30.3 30.3 0 0 1 22.02 2.84 3.9 3.9 0 0 1 3.22-2.7z"/><path id="rjr2b" d="M251.42 5004.7a2.8 2.8 0 0 1 2.77-2.84 2.8 2.8 0 0 1 2.77 2.84 2.8 2.8 0 0 1-2.77 2.84 2.8 2.8 0 0 1-2.77-2.84z"/><path id="rjr2c" d="M271.52 5004.3l-.3 1.23-.32-1.23h-.48v1.62h.3v-1.3l.33 1.3h.34l.3-1.3v1.3h.31v-1.62z"/><path id="rjr2d" d="M269.62 5004.58h.58v1.34h.41v-1.34h.6v-.28h-1.59z"/><path id="rjr2e" d="M243.53 5003.49c-4.68 0-7.95 3.46-7.95 7.7s3.82 7.7 8.5 7.7a8.9 8.9 0 0 0 6.45-2.68v-5.33h-5.31v1.96h3.4v2.5a6.78 6.78 0 0 1-4.53 1.7c-3.55 0-6.45-2.62-6.45-5.83a5.68 5.68 0 0 1 5.9-5.83c2.55 0 3.84 1.36 4.86 3.33h2.23c-1.15-3.04-3.38-5.22-7.1-5.22z"/><path id="rjr2f" d="M232.98 5016.06l-6.9-11.76h-3.16v13.78h1.82v-12.06l7.07 12.06h2.99v-13.78h-1.82z"/><path id="rjr2g" d="M253.79 5018.89v-10.54h1.58v10.54z"/><path id="rjr2h" d="M257.75 5018.08h10.3v-1.44h-8.49v-4.86h8.34v-1.44h-8.34v-4.6h8.48v-1.44h-10.29z"/></defs><g><g transform="translate(-196 -4997)"><g><use fill="#afb1b3" xlink:href="#rjr2a"/></g><g><use fill="#afb1b3" xlink:href="#rjr2b"/></g><g><use fill="#afb1b3" xlink:href="#rjr2c"/></g><g><use fill="#afb1b3" xlink:href="#rjr2d"/></g><g><use fill="#afb1b3" xlink:href="#rjr2e"/></g><g><use fill="#afb1b3" xlink:href="#rjr2f"/></g><g><use fill="#afb1b3" xlink:href="#rjr2g"/></g><g><use fill="#afb1b3" xlink:href="#rjr2h"/></g></g></g></svg>