<svg xmlns="http://www.w3.org/2000/svg" xmlns:xlink="http://www.w3.org/1999/xlink" width="133" height="186" viewBox="0 0 133 186"><defs><path id="jj1ea" d="M212 1926.7c0-33.88 24.87-61.35 55.54-61.35 30.67 0 55.54 27.47 55.54 61.35s-24.87 61.35-55.54 61.35c-30.67 0-55.54-27.47-55.54-61.35z"/><path id="jj1ec" d="M339.16 1940.71l-8.25 6.7-24.46-38.02a5.72 5.72 0 0 1 1.04-7.4l.56-.46a4.46 4.46 0 0 1 6.65 1.16z"/><path id="jj1ee" d="M278.02 1931.8a6.1 6.1 0 0 1 1.12-7.92l28.5-23.05a4.81 4.81 0 0 1 7.15 1.24 6.1 6.1 0 0 1-1.12 7.92l-28.5 23.05a4.82 4.82 0 0 1-7.15-1.24z"/><path id="jj1eg" d="M271.7 1939.55c.83-2.95-.66-6.13-3.3-7.06l-25.73-9.05c-2.64-.93-5.49.73-6.32 3.69-.83 2.95.65 6.13 3.3 7.06l25.73 9.05c2.64.93 5.49-.73 6.32-3.69z"/><path id="jj1ei" d="M300.5 1977.38c6.34-3.08 10.12-11.07 8.18-18.62l-9.54-34.95c-1.45-5.66-7.22-8.53-11.8-5.89l-21.44 12.33c-4.4 2.54-5.58 8.94-2.45 13.46l19.71 28.47c4.13 5.97 11.31 8.12 17.34 5.2z"/><path id="jj1ek" d="M285.26 1918.5l-1.37-.82 1.55-3.47c1.4-3.15 1.7-5.1-1.34-10.48-3.17-5.63-2.47-11.98 2.1-18.84l1.22 1.09c-4.17 6.29-4.84 11.78-2.02 16.78 3.28 5.84 3.1 8.5 1.41 12.27z"/><path id="jj1el" d="M338.41 1939.6l-6.52.3-1.4 3.82-.05.47c-.32 3.6.62 7.2 2.62 10.1l1.98-1.83 2.01 2.77 7.95-6.58z"/><path id="jj1em" d="M302.2 1972.42c3.8 0 6.92-2.98 6.92-6.62l.07-106.69-13.8-.01-.08 106.68c0 3.65 3.1 6.64 6.9 6.64z"/><path id="jj1eo" d="M298.93 1972.6c-.32-3.86-3.53-6.75-7.13-6.4l-32.16 3.07c-3.6.34-6.28 3.79-5.96 7.66.32 3.86 3.53 6.75 7.12 6.4l32.17-3.06c3.6-.35 6.29-3.8 5.96-7.66z"/><path id="jj1ep" d="M301.53 2015.4l6.93-12.03-45.7-32.94c-2.95-2.14-6.92-1.18-8.83 2.13-1.9 3.3-1.04 7.76 1.9 9.9z"/><path id="jj1er" d="M286.1 1924.9c-3.17-4.52-14.08-4.1-17.01 0v-8.95c0-5.06 3.8-9.16 8.5-9.16s8.51 4.1 8.51 9.16z"/><path id="jj1es" d="M266.96 1924.51c0-1.47 1.11-2.67 2.48-2.67 1.37 0 2.48 1.2 2.48 2.67s-1.11 2.67-2.48 2.67c-1.37 0-2.48-1.2-2.48-2.67z"/><path id="jj1eu" d="M283.07 1924.51c0-1.47 1.11-2.67 2.48-2.67 1.37 0 2.48 1.2 2.48 2.67s-1.11 2.67-2.48 2.67c-1.37 0-2.48-1.2-2.48-2.67z"/><path id="jj1ew" d="M269.03 1924.9c0-5.07 3.81-9.18 8.52-9.18 4.7 0 8.52 4.1 8.52 9.18 0 5.06-3.81 9.17-8.52 9.17-4.7 0-8.52-4.1-8.52-9.18z"/><path id="jj1ey" d="M280.56 1923.2c.33 0 .6-.28.6-.63v-1.15c0-.35-.27-.64-.6-.64-.33 0-.59.29-.59.64v1.15c0 .35.26.64.6.64z"/><path id="jj1ez" d="M274.26 1923.2c.33 0 .6-.28.6-.63v-1.15c0-.35-.27-.64-.6-.64-.33 0-.59.29-.59.64v1.15c0 .35.26.64.6.64z"/><path id="jj1eA" d="M277.5 1921.72l-2.05 3.85 2.1 1.76 2.08-1.8z"/><path id="jj1eC" d="M265.34 1896.55l-8.54-6.19-20.67 36.7c-1.41 2.45-.77 5.78 1.41 7.36l.58.42c2.19 1.6 5.14.87 6.55-1.59z"/><path id="jj1eE" d="M302.25 1846.6a7.06 7.06 0 0 0-6.94 7.13v11.53a7.06 7.06 0 0 0 6.94 7.13c3.82 0 6.94-3.2 6.94-7.13v-11.53a7.06 7.06 0 0 0-6.94-7.13z"/><path id="jj1eF" d="M312.85 2006.38L302.1 2024l-2.43-1.71c-3.7-2.6-4.74-7.98-2.32-11.95l2.42-3.97a6.89 6.89 0 0 1 9.9-2.22z"/><path id="jj1eH" d="M284.95 1843.3l-14.3 23.81-3.2-5.76 14.01-23.35z"/><path id="jj1eJ" d="M248.48 1878.37l-.2-8.58a5.9 5.9 0 0 1 .82-3.19l13.25-22.07a2.52 2.52 0 0 1 2.08-1.26c.84-.01 1.64.41 2.13 1.15l2.54 3.83-2.24 1.73-2.36-3.58-13.1 21.83c-.26.44-.4.95-.39 1.48l.22 8.58z"/><path id="jj1eK" d="M280.95 1851.9l-35.84 59.72-8.03-14.45 35.14-58.55z"/><path id="jj1eM" d="M268.54 1897.65l-3.01 5.02-9.32-17.26 3.01-5.01z"/><path id="jj1eO" d="M247.8 1889.96l-.5-1.31 24-39.98 2-.97s-25.5 42.08-25.5 42.26z"/><path id="jj1eQ" d="M250.12 1891.95l-.5-1.31 24-39.98 2-.97s-25.5 42.08-25.5 42.26z"/><path id="jj1eS" d="M257.84 1889.43l-2.72 4.35 2.5 1.64 2.71-4.35c.32-.5.31-1.16-.01-1.65-.59-.92-1.9-.91-2.48.01zm6.8-3.76l4.35 6.53-2.45 3.94a.99.99 0 0 1-1.69 0l-3.2-5.1c-.23-.35-.21-.8.03-1.16.88-1.28 2.96-4.21 2.96-4.21z"/><path id="jj1eU" d="M269.73 1923.97c0-4.7 3.76-8.51 8.4-8.51 4.65 0 8.4 3.81 8.4 8.51v-1.65c0-4.7-3.75-8.51-8.4-8.51a8.46 8.46 0 0 0-8.4 8.5z"/><path id="jj1eV" d="M283.82 1967.73l-3.3-22.72c-.8-.67-6.27-5.77-6.4-11.67l.55.2c.13 5.94 6.19 11.01 6.25 11.06l.1.07 3.33 22.97z"/><path id="jj1eW" d="M262.76 1943.5l-.34-.6c1.32-1.82 3.5-6.7 3-13.39l.56-.07c.72 8.38-2.85 13.55-3.22 14.07z"/><path id="jj1eX" d="M296.04 1953.66l-7.85-13.68.04-.13c.02-.07 2-6.33-2.42-12.1l.23-.66c4.25 5.55 2.99 11.8 2.74 12.8l7.2 12.5z"/><path id="jj1eY" d="M296.03 1924.75c-.12-.04-3-.9-4.38-7.7l.53-.12c1.3 6.4 3.82 7.16 3.85 7.17z"/><radialGradient id="jj1eb" cx="267.54" cy="1926.7" r="50.36" gradientUnits="userSpaceOnUse"><stop offset="0" stop-color="#c8ff00"/><stop offset="1" stop-color="#c8ff00" stop-opacity="0"/></radialGradient><linearGradient id="jj1ed" x1="326.68" x2="319.56" y1="1915.41" y2="1926.86" gradientUnits="userSpaceOnUse"><stop offset="0" stop-color="#c8ff00"/><stop offset=".15" stop-color="#afc52c"/><stop offset=".31" stop-color="#999055"/><stop offset=".47" stop-color="#866377"/><stop offset=".62" stop-color="#774193"/><stop offset=".76" stop-color="#6c2aa6"/><stop offset=".89" stop-color="#671bb1"/><stop offset="1" stop-color="#6516b5"/></linearGradient><linearGradient id="jj1ef" x1="294.68" x2="297.97" y1="1910.25" y2="1922.23" gradientUnits="userSpaceOnUse"><stop offset="0" stop-color="#c8ff00"/><stop offset=".15" stop-color="#afc52c"/><stop offset=".31" stop-color="#999055"/><stop offset=".47" stop-color="#866377"/><stop offset=".62" stop-color="#774193"/><stop offset=".76" stop-color="#6c2aa6"/><stop offset=".89" stop-color="#671bb1"/><stop offset="1" stop-color="#6516b5"/></linearGradient><linearGradient id="jj1eh" x1="254.31" x2="253.78" y1="1927.82" y2="1938.07" gradientUnits="userSpaceOnUse"><stop offset="0" stop-color="#c8ff00"/><stop offset=".15" stop-color="#afc52c"/><stop offset=".31" stop-color="#999055"/><stop offset=".47" stop-color="#866377"/><stop offset=".62" stop-color="#774193"/><stop offset=".76" stop-color="#6c2aa6"/><stop offset=".89" stop-color="#671bb1"/><stop offset="1" stop-color="#6516b5"/></linearGradient><linearGradient id="jj1ej" x1="283.29" x2="284.74" y1="1919.59" y2="1940.35" gradientUnits="userSpaceOnUse"><stop offset="0" stop-color="#c8ff00"/><stop offset=".15" stop-color="#afc52c"/><stop offset=".31" stop-color="#999055"/><stop offset=".47" stop-color="#866377"/><stop offset=".62" stop-color="#774193"/><stop offset=".76" stop-color="#6c2aa6"/><stop offset=".89" stop-color="#671bb1"/><stop offset="1" stop-color="#6516b5"/></linearGradient><linearGradient id="jj1en" x1="312.88" x2="291.98" y1="1913.2" y2="1917.09" gradientUnits="userSpaceOnUse"><stop offset="0" stop-color="#c8ff00"/><stop offset=".1" stop-color="#afc52c"/><stop offset=".21" stop-color="#999055"/><stop offset=".31" stop-color="#866377"/><stop offset=".41" stop-color="#774193"/><stop offset=".51" stop-color="#6c2aa6"/><stop offset=".59" stop-color="#671bb1"/><stop offset=".66" stop-color="#6516b5"/></linearGradient><linearGradient id="jj1eq" x1="271.58" x2="284.2" y1="1999.76" y2="1988.36" gradientUnits="userSpaceOnUse"><stop offset="0" stop-color="#c8ff00"/><stop offset=".15" stop-color="#afc52c"/><stop offset=".31" stop-color="#999055"/><stop offset=".47" stop-color="#866377"/><stop offset=".62" stop-color="#774193"/><stop offset=".76" stop-color="#6c2aa6"/><stop offset=".89" stop-color="#671bb1"/><stop offset="1" stop-color="#6516b5"/></linearGradient><linearGradient id="jj1et" x1="268.77" x2="283.77" y1="1924.92" y2="1915.8" gradientUnits="userSpaceOnUse"><stop offset="0" stop-color="#c8ff00"/><stop offset=".15" stop-color="#afc52c"/><stop offset=".31" stop-color="#999055"/><stop offset=".47" stop-color="#866377"/><stop offset=".62" stop-color="#774193"/><stop offset=".76" stop-color="#6c2aa6"/><stop offset=".89" stop-color="#671bb1"/><stop offset="1" stop-color="#6516b5"/></linearGradient><linearGradient id="jj1ev" x1="272.66" x2="287.66" y1="1932.35" y2="1923.22" gradientUnits="userSpaceOnUse"><stop offset="0" stop-color="#c8ff00"/><stop offset=".15" stop-color="#afc52c"/><stop offset=".31" stop-color="#999055"/><stop offset=".47" stop-color="#866377"/><stop offset=".62" stop-color="#774193"/><stop offset=".76" stop-color="#6c2aa6"/><stop offset=".89" stop-color="#671bb1"/><stop offset="1" stop-color="#6516b5"/></linearGradient><linearGradient id="jj1ex" x1="270.87" x2="285.89" y1="1928.95" y2="1919.83" gradientUnits="userSpaceOnUse"><stop offset="0" stop-color="#c8ff00"/><stop offset=".15" stop-color="#afc52c"/><stop offset=".31" stop-color="#999055"/><stop offset=".47" stop-color="#866377"/><stop offset=".62" stop-color="#774193"/><stop offset=".76" stop-color="#6c2aa6"/><stop offset=".89" stop-color="#671bb1"/><stop offset="1" stop-color="#6516b5"/></linearGradient><linearGradient id="jj1eB" x1="274" x2="289.04" y1="1926.66" y2="1917.54" gradientUnits="userSpaceOnUse"><stop offset="0" stop-color="#c8ff00"/><stop offset=".15" stop-color="#afc52c"/><stop offset=".31" stop-color="#999055"/><stop offset=".47" stop-color="#866377"/><stop offset=".62" stop-color="#774193"/><stop offset=".76" stop-color="#6c2aa6"/><stop offset=".89" stop-color="#671bb1"/><stop offset="1" stop-color="#6516b5"/></linearGradient><linearGradient id="jj1eD" x1="241.34" x2="253.49" y1="1911.02" y2="1914.44" gradientUnits="userSpaceOnUse"><stop offset="0" stop-color="#c8ff00"/><stop offset=".15" stop-color="#afc52c"/><stop offset=".31" stop-color="#999055"/><stop offset=".47" stop-color="#866377"/><stop offset=".62" stop-color="#774193"/><stop offset=".76" stop-color="#6c2aa6"/><stop offset=".89" stop-color="#671bb1"/><stop offset="1" stop-color="#6516b5"/></linearGradient><linearGradient id="jj1eG" x1="294.07" x2="305.68" y1="2012.29" y2="2013.63" gradientUnits="userSpaceOnUse"><stop offset="0" stop-color="#c8ff00"/><stop offset=".15" stop-color="#afc52c"/><stop offset=".31" stop-color="#999055"/><stop offset=".47" stop-color="#866377"/><stop offset=".62" stop-color="#774193"/><stop offset=".76" stop-color="#6c2aa6"/><stop offset=".89" stop-color="#671bb1"/><stop offset="1" stop-color="#6516b5"/></linearGradient><linearGradient id="jj1eI" x1="258.43" x2="296.47" y1="1877.5" y2="1823.6" gradientUnits="userSpaceOnUse"><stop offset="0" stop-color="#c8ff00"/><stop offset=".1" stop-color="#afc52c"/><stop offset=".21" stop-color="#999055"/><stop offset=".31" stop-color="#866377"/><stop offset=".41" stop-color="#774193"/><stop offset=".51" stop-color="#6c2aa6"/><stop offset=".59" stop-color="#671bb1"/><stop offset=".66" stop-color="#6516b5"/></linearGradient><linearGradient id="jj1eL" x1="272.84" x2="298.12" y1="1871.01" y2="1863.69" gradientUnits="userSpaceOnUse"><stop offset="0" stop-color="#c8ff00"/><stop offset=".1" stop-color="#afc52c"/><stop offset=".21" stop-color="#999055"/><stop offset=".31" stop-color="#866377"/><stop offset=".41" stop-color="#774193"/><stop offset=".51" stop-color="#6c2aa6"/><stop offset=".59" stop-color="#671bb1"/><stop offset=".66" stop-color="#6516b5"/></linearGradient><linearGradient id="jj1eN" x1="278.38" x2="316.62" y1="1868.81" y2="1814.64" gradientUnits="userSpaceOnUse"><stop offset="0" stop-color="#c8ff00"/><stop offset=".1" stop-color="#afc52c"/><stop offset=".21" stop-color="#999055"/><stop offset=".31" stop-color="#866377"/><stop offset=".41" stop-color="#774193"/><stop offset=".51" stop-color="#6c2aa6"/><stop offset=".59" stop-color="#671bb1"/><stop offset=".66" stop-color="#6516b5"/></linearGradient><linearGradient id="jj1eP" x1="247.93" x2="276.81" y1="1889.16" y2="1840.02" gradientUnits="userSpaceOnUse"><stop offset="0" stop-color="#c8ff00"/><stop offset=".1" stop-color="#afc52c"/><stop offset=".21" stop-color="#999055"/><stop offset=".31" stop-color="#866377"/><stop offset=".41" stop-color="#774193"/><stop offset=".51" stop-color="#6c2aa6"/><stop offset=".59" stop-color="#671bb1"/><stop offset=".66" stop-color="#6516b5"/></linearGradient><linearGradient id="jj1eR" x1="250.26" x2="279.14" y1="1891.17" y2="1842.01" gradientUnits="userSpaceOnUse"><stop offset="0" stop-color="#c8ff00"/><stop offset=".1" stop-color="#afc52c"/><stop offset=".21" stop-color="#999055"/><stop offset=".31" stop-color="#866377"/><stop offset=".41" stop-color="#774193"/><stop offset=".51" stop-color="#6c2aa6"/><stop offset=".59" stop-color="#671bb1"/><stop offset=".66" stop-color="#6516b5"/></linearGradient><linearGradient id="jj1eT" x1="264.77" x2="258.82" y1="1888.87" y2="1898.39" gradientUnits="userSpaceOnUse"><stop offset="0" stop-color="#c8ff00"/><stop offset=".1" stop-color="#afc52c"/><stop offset=".21" stop-color="#999055"/><stop offset=".31" stop-color="#866377"/><stop offset=".41" stop-color="#774193"/><stop offset=".51" stop-color="#6c2aa6"/><stop offset=".59" stop-color="#671bb1"/><stop offset=".66" stop-color="#6516b5"/></linearGradient></defs><g><g transform="translate(-212 -1838)"><g><use fill="url(#jj1eb)" xlink:href="#jj1ea"/></g><g><use fill="url(#jj1ed)" xlink:href="#jj1ec"/></g><g><use fill="url(#jj1ef)" xlink:href="#jj1ee"/></g><g><use fill="url(#jj1eh)" xlink:href="#jj1eg"/></g><g><use fill="url(#jj1ej)" xlink:href="#jj1ei"/></g><g><use fill="#6516b5" xlink:href="#jj1ek"/></g><g><use fill="#6516b5" xlink:href="#jj1el"/></g><g><use fill="url(#jj1en)" xlink:href="#jj1em"/></g><g><use fill="#6516b5" xlink:href="#jj1eo"/></g><g><use fill="url(#jj1eq)" xlink:href="#jj1ep"/></g><g><g><use fill="#c8ff00" xlink:href="#jj1er"/></g><g><use fill="url(#jj1et)" xlink:href="#jj1es"/></g><g><use fill="url(#jj1ev)" xlink:href="#jj1eu"/></g><g><use fill="url(#jj1ex)" xlink:href="#jj1ew"/></g><g><use fill="#6516b5" xlink:href="#jj1ey"/></g><g><use fill="#6516b5" xlink:href="#jj1ez"/></g><g><use fill="url(#jj1eB)" xlink:href="#jj1eA"/></g></g><g><use fill="url(#jj1eD)" xlink:href="#jj1eC"/></g><g><use fill="#6516b5" xlink:href="#jj1eE"/></g><g><use fill="url(#jj1eG)" xlink:href="#jj1eF"/></g><g><g><use fill="url(#jj1eI)" xlink:href="#jj1eH"/></g><g><use fill="#c8ff00" xlink:href="#jj1eJ"/></g><g><use fill="url(#jj1eL)" xlink:href="#jj1eK"/></g><g><use fill="url(#jj1eN)" xlink:href="#jj1eM"/></g><g><use fill="url(#jj1eP)" xlink:href="#jj1eO"/></g><g><use fill="url(#jj1eR)" xlink:href="#jj1eQ"/></g></g><g><use fill="url(#jj1eT)" xlink:href="#jj1eS"/></g><g><use fill="#6516b5" xlink:href="#jj1eU"/></g><g><use fill="#c8ff00" xlink:href="#jj1eV"/></g><g><use fill="#c8ff00" xlink:href="#jj1eW"/></g><g><use fill="#c8ff00" xlink:href="#jj1eX"/></g><g><use fill="#c8ff00" xlink:href="#jj1eY"/></g></g></g></svg>