<svg xmlns="http://www.w3.org/2000/svg" xmlns:xlink="http://www.w3.org/1999/xlink" width="121" height="181" viewBox="0 0 121 181"><defs><path id="432za" d="M63 1914v-75h71v75z"/><path id="432zc" d="M96 1969v-12h19v12z"/><path id="432zd" d="M43 1841v110h6.4c.95-2.18 1.91-4.34 2.9-6.49a136.5 136.5 0 0 1 8.15-15.34c1.28-2.03 2.61-4.19 4.27-5.86 1.37-1.38-.34-6.23 1.42-6.85 8.19-2.94 20.19 4.54 28.5 4.45a73 73 0 0 0 17.97-2.33c4.08-1.09 8.44-3.28 12.62-1.47 3.26 1.41 5.98 4.2 8.32 7.03a69.44 69.44 0 0 1 7.28 10.98 61.34 61.34 0 0 1 4.55 10.12c.6 1.83 1.16 3.78 1.56 5.76H154v-110z"/><path id="432zf" d="M43 1941.47l9.37 5.53 17.9-31.7c1.5-2.64.6-6.04-1.97-7.56a5.37 5.37 0 0 0-7.4 2.02z"/><path id="432zh" d="M153 1940.47l-9.37 5.53-17.9-31.7a5.62 5.62 0 0 1 1.97-7.56 5.37 5.37 0 0 1 7.4 2.02z"/><path id="432zj" d="M88.51 2013h2.99c3.03 0 5.5-2.5 5.5-5.56v-66.1a3.34 3.34 0 0 0-3.31-3.34H86.3a3.34 3.34 0 0 0-3.31 3.35v66.09a5.55 5.55 0 0 0 5.51 5.56z"/><path id="432zk" d="M98.25 1922.08a5.6 5.6 0 0 1 3.61-6.98l28.02-8.85a5.49 5.49 0 0 1 6.87 3.67 5.6 5.6 0 0 1-3.61 6.98l-28.02 8.85a5.5 5.5 0 0 1-6.87-3.67z"/><path id="432zm" d="M98.76 1922.12a5.61 5.61 0 0 0-3.5-6.96l-27.3-8.9a5.34 5.34 0 0 0-6.72 3.62 5.61 5.61 0 0 0 3.5 6.96l27.3 8.9a5.34 5.34 0 0 0 6.72-3.62z"/><path id="432zo" d="M99.54 1969.96c-7.2.52-14.21-4.3-15.75-11.52l-1.02-11.68-5.57-22.02c-1.16-5.41 2.9-10.6 8.29-10.62l25.2-.12c5.18-.02 9.08 4.74 8.18 10l-5.06 23.03-.58 10.22c-1.18 6.95-6.86 12.23-13.7 12.71z"/><path id="432zq" d="M83 1951.88c0 9.5 31 9.5 31 0V1950c-3.16 7-27.62 5.88-31 0z"/><path id="432zs" d="M114.04 1950c-3.83 0-6.97 2.62-6.98 5.82L107 2009l13.94.01.06-53.16c0-3.21-3.13-5.84-6.96-5.84z"/><path id="432zu" d="M119.76 2014.51l3.24.49v-2.91c0-4.48-3.07-8.09-6.85-8.09h-3.3c-3.78 0-6.85 3.62-6.85 8.09v2.91z"/><path id="432zw" d="M106 2015c0-2.76 3.8-5 8.5-5s8.5 2.24 8.5 5-3.8 5-8.5 5-8.5-2.24-8.5-5z"/><path id="432zx" d="M153.07 1940.42l-6.83-.42-1.86 3.45-.1.44c-.7 3.36-.1 6.84 1.69 9.8l2.25-1.51 1.82 2.82 8.96-5.34z"/><path id="432zy" d="M43.93 1940.45l6.82-.45 1.87 3.68.1.47c.7 3.58.1 7.3-1.69 10.45l-2.25-1.61-1.82 3.01-8.96-5.7z"/><path id="432zz" d="M74 1909v20.48a8.9 8.9 0 0 0 4.92 7.94L92 1944v-29.86z"/><path id="432zB" d="M123 1909v20.48a8.9 8.9 0 0 1-4.92 7.94L105 1944v-29.86z"/><path id="432zD" d="M87.39 1920.54a2.61 2.61 0 0 1 2.58-2.64 2.61 2.61 0 0 1 2.58 2.64 2.61 2.61 0 0 1-2.58 2.65 2.61 2.61 0 0 1-2.58-2.65z"/><path id="432zF" d="M104.18 1920.54a2.61 2.61 0 0 1 2.58-2.64 2.61 2.61 0 0 1 2.58 2.64 2.61 2.61 0 0 1-2.58 2.65 2.61 2.61 0 0 1-2.58-2.65z"/><path id="432zH" d="M89.55 1920.91a9 9 0 0 1 8.88-9.1 9 9 0 0 1 8.88 9.1 9 9 0 0 1-8.88 9.11 9 9 0 0 1-8.88-9.1z"/><path id="432zJ" d="M107.34 1920.92c-3.3-4.48-14.67-4.05-17.73 0v-20.6c0-5.02 3.97-9.09 8.87-9.09 4.9 0 8.86 4.07 8.86 9.1z"/><path id="432zK" d="M101.56 1925.7c.34 0 .62-.28.62-.62v-1.15a.62.62 0 0 0-.62-.63.62.62 0 0 0-.61.63v1.15c0 .34.27.63.61.63z"/><path id="432zL" d="M95 1925.7c.33 0 .6-.28.6-.62v-1.15a.62.62 0 0 0-.6-.63.62.62 0 0 0-.62.63v1.15c0 .34.28.63.61.63z"/><path id="432zM" d="M98.37 1925.98l-2.13 3.81 2.19 1.76 2.16-1.8z"/><linearGradient id="432zb" x1="98.5" x2="98.5" y1="2062.15" y2="1809.55" gradientUnits="userSpaceOnUse"><stop offset="0" stop-color="#c8ff00"/><stop offset="1" stop-color="#c8ff00" stop-opacity="0"/></linearGradient><linearGradient id="432ze" x1="98.51" x2="98.51" y1="2026.72" y2="1835.77" gradientUnits="userSpaceOnUse"><stop offset="0" stop-color="#c8ff00"/><stop offset="1" stop-color="#c8ff00" stop-opacity="0"/></linearGradient><linearGradient id="432zg" x1="52.41" x2="60" y1="1920.35" y2="1929.33" gradientUnits="userSpaceOnUse"><stop offset="0" stop-color="#c8ff00"/><stop offset=".15" stop-color="#afc52c"/><stop offset=".31" stop-color="#999055"/><stop offset=".47" stop-color="#866377"/><stop offset=".62" stop-color="#774193"/><stop offset=".76" stop-color="#6c2aa6"/><stop offset=".89" stop-color="#671bb1"/><stop offset="1" stop-color="#6516b5"/></linearGradient><linearGradient id="432zi" x1="143.81" x2="136.22" y1="1919.35" y2="1928.32" gradientUnits="userSpaceOnUse"><stop offset="0" stop-color="#c8ff00"/><stop offset=".15" stop-color="#afc52c"/><stop offset=".31" stop-color="#999055"/><stop offset=".47" stop-color="#866377"/><stop offset=".62" stop-color="#774193"/><stop offset=".76" stop-color="#6c2aa6"/><stop offset=".89" stop-color="#671bb1"/><stop offset="1" stop-color="#6516b5"/></linearGradient><linearGradient id="432zl" x1="117.37" x2="117.62" y1="1909.36" y2="1921.21" gradientUnits="userSpaceOnUse"><stop offset="0" stop-color="#c8ff00"/><stop offset=".15" stop-color="#afc52c"/><stop offset=".31" stop-color="#999055"/><stop offset=".47" stop-color="#866377"/><stop offset=".62" stop-color="#774193"/><stop offset=".76" stop-color="#6c2aa6"/><stop offset=".89" stop-color="#671bb1"/><stop offset="1" stop-color="#6516b5"/></linearGradient><linearGradient id="432zn" x1="80.11" x2="79.83" y1="1909.55" y2="1921.34" gradientUnits="userSpaceOnUse"><stop offset="0" stop-color="#c8ff00"/><stop offset=".15" stop-color="#afc52c"/><stop offset=".31" stop-color="#999055"/><stop offset=".47" stop-color="#866377"/><stop offset=".62" stop-color="#774193"/><stop offset=".76" stop-color="#6c2aa6"/><stop offset=".89" stop-color="#671bb1"/><stop offset="1" stop-color="#6516b5"/></linearGradient><linearGradient id="432zp" x1="95.42" x2="104.65" y1="1915.1" y2="1954.89" gradientUnits="userSpaceOnUse"><stop offset="0" stop-color="#c8ff00"/><stop offset=".04" stop-color="#c1ee0c"/><stop offset=".2" stop-color="#a0a248"/><stop offset=".35" stop-color="#876677"/><stop offset=".47" stop-color="#753b99"/><stop offset=".57" stop-color="#6920ad"/><stop offset=".63" stop-color="#6516b5"/></linearGradient><linearGradient id="432zr" x1="83" x2="114" y1="1954.5" y2="1954.5" gradientUnits="userSpaceOnUse"><stop offset="0" stop-color="#c8ff00"/><stop offset=".15" stop-color="#afc52c"/><stop offset=".31" stop-color="#999055"/><stop offset=".47" stop-color="#866377"/><stop offset=".62" stop-color="#774193"/><stop offset=".76" stop-color="#6c2aa6"/><stop offset=".89" stop-color="#671bb1"/><stop offset="1" stop-color="#6516b5"/></linearGradient><linearGradient id="432zt" x1="125.2" x2="110.08" y1="1960.01" y2="1989.45" gradientUnits="userSpaceOnUse"><stop offset="0" stop-color="#c8ff00"/><stop offset=".1" stop-color="#afc52c"/><stop offset=".21" stop-color="#999055"/><stop offset=".31" stop-color="#866377"/><stop offset=".41" stop-color="#774193"/><stop offset=".51" stop-color="#6c2aa6"/><stop offset=".59" stop-color="#671bb1"/><stop offset=".66" stop-color="#6516b5"/></linearGradient><linearGradient id="432zv" x1="114.5" x2="114.5" y1="2003.91" y2="2024.44" gradientUnits="userSpaceOnUse"><stop offset="0" stop-color="#c8ff00"/><stop offset=".1" stop-color="#afc52c"/><stop offset=".21" stop-color="#999055"/><stop offset=".31" stop-color="#866377"/><stop offset=".41" stop-color="#774193"/><stop offset=".51" stop-color="#6c2aa6"/><stop offset=".59" stop-color="#671bb1"/><stop offset=".66" stop-color="#6516b5"/></linearGradient><linearGradient id="432zA" x1="83" x2="83" y1="1915.95" y2="1960.36" gradientUnits="userSpaceOnUse"><stop offset="0" stop-color="#c8ff00"/><stop offset=".15" stop-color="#afc52c"/><stop offset=".31" stop-color="#999055"/><stop offset=".47" stop-color="#866377"/><stop offset=".62" stop-color="#774193"/><stop offset=".76" stop-color="#6c2aa6"/><stop offset=".89" stop-color="#671bb1"/><stop offset="1" stop-color="#6516b5"/></linearGradient><linearGradient id="432zC" x1="114" x2="114" y1="1915.95" y2="1960.36" gradientUnits="userSpaceOnUse"><stop offset="0" stop-color="#c8ff00"/><stop offset=".15" stop-color="#afc52c"/><stop offset=".31" stop-color="#999055"/><stop offset=".47" stop-color="#866377"/><stop offset=".62" stop-color="#774193"/><stop offset=".76" stop-color="#6c2aa6"/><stop offset=".89" stop-color="#671bb1"/><stop offset="1" stop-color="#6516b5"/></linearGradient><linearGradient id="432zE" x1="89.27" x2="104.92" y1="1920.95" y2="1911.89" gradientUnits="userSpaceOnUse"><stop offset="0" stop-color="#c8ff00"/><stop offset=".15" stop-color="#afc52c"/><stop offset=".31" stop-color="#999055"/><stop offset=".47" stop-color="#866377"/><stop offset=".62" stop-color="#774193"/><stop offset=".76" stop-color="#6c2aa6"/><stop offset=".89" stop-color="#671bb1"/><stop offset="1" stop-color="#6516b5"/></linearGradient><linearGradient id="432zG" x1="93.32" x2="108.97" y1="1928.33" y2="1919.27" gradientUnits="userSpaceOnUse"><stop offset="0" stop-color="#c8ff00"/><stop offset=".15" stop-color="#afc52c"/><stop offset=".31" stop-color="#999055"/><stop offset=".47" stop-color="#866377"/><stop offset=".62" stop-color="#774193"/><stop offset=".76" stop-color="#6c2aa6"/><stop offset=".89" stop-color="#671bb1"/><stop offset="1" stop-color="#6516b5"/></linearGradient><linearGradient id="432zI" x1="91.46" x2="107.12" y1="1924.94" y2="1915.9" gradientUnits="userSpaceOnUse"><stop offset="0" stop-color="#c8ff00"/><stop offset=".15" stop-color="#afc52c"/><stop offset=".31" stop-color="#999055"/><stop offset=".47" stop-color="#866377"/><stop offset=".62" stop-color="#774193"/><stop offset=".76" stop-color="#6c2aa6"/><stop offset=".89" stop-color="#671bb1"/><stop offset="1" stop-color="#6516b5"/></linearGradient><linearGradient id="432zN" x1="94.73" x2="110.37" y1="1930.88" y2="1921.83" gradientUnits="userSpaceOnUse"><stop offset="0" stop-color="#c8ff00"/><stop offset=".15" stop-color="#afc52c"/><stop offset=".31" stop-color="#999055"/><stop offset=".47" stop-color="#866377"/><stop offset=".62" stop-color="#774193"/><stop offset=".76" stop-color="#6c2aa6"/><stop offset=".89" stop-color="#671bb1"/><stop offset="1" stop-color="#6516b5"/></linearGradient></defs><g><g transform="translate(-38 -1839)"><g><use fill="url(#432zb)" xlink:href="#432za"/></g><g><use fill="#6516b5" xlink:href="#432zc"/></g><g><use fill="url(#432ze)" xlink:href="#432zd"/></g><g><use fill="url(#432zg)" xlink:href="#432zf"/></g><g><use fill="url(#432zi)" xlink:href="#432zh"/></g><g><use fill="#6516b5" xlink:href="#432zj"/></g><g><use fill="url(#432zl)" xlink:href="#432zk"/></g><g><use fill="url(#432zn)" xlink:href="#432zm"/></g><g><use fill="url(#432zp)" xlink:href="#432zo"/></g><g><use fill="url(#432zr)" xlink:href="#432zq"/></g><g><use fill="url(#432zt)" xlink:href="#432zs"/></g><g><use fill="url(#432zv)" xlink:href="#432zu"/></g><g><use fill="#6516b5" xlink:href="#432zw"/></g><g><use fill="#6516b5" xlink:href="#432zx"/></g><g><use fill="#6516b5" xlink:href="#432zy"/></g><g><use fill="url(#432zA)" xlink:href="#432zz"/></g><g><use fill="url(#432zC)" xlink:href="#432zB"/></g><g><g><use fill="url(#432zE)" xlink:href="#432zD"/></g><g><use fill="url(#432zG)" xlink:href="#432zF"/></g><g><use fill="url(#432zI)" xlink:href="#432zH"/></g><g><use fill="#c8ff00" xlink:href="#432zJ"/></g><g><use fill="#6516b5" xlink:href="#432zK"/></g><g><use fill="#6516b5" xlink:href="#432zL"/></g><g><use fill="url(#432zN)" xlink:href="#432zM"/></g></g></g></g></svg>