<svg xmlns="http://www.w3.org/2000/svg" xmlns:xlink="http://www.w3.org/1999/xlink" width="123" height="164.53" viewBox="0 0 123 164.53"><defs><path id="vutha" d="M286.94 2255.18l-.02.14c-.49 3.61-3.63 6.13-6.98 5.61l-55.66-8.62c-3.35-.52-5.7-3.9-5.22-7.5l.02-.13c.49-3.61 3.63-6.13 6.98-5.61l55.65 8.62c3.36.51 5.71 3.89 5.23 7.5z"/><path id="vuthc" d="M249.82 2294.54l.43 17.65-21.7.46-.01-1.65c-.03-3.9 2.6-7.22 6.17-7.79l2-.3c3.72-.7 4.05-4.38 4.01-6.5-.04-3 9.1-1.87 9.1-1.87z"/><path id="vuthe" d="M235.85 2308.5a12.7 12.7 0 0 1-1.46-5.46l.99-.21c.1 1.23.26 2.53 1.31 4.37z"/><path id="vuthf" d="M238.52 2305.43l-.2.18c3.67-2.94 9.5-3.5 11.85-3.6l.06 1.48c-6.93.3-14.26 2.83-14.03 9.07l-1.04.04c-.1-2.76.88-4.8 2.4-6.3a11.48 11.48 0 0 1-1.14-3.61l.48-.22c.17 0 .33-.06.49-.15.18.95.41 1.94 1.13 3.11z"/><path id="vuthg" d="M234.57 2311.4c-1.42-1.95-2.37-5.96-2.43-7.3 0 0 .78-.45.94-.51.26 1.84.96 4.71 2.13 6.63-.06.02-.55 1.1-.64 1.19z"/><path id="vuthh" d="M222.93 2239.79c3.12-1.42 6.75.17 8.07 3.54l20.53 52.5-11.35 5.15-20.54-52.49c-1.31-3.36.16-7.28 3.29-8.7z"/><path id="vuthj" d="M268.4 2164.04l-3.96 1.12h-.01l4.87-10.22c.35-.74.06-1.63-.64-2a1.41 1.41 0 0 0-1.93.67l-2.46 5.15-4.5-2.33 2.5-5.27c.36-.74.07-1.64-.64-2a1.41 1.41 0 0 0-1.92.67l-3.37 7.06c-.04.07-.06.14-.08.22l-.22.39-.9 1.88-1.17 2.45-2.54 5.34-3.43 7.18 7.05 3.65 3.43-7.18.04.02 4.7-1.5.32-.13c.09-.01.18-.03.26-.06l5.6-1.96c2.72-.94 1.7-4.1-1-3.15z"/><path id="vuthl" d="M239 2212.5c0-30.1 23.06-54.5 51.5-54.5s51.5 24.4 51.5 54.5-23.06 54.5-51.5 54.5-51.5-24.4-51.5-54.5z"/><path id="vuthn" d="M247.59 2299.82l-.1-.11a6.6 6.6 0 0 1 .6-9l38.7-35.15a5.96 5.96 0 0 1 8.62.62l.1.11a6.6 6.6 0 0 1-.6 9l-38.7 35.15a5.96 5.96 0 0 1-8.62-.62z"/><path id="vuthp" d="M246.07 2295.25c-.02-3.68 2.77-6.7 6.18-6.73l55.98-.41.07 13.38-55.99.41c-3.41.03-6.23-2.97-6.24-6.65z"/><path id="vuthr" d="M304.75 2288.32l16.5-.05-.09 23.56-1.54-.02c-3.64-.06-6.68-3-7.12-6.89l-.25-2.18c-.56-4.05-4-4.5-5.98-4.5-2.79-.02-1.52-9.92-1.52-9.92z"/><path id="vutht" d="M319.03 2313.5l.2-25.21 3.23.03-.21 25.21z"/><path id="vuthv" d="M280.27 2260.99c6.52.3 12.78-4.5 14.08-11.47l5.5-32.53c.97-5.23-2.77-10.1-7.65-9.99l-22.8.52c-4.68.11-8.15 4.78-7.26 9.82l5.56 31.78c1.16 6.65 6.38 11.57 12.57 11.87z"/><path id="vuthx" d="M269.34 2214.37l-.05.1a4.85 4.85 0 0 1-6.72 1.86l-23.11-13.77a5.18 5.18 0 0 1-1.8-6.93l.05-.1a4.85 4.85 0 0 1 6.71-1.86l23.13 13.77a5.17 5.17 0 0 1 1.8 6.93z"/><path id="vuthz" d="M250.11 2172l8.89 4.64-11.6 24.5a4.8 4.8 0 0 1-6.58 2.32l-.1-.05a5.28 5.28 0 0 1-2.2-6.9z"/><path id="vuthB" d="M291.17 2238.55c.04.01.06.03.09.05l.03-.07 29.06 15.83c1.59.87 1.46 3.38-.22 4.05l-14.04 4.68c-1.75.62-2.01 1.89-1.64 3.5l4.34 14.57c.48 1.84-1.35 3.4-2.94 2.51l-29-15.78a.58.58 0 0 1-.08-.04c-7.64-4.21-10.61-14.18-6.64-22.28 3.98-8.1 13.4-11.23 21.04-7.02z"/><path id="vuthD" d="M314.58 2257.74a1.5 1.5 0 0 1-.7-2.02 1.5 1.5 0 0 1 2.05-.58c.76.4 1.07 1.3.7 2.02a1.5 1.5 0 0 1-2.05.58z"/><path id="vuthE" d="M309.6 2258.39a1.5 1.5 0 0 1-.7-2.02 1.5 1.5 0 0 1 2.05-.58c.76.4 1.07 1.3.7 2.02a1.5 1.5 0 0 1-2.05.58z"/><path id="vuthF" d="M221.65 2221.52l3.04-5.97 15.22 5.79-5.91 11.4z"/><path id="vuthH" d="M225.62 2223.84l.35-.66 66.67 34.7-.35.66z"/><path id="vuthI" d="M226.42 2222.28l.35-.66 66.67 34.7-.35.66z"/><path id="vuthJ" d="M227.2 2220.73l.35-.66 66.67 34.7-.35.66z"/><path id="vuthK" d="M295.39 2211.02l.1-.01c2.57-.17 4.8 1.99 4.95 4.8l1.55 27.75c.16 2.81-1.81 5.25-4.38 5.42l-.1.01c-2.57.17-4.8-1.99-4.95-4.8l-1.55-27.75c-.16-2.81 1.81-5.25 4.38-5.42z"/><path id="vuthM" d="M282.94 2280.59c2.03 1.03 4.43.06 5.37-2.17l.07-.22 2.6-6.16c.05-.14 0-.3-.12-.35l-5.2-2.66a.23.23 0 0 0-.18-.02l-3.39 1.26a5.53 5.53 0 0 0-3.12 3.08l-.73 1.73c-.6 1.4-.05 3.08 1.23 3.74z"/><path id="vuthO" d="M290.05 2273l-9.05-4.5 11.45-24.6a4.92 4.92 0 0 1 6.64-2.4l.1.05a5.24 5.24 0 0 1 2.32 6.86z"/><path id="vuthQ" d="M263.19 2216.63a2.5 2.5 0 1 1 2.62-4.26 2.5 2.5 0 0 1-2.62 4.26z"/><path id="vuthR" d="M286.53 2191.56l-17.4 30.17-12.91-8.27 17.4-30.18a7.25 7.25 0 0 1 10.27-2.63l.14.09a8.12 8.12 0 0 1 2.5 10.82z"/><path id="vuthS" d="M256.73 2221.41l3.29 5.52 2.64-3.33z"/><path id="vuthT" d="M255.48 2217.07c0-4.41 3.4-7.99 7.58-7.99 4.2 0 7.59 3.58 7.59 8 0 4.41-3.4 7.99-7.58 7.99-4.2 0-7.59-3.58-7.59-8z"/><path id="vuthV" d="M260.04 2219.8a.6.6 0 0 0 0-.82l-.85-.9a.53.53 0 0 0-.78 0 .6.6 0 0 0 0 .82l.86.9c.2.22.56.22.77 0z"/><path id="vuthW" d="M270.2 2214.4c-3.3-3.42-4.95.33-4.95.33l-4.19-2.49a3.55 3.55 0 0 0-4.84 1.23c.18-.15 5.32-7.3 5.32-7.3l8.33 3.42z"/><path id="vuthX" d="M316.22 2303.8a6.02 6.02 0 0 1-3.7 1.34l-.1-1.06c.83-.07 1.7-.18 2.96-1.24z"/><path id="vuthZ" d="M314.24 2300.82l.1.22c-1.86-4.03-2.06-10.27-2.06-12.79h.99c0 7.4 1.49 15.33 5.67 15.33v1.11c-1.85 0-3.18-1.13-4.15-2.8-.76.56-1.56.92-2.44 1.07l-.13-.52c0-.18-.03-.35-.09-.52a4.49 4.49 0 0 0 2.1-1.1z"/><path id="vuthab" d="M318.13 2305.28a9.11 9.11 0 0 1-4.97 2.3s-.27-.85-.31-1.03a9.56 9.56 0 0 0 4.49-2.01c.02.07.73.64.79.74z"/><path id="vuthad" d="M266.25 2236l16.55-7.4c.11-.05.2-.17.2-.3a.37.37 0 0 0-.17-.34l-6.65-4.68 5.95.53c.1.01.2-.02.28-.1.07-.07.1-.18.1-.3l-1.66-15.41-.66.08 1.61 14.96-6.93-.55a.33.33 0 0 0-.37.23c-.05.17 0 .35.15.43l7.28 5.08-15.93 7.11z"/><linearGradient id="vuthb" x1="252.8" x2="253.13" y1="2242.67" y2="2254.8" gradientUnits="userSpaceOnUse"><stop offset="0" stop-color="#c8ff00"/><stop offset=".1" stop-color="#afc52c"/><stop offset=".21" stop-color="#999055"/><stop offset=".31" stop-color="#866377"/><stop offset=".41" stop-color="#774193"/><stop offset=".51" stop-color="#6c2aa6"/><stop offset=".59" stop-color="#671bb1"/><stop offset=".66" stop-color="#6516b5"/></linearGradient><linearGradient id="vuthd" x1="230.61" x2="252.77" y1="2302.61" y2="2305.14" gradientUnits="userSpaceOnUse"><stop offset="0" stop-color="#c8ff00"/><stop offset=".1" stop-color="#afc52c"/><stop offset=".21" stop-color="#999055"/><stop offset=".31" stop-color="#866377"/><stop offset=".41" stop-color="#774193"/><stop offset=".51" stop-color="#6c2aa6"/><stop offset=".59" stop-color="#671bb1"/><stop offset=".66" stop-color="#6516b5"/></linearGradient><linearGradient id="vuthi" x1="215.46" x2="242.81" y1="2252.34" y2="2278.7" gradientUnits="userSpaceOnUse"><stop offset="0" stop-color="#c8ff00"/><stop offset=".1" stop-color="#afc52c"/><stop offset=".21" stop-color="#999055"/><stop offset=".31" stop-color="#866377"/><stop offset=".41" stop-color="#774193"/><stop offset=".51" stop-color="#6c2aa6"/><stop offset=".59" stop-color="#671bb1"/><stop offset=".66" stop-color="#6516b5"/></linearGradient><linearGradient id="vuthk" x1="254.02" x2="264.92" y1="2159.37" y2="2170.13" gradientUnits="userSpaceOnUse"><stop offset="0" stop-color="#c8ff00"/><stop offset=".1" stop-color="#afc52c"/><stop offset=".21" stop-color="#999055"/><stop offset=".31" stop-color="#866377"/><stop offset=".41" stop-color="#774193"/><stop offset=".51" stop-color="#6c2aa6"/><stop offset=".59" stop-color="#671bb1"/><stop offset=".66" stop-color="#6516b5"/></linearGradient><radialGradient id="vuthm" cx="290.5" cy="2212.5" r="46.7" gradientUnits="userSpaceOnUse"><stop offset="0" stop-color="#c8ff00"/><stop offset="1" stop-color="#c8ff00" stop-opacity="0"/></radialGradient><linearGradient id="vutho" x1="275.41" x2="267.29" y1="2282.68" y2="2272.94" gradientUnits="userSpaceOnUse"><stop offset="0" stop-color="#c8ff00"/><stop offset=".1" stop-color="#afc52c"/><stop offset=".21" stop-color="#999055"/><stop offset=".31" stop-color="#866377"/><stop offset=".41" stop-color="#774193"/><stop offset=".51" stop-color="#6c2aa6"/><stop offset=".59" stop-color="#671bb1"/><stop offset=".66" stop-color="#6516b5"/></linearGradient><linearGradient id="vuthq" x1="279.65" x2="277.72" y1="2286.48" y2="2297" gradientUnits="userSpaceOnUse"><stop offset="0" stop-color="#c8ff00"/><stop offset=".1" stop-color="#afc52c"/><stop offset=".21" stop-color="#999055"/><stop offset=".31" stop-color="#866377"/><stop offset=".41" stop-color="#774193"/><stop offset=".51" stop-color="#6c2aa6"/><stop offset=".59" stop-color="#671bb1"/><stop offset=".66" stop-color="#6516b5"/></linearGradient><linearGradient id="vuths" x1="314.19" x2="312.45" y1="2287.59" y2="2308.13" gradientUnits="userSpaceOnUse"><stop offset="0" stop-color="#c8ff00"/><stop offset=".1" stop-color="#afc52c"/><stop offset=".21" stop-color="#999055"/><stop offset=".31" stop-color="#866377"/><stop offset=".41" stop-color="#774193"/><stop offset=".51" stop-color="#6c2aa6"/><stop offset=".59" stop-color="#671bb1"/><stop offset=".66" stop-color="#6516b5"/></linearGradient><linearGradient id="vuthu" x1="321.09" x2="320.77" y1="2288.84" y2="2313.16" gradientUnits="userSpaceOnUse"><stop offset="0" stop-color="#c8ff00"/><stop offset=".1" stop-color="#afc52c"/><stop offset=".21" stop-color="#999055"/><stop offset=".31" stop-color="#866377"/><stop offset=".41" stop-color="#774193"/><stop offset=".51" stop-color="#6c2aa6"/><stop offset=".59" stop-color="#671bb1"/><stop offset=".66" stop-color="#6516b5"/></linearGradient><linearGradient id="vuthw" x1="283.74" x2="274.52" y1="2209.03" y2="2246.9" gradientUnits="userSpaceOnUse"><stop offset="0" stop-color="#c8ff00"/><stop offset=".04" stop-color="#c1ee0c"/><stop offset=".2" stop-color="#a0a248"/><stop offset=".35" stop-color="#876677"/><stop offset=".47" stop-color="#753b99"/><stop offset=".57" stop-color="#6920ad"/><stop offset=".63" stop-color="#6516b5"/></linearGradient><linearGradient id="vuthy" x1="258.11" x2="247.19" y1="2200.39" y2="2211.67" gradientUnits="userSpaceOnUse"><stop offset="0" stop-color="#c8ff00"/><stop offset=".1" stop-color="#afc52c"/><stop offset=".21" stop-color="#999055"/><stop offset=".31" stop-color="#866377"/><stop offset=".41" stop-color="#774193"/><stop offset=".51" stop-color="#6c2aa6"/><stop offset=".59" stop-color="#671bb1"/><stop offset=".66" stop-color="#6516b5"/></linearGradient><linearGradient id="vuthA" x1="242.75" x2="252.05" y1="2185.52" y2="2191.52" gradientUnits="userSpaceOnUse"><stop offset="0" stop-color="#c8ff00"/><stop offset=".1" stop-color="#afc52c"/><stop offset=".21" stop-color="#999055"/><stop offset=".31" stop-color="#866377"/><stop offset=".41" stop-color="#774193"/><stop offset=".51" stop-color="#6c2aa6"/><stop offset=".59" stop-color="#671bb1"/><stop offset=".66" stop-color="#6516b5"/></linearGradient><linearGradient id="vuthC" x1="289.1" x2="302.95" y1="2236.93" y2="2285.5" gradientUnits="userSpaceOnUse"><stop offset="0" stop-color="#c8ff00"/><stop offset=".15" stop-color="#afc52c"/><stop offset=".31" stop-color="#999055"/><stop offset=".47" stop-color="#866377"/><stop offset=".62" stop-color="#774193"/><stop offset=".76" stop-color="#6c2aa6"/><stop offset=".89" stop-color="#671bb1"/><stop offset="1" stop-color="#6516b5"/></linearGradient><linearGradient id="vuthG" x1="221.92" x2="238.06" y1="2223.44" y2="2224.98" gradientUnits="userSpaceOnUse"><stop offset="0" stop-color="#c8ff00"/><stop offset=".1" stop-color="#afc52c"/><stop offset=".21" stop-color="#999055"/><stop offset=".31" stop-color="#866377"/><stop offset=".41" stop-color="#774193"/><stop offset=".51" stop-color="#6c2aa6"/><stop offset=".59" stop-color="#671bb1"/><stop offset=".66" stop-color="#6516b5"/></linearGradient><linearGradient id="vuthL" x1="290.05" x2="304.44" y1="2228.59" y2="2231.78" gradientUnits="userSpaceOnUse"><stop offset="0" stop-color="#c8ff00"/><stop offset=".1" stop-color="#afc52c"/><stop offset=".21" stop-color="#999055"/><stop offset=".31" stop-color="#866377"/><stop offset=".41" stop-color="#774193"/><stop offset=".51" stop-color="#6c2aa6"/><stop offset=".59" stop-color="#671bb1"/><stop offset=".66" stop-color="#6516b5"/></linearGradient><linearGradient id="vuthN" x1="287.46" x2="281.29" y1="2278.23" y2="2272.13" gradientUnits="userSpaceOnUse"><stop offset="0" stop-color="#c8ff00"/><stop offset=".1" stop-color="#afc52c"/><stop offset=".21" stop-color="#999055"/><stop offset=".31" stop-color="#866377"/><stop offset=".41" stop-color="#774193"/><stop offset=".51" stop-color="#6c2aa6"/><stop offset=".59" stop-color="#671bb1"/><stop offset=".66" stop-color="#6516b5"/></linearGradient><linearGradient id="vuthP" x1="297.38" x2="287.9" y1="2259.84" y2="2253.98" gradientUnits="userSpaceOnUse"><stop offset="0" stop-color="#c8ff00"/><stop offset=".1" stop-color="#afc52c"/><stop offset=".21" stop-color="#999055"/><stop offset=".31" stop-color="#866377"/><stop offset=".41" stop-color="#774193"/><stop offset=".51" stop-color="#6c2aa6"/><stop offset=".59" stop-color="#671bb1"/><stop offset=".66" stop-color="#6516b5"/></linearGradient><linearGradient id="vuthU" x1="257.99" x2="270.78" y1="2222.32" y2="2209.1" gradientUnits="userSpaceOnUse"><stop offset="0" stop-color="#c8ff00"/><stop offset=".47" stop-color="#6516b5"/></linearGradient><linearGradient id="vuthY" x1="310.32" x2="319.96" y1="2301.75" y2="2307.68" gradientUnits="userSpaceOnUse"><stop offset="0" stop-color="#c8ff00"/><stop offset=".1" stop-color="#afc52c"/><stop offset=".21" stop-color="#999055"/><stop offset=".31" stop-color="#866377"/><stop offset=".41" stop-color="#774193"/><stop offset=".51" stop-color="#6c2aa6"/><stop offset=".59" stop-color="#671bb1"/><stop offset=".66" stop-color="#6516b5"/></linearGradient><linearGradient id="vuthaa" x1="313.2" x2="322.84" y1="2295.85" y2="2301.78" gradientUnits="userSpaceOnUse"><stop offset="0" stop-color="#c8ff00"/><stop offset=".1" stop-color="#afc52c"/><stop offset=".21" stop-color="#999055"/><stop offset=".31" stop-color="#866377"/><stop offset=".41" stop-color="#774193"/><stop offset=".51" stop-color="#6c2aa6"/><stop offset=".59" stop-color="#671bb1"/><stop offset=".66" stop-color="#6516b5"/></linearGradient><linearGradient id="vuthac" x1="309.84" x2="319.47" y1="2302.73" y2="2308.68" gradientUnits="userSpaceOnUse"><stop offset="0" stop-color="#c8ff00"/><stop offset=".1" stop-color="#afc52c"/><stop offset=".21" stop-color="#999055"/><stop offset=".31" stop-color="#866377"/><stop offset=".41" stop-color="#774193"/><stop offset=".51" stop-color="#6c2aa6"/><stop offset=".59" stop-color="#671bb1"/><stop offset=".66" stop-color="#6516b5"/></linearGradient></defs><g><g transform="translate(-219 -2149)"><g><use fill="url(#vuthb)" xlink:href="#vutha"/></g><g><g><use fill="url(#vuthd)" xlink:href="#vuthc"/></g><g><g><use fill="#6516b5" xlink:href="#vuthe"/></g><g><use fill="#6516b5" xlink:href="#vuthf"/></g><g><use fill="#6516b5" xlink:href="#vuthg"/></g></g><g><use fill="url(#vuthi)" xlink:href="#vuthh"/></g></g><g><use fill="url(#vuthk)" xlink:href="#vuthj"/></g><g><use fill="url(#vuthm)" xlink:href="#vuthl"/></g><g><use fill="url(#vutho)" xlink:href="#vuthn"/></g><g><g><use fill="url(#vuthq)" xlink:href="#vuthp"/></g><g><use fill="url(#vuths)" xlink:href="#vuthr"/></g><g><use fill="url(#vuthu)" xlink:href="#vutht"/></g></g><g><use fill="url(#vuthw)" xlink:href="#vuthv"/></g><g><use fill="url(#vuthy)" xlink:href="#vuthx"/></g><g><use fill="url(#vuthA)" xlink:href="#vuthz"/></g><g><g><use fill="url(#vuthC)" xlink:href="#vuthB"/></g><g><use fill="#c8ff00" xlink:href="#vuthD"/></g><g><use fill="#c8ff00" xlink:href="#vuthE"/></g><g><use fill="url(#vuthG)" xlink:href="#vuthF"/></g><g><use fill="#c8ff00" xlink:href="#vuthH"/></g><g><use fill="#c8ff00" xlink:href="#vuthI"/></g><g><use fill="#c8ff00" xlink:href="#vuthJ"/></g></g><g><use fill="url(#vuthL)" xlink:href="#vuthK"/></g><g><use fill="url(#vuthN)" xlink:href="#vuthM"/></g><g><use fill="url(#vuthP)" xlink:href="#vuthO"/></g><g><use fill="#6516b5" xlink:href="#vuthQ"/></g><g><g><g><use fill="#c8ff00" xlink:href="#vuthR"/></g><g><use fill="#c8ff00" xlink:href="#vuthS"/></g><g><use fill="url(#vuthU)" xlink:href="#vuthT"/></g><g><use fill="#6516b5" xlink:href="#vuthV"/></g></g><g><use fill="#c8ff00" xlink:href="#vuthW"/></g></g><g><g><use fill="url(#vuthY)" xlink:href="#vuthX"/></g><g><use fill="url(#vuthaa)" xlink:href="#vuthZ"/></g><g><use fill="url(#vuthac)" xlink:href="#vuthab"/></g></g><g><use fill="#c8ff00" xlink:href="#vuthad"/></g></g></g></svg>