<svg xmlns="http://www.w3.org/2000/svg" xmlns:xlink="http://www.w3.org/1999/xlink" width="111" height="97.99" viewBox="0 0 111 97.99"><defs><path id="htxqa" d="M64.65 2689L61 2699h4.3c4.92 0 12.38-5.4 13.7-9.9z"/><path id="htxqb" d="M123.54 2701H99l1.8-4H125z"/><path id="htxqd" d="M85 2693.65l4.48-3.18c.43-.3.94-.47 1.47-.47h24.24c.57 0 .96.6.75 1.14l-1.08 2.86"/><path id="htxqe" d="M110.11 2722h10.33l7.56-12.72-.97-.57a5.26 5.26 0 0 0-6.84 1.38l-1.77 2.49c-1.74 2.17-3.7 2.62-6.97 2.62-2.02 0-1.34 6.8-1.34 6.8z"/><path id="htxqg" d="M125.76 2707.56l-8.6 13.72a1.1 1.1 0 0 0 .45 1.57c.57.3 1.3.12 1.63-.4l8.6-13.73a1.1 1.1 0 0 0-.44-1.57c-.57-.3-1.3-.13-1.64.4z"/><path id="htxqi" d="M115 2713.01l-66.48-.01c-2.49 0-4.52 1.8-4.52 4s2.04 4 4.52 4l61.55-.01z"/><path id="htxqk" d="M62.5 2689.9l-.4.36a3.4 3.4 0 0 0-.2 4.8l13.76 14.85a3.45 3.45 0 0 0 4.84.2l.4-.37a3.4 3.4 0 0 0 .2-4.8l-13.76-14.85a3.45 3.45 0 0 0-4.84-.2z"/><path id="htxqm" d="M97 2704H78.52a3.52 3.52 0 0 0-3.52 3.5c0 1.92 1.59 3.5 3.52 3.5h15.56z"/><path id="htxqo" d="M17 2690.5c0-20.71 17.01-37.5 38-37.5s38 16.79 38 37.5-17.01 37.5-38 37.5-38-16.79-38-37.5z"/><path id="htxqq" d="M77.52 2744.56l.44-.5a4.2 4.2 0 0 0-.41-5.94l-29.09-25.1a4.28 4.28 0 0 0-5.98.42l-.44.5a4.2 4.2 0 0 0 .41 5.94l29.09 25.1a4.28 4.28 0 0 0 5.98-.42z"/><path id="htxqs" d="M41.2 2737.36H26.16l-7.42 12.04.95.53a5.29 5.29 0 0 0 6.71-1.3l1.74-2.36c1.7-2.05 3.62-2.47 6.83-2.47 2 0 6.23-6.44 6.23-6.44z"/><path id="htxqu" d="M20.13 2750.44l7.57-12.8a1.1 1.1 0 0 0-.97-1.63c-.4 0-.77.2-.97.54l-7.6 12.77c-.32.52-.14 1.19.4 1.5l.05.02c.53.3 1.22.12 1.52-.4z"/><path id="htxqw" d="M77.92 2741.93c0-2.42-2-4.4-4.48-4.42l-35.42-.27-4.96 8.79 40.33.27a4.46 4.46 0 0 0 4.53-4.37z"/><path id="htxqy" d="M48.99 2721c-3.3.13-6.06-1.37-7.33-3.88a6.54 6.54 0 0 1-.28-5.08l6.1-17.68c.12-.38.21-.78.28-1.18.56-3.3 3.96-6.25 7.28-6.18l10.93.35c3.36.07 5 3.2 3.44 6.59l-9.2 19.09c-2.05 4.46-6.7 7.76-11.22 7.96z"/><path id="htxqA" d="M79.86 2681.42l1.9 3.92-2.97.36z"/><path id="htxqB" d="M69.37 2683.59a5.4 5.4 0 0 1 5.5-5.31 5.4 5.4 0 0 1 5.5 5.3 5.4 5.4 0 0 1-5.5 5.31 5.4 5.4 0 0 1-5.5-5.3z"/><path id="htxqD" d="M77.66 2682.78l-.06.01a.37.37 0 0 1-.44-.27l-.2-.88a.36.36 0 0 1 .28-.42l.06-.01c.2-.04.4.08.44.27l.2.88c.04.2-.08.38-.28.42z"/><path id="htxqE" d="M54.2 2674.06h9.02c6.16 0 12.67.4 15.75 5.55H52.03z"/><path id="htxqF" d="M72.35 2680.57l-2.36 5.51-2.86-5.75z"/><path id="htxqG" d="M79.62 2680.88H67.43l-.74-1.44h12.18z"/><path id="htxqH" d="M53.38 2683.27l.5-1.44c3.57 0 5.07-.68 7.49-1.33 2.03-.55 3.95-1.07 6.24-1.07v1.44c-2.08 0-3.83.47-5.84 1.02-2.4.65-4.6 1.38-8.39 1.38z"/><path id="htxqI" d="M53.12 2690.47l-.35-.4a3.18 3.18 0 0 0-4.62-.15l-14.12 13.8a3.51 3.51 0 0 0-.15 4.81l.35.4a3.18 3.18 0 0 0 4.62.15l14.12-13.8a3.51 3.51 0 0 0 .15-4.81z"/><path id="htxqK" d="M117.3 2702H55l4.55-9H121z"/><path id="htxqM" d="M98.07 2711H94l3.93-10H102z"/><path id="htxqN" d="M62.72 2710H59l7.28-17H70z"/><path id="htxqP" d="M97.41 2704H94v1.91h3.41c.4 0 .76-.22.92-.57.3-.63-.19-1.34-.92-1.34zm4.59 2.41l-2.03 4.59h-3.09c-.5 0-.83-.49-.62-.92l1.66-3.47c.11-.24.37-.4.65-.38l3.43.18z"/><path id="htxqR" d="M55.86 2709l2.35-5.24.12-.26.67-1.5H37.5a3.51 3.51 0 0 0-3.5 3.5c0 1.92 1.58 3.5 3.5 3.5h18.36z"/><path id="htxqT" d="M57.66 2703.15h2.43l.64-1.15h1.36l-.44.99h3.44c.66 0 1.1.7.83 1.33l-1.36 3.13a.9.9 0 0 1-.83.55H55l2.33-4.92z"/><path id="htxqV" d="M65 2704h3.28c1.02 0 2-.42 2.8-1.2L74 2700"/><path id="htxqW" d="M68 2696.9l.5-.9h48.25l1.25 1s-49.9-.16-50-.1z"/><path id="htxqY" d="M68 2697.9l.5-.9h48.25l1.25 1s-49.9-.16-50-.1z"/><path id="htxqaa" d="M58 2685l-5.4 12h-5.38a8.14 8.14 0 0 1-7.29-11.89z"/><path id="htxqab" d="M49 2703h1.9l4.1-10h-1.9z"/><linearGradient id="htxqc" x1="85.45" x2="142.82" y1="2696.8" y2="2701.55" gradientUnits="userSpaceOnUse"><stop offset="0" stop-color="#c8ff00"/><stop offset=".1" stop-color="#afc52c"/><stop offset=".21" stop-color="#999055"/><stop offset=".31" stop-color="#866377"/><stop offset=".41" stop-color="#774193"/><stop offset=".51" stop-color="#6c2aa6"/><stop offset=".59" stop-color="#671bb1"/><stop offset=".66" stop-color="#6516b5"/></linearGradient><linearGradient id="htxqf" x1="119.31" x2="117.59" y1="2712.16" y2="2720.23" gradientUnits="userSpaceOnUse"><stop offset="0" stop-color="#c8ff00"/><stop offset=".1" stop-color="#afc52c"/><stop offset=".21" stop-color="#999055"/><stop offset=".31" stop-color="#866377"/><stop offset=".41" stop-color="#774193"/><stop offset=".51" stop-color="#6c2aa6"/><stop offset=".59" stop-color="#671bb1"/><stop offset="1" stop-color="#6516b5"/></linearGradient><linearGradient id="htxqh" x1="127.22" x2="117.96" y1="2707.4" y2="2722.31" gradientUnits="userSpaceOnUse"><stop offset="0" stop-color="#c8ff00"/><stop offset=".1" stop-color="#afc52c"/><stop offset=".21" stop-color="#999055"/><stop offset=".31" stop-color="#866377"/><stop offset=".41" stop-color="#774193"/><stop offset=".51" stop-color="#6c2aa6"/><stop offset=".59" stop-color="#671bb1"/><stop offset=".66" stop-color="#6516b5"/></linearGradient><linearGradient id="htxqj" x1="79.5" x2="79.5" y1="2713.13" y2="2721" gradientUnits="userSpaceOnUse"><stop offset="0" stop-color="#c8ff00"/><stop offset=".1" stop-color="#afc52c"/><stop offset=".21" stop-color="#999055"/><stop offset=".31" stop-color="#866377"/><stop offset=".41" stop-color="#774193"/><stop offset=".51" stop-color="#6c2aa6"/><stop offset=".59" stop-color="#671bb1"/><stop offset="1" stop-color="#6516b5"/></linearGradient><linearGradient id="htxql" x1="74.25" x2="68.03" y1="2695.78" y2="2705.51" gradientUnits="userSpaceOnUse"><stop offset="0" stop-color="#c8ff00"/><stop offset=".1" stop-color="#afc52c"/><stop offset=".21" stop-color="#999055"/><stop offset=".31" stop-color="#866377"/><stop offset=".41" stop-color="#774193"/><stop offset=".51" stop-color="#6c2aa6"/><stop offset=".59" stop-color="#671bb1"/><stop offset=".66" stop-color="#6516b5"/></linearGradient><linearGradient id="htxqn" x1="86" x2="82.89" y1="2712.59" y2="2701.41" gradientUnits="userSpaceOnUse"><stop offset="0" stop-color="#c8ff00"/><stop offset=".1" stop-color="#afc52c"/><stop offset=".21" stop-color="#999055"/><stop offset=".31" stop-color="#866377"/><stop offset=".41" stop-color="#774193"/><stop offset=".51" stop-color="#6c2aa6"/><stop offset=".59" stop-color="#671bb1"/><stop offset="1" stop-color="#6516b5"/></linearGradient><radialGradient id="htxqp" cx="55" cy="2690.5" r="34.46" gradientUnits="userSpaceOnUse"><stop offset="0" stop-color="#c8ff00"/><stop offset="1" stop-color="#c8ff00" stop-opacity="0"/></radialGradient><linearGradient id="htxqr" x1="56.96" x2="62.98" y1="2732.48" y2="2725.63" gradientUnits="userSpaceOnUse"><stop offset="0" stop-color="#c8ff00"/><stop offset=".1" stop-color="#afc52c"/><stop offset=".21" stop-color="#999055"/><stop offset=".31" stop-color="#866377"/><stop offset=".41" stop-color="#774193"/><stop offset=".51" stop-color="#6c2aa6"/><stop offset=".59" stop-color="#671bb1"/><stop offset=".66" stop-color="#6516b5"/></linearGradient><linearGradient id="htxqt" x1="34.46" x2="26.66" y1="2734.23" y2="2750.3" gradientUnits="userSpaceOnUse"><stop offset="0" stop-color="#c8ff00"/><stop offset=".1" stop-color="#afc52c"/><stop offset=".21" stop-color="#999055"/><stop offset=".31" stop-color="#866377"/><stop offset=".41" stop-color="#774193"/><stop offset=".51" stop-color="#6c2aa6"/><stop offset=".59" stop-color="#671bb1"/><stop offset=".66" stop-color="#6516b5"/></linearGradient><linearGradient id="htxqv" x1="27.11" x2="18.79" y1="2736.43" y2="2750.62" gradientUnits="userSpaceOnUse"><stop offset="0" stop-color="#c8ff00"/><stop offset=".1" stop-color="#afc52c"/><stop offset=".21" stop-color="#999055"/><stop offset=".31" stop-color="#866377"/><stop offset=".41" stop-color="#774193"/><stop offset=".51" stop-color="#6c2aa6"/><stop offset=".59" stop-color="#671bb1"/><stop offset=".66" stop-color="#6516b5"/></linearGradient><linearGradient id="htxqx" x1="54.08" x2="55.4" y1="2736.99" y2="2743.5" gradientUnits="userSpaceOnUse"><stop offset="0" stop-color="#c8ff00"/><stop offset=".1" stop-color="#afc52c"/><stop offset=".21" stop-color="#999055"/><stop offset=".31" stop-color="#866377"/><stop offset=".41" stop-color="#774193"/><stop offset=".51" stop-color="#6c2aa6"/><stop offset=".59" stop-color="#671bb1"/><stop offset=".66" stop-color="#6516b5"/></linearGradient><linearGradient id="htxqz" x1="55.61" x2="55.34" y1="2689.18" y2="2712.24" gradientUnits="userSpaceOnUse"><stop offset="0" stop-color="#c8ff00"/><stop offset=".04" stop-color="#c1ee0c"/><stop offset=".2" stop-color="#a0a248"/><stop offset=".35" stop-color="#876677"/><stop offset=".47" stop-color="#753b99"/><stop offset=".57" stop-color="#6920ad"/><stop offset=".63" stop-color="#6516b5"/></linearGradient><linearGradient id="htxqC" x1="80.12" x2="72.01" y1="2682.6" y2="2684.86" gradientUnits="userSpaceOnUse"><stop offset="0" stop-color="#c8ff00"/><stop offset="1" stop-color="#6516b5"/></linearGradient><linearGradient id="htxqJ" x1="41.57" x2="46.23" y1="2694.55" y2="2706.5" gradientUnits="userSpaceOnUse"><stop offset="0" stop-color="#c8ff00"/><stop offset=".1" stop-color="#afc52c"/><stop offset=".21" stop-color="#999055"/><stop offset=".31" stop-color="#866377"/><stop offset=".41" stop-color="#774193"/><stop offset=".51" stop-color="#6c2aa6"/><stop offset=".59" stop-color="#671bb1"/><stop offset=".66" stop-color="#6516b5"/></linearGradient><linearGradient id="htxqL" x1="81.95" x2="143.21" y1="2698.76" y2="2709.73" gradientUnits="userSpaceOnUse"><stop offset="0" stop-color="#c8ff00"/><stop offset=".1" stop-color="#afc52c"/><stop offset=".21" stop-color="#999055"/><stop offset=".31" stop-color="#866377"/><stop offset=".41" stop-color="#774193"/><stop offset=".51" stop-color="#6c2aa6"/><stop offset=".59" stop-color="#671bb1"/><stop offset="1" stop-color="#6516b5"/></linearGradient><linearGradient id="htxqO" x1="84.89" x2="133.51" y1="2703.07" y2="2706.83" gradientUnits="userSpaceOnUse"><stop offset="0" stop-color="#c8ff00"/><stop offset=".1" stop-color="#afc52c"/><stop offset=".21" stop-color="#999055"/><stop offset=".31" stop-color="#866377"/><stop offset=".41" stop-color="#774193"/><stop offset=".51" stop-color="#6c2aa6"/><stop offset=".59" stop-color="#671bb1"/><stop offset=".66" stop-color="#6516b5"/></linearGradient><linearGradient id="htxqQ" x1="100.33" x2="92.86" y1="2707.5" y2="2707.5" gradientUnits="userSpaceOnUse"><stop offset="0" stop-color="#c8ff00"/><stop offset=".1" stop-color="#afc52c"/><stop offset=".21" stop-color="#999055"/><stop offset=".31" stop-color="#866377"/><stop offset=".41" stop-color="#774193"/><stop offset=".51" stop-color="#6c2aa6"/><stop offset=".59" stop-color="#671bb1"/><stop offset=".66" stop-color="#6516b5"/></linearGradient><linearGradient id="htxqS" x1="47.02" x2="46.33" y1="2709.59" y2="2701.93" gradientUnits="userSpaceOnUse"><stop offset="0" stop-color="#c8ff00"/><stop offset=".1" stop-color="#afc52c"/><stop offset=".21" stop-color="#999055"/><stop offset=".31" stop-color="#866377"/><stop offset=".41" stop-color="#774193"/><stop offset=".51" stop-color="#6c2aa6"/><stop offset=".59" stop-color="#671bb1"/><stop offset=".66" stop-color="#6516b5"/></linearGradient><linearGradient id="htxqU" x1="60.69" x2="60.21" y1="2708.14" y2="2702.58" gradientUnits="userSpaceOnUse"><stop offset="0" stop-color="#c8ff00"/><stop offset=".1" stop-color="#afc52c"/><stop offset=".21" stop-color="#999055"/><stop offset=".31" stop-color="#866377"/><stop offset=".41" stop-color="#774193"/><stop offset=".51" stop-color="#6c2aa6"/><stop offset=".59" stop-color="#671bb1"/><stop offset=".66" stop-color="#6516b5"/></linearGradient><linearGradient id="htxqX" x1="68.75" x2="126.46" y1="2696.8" y2="2696.1" gradientUnits="userSpaceOnUse"><stop offset="0" stop-color="#c8ff00"/><stop offset=".1" stop-color="#afc52c"/><stop offset=".21" stop-color="#999055"/><stop offset=".31" stop-color="#866377"/><stop offset=".41" stop-color="#774193"/><stop offset=".51" stop-color="#6c2aa6"/><stop offset=".59" stop-color="#671bb1"/><stop offset=".66" stop-color="#6516b5"/></linearGradient><linearGradient id="htxqZ" x1="68.75" x2="126.46" y1="2697.8" y2="2697.1" gradientUnits="userSpaceOnUse"><stop offset="0" stop-color="#c8ff00"/><stop offset=".1" stop-color="#afc52c"/><stop offset=".21" stop-color="#999055"/><stop offset=".31" stop-color="#866377"/><stop offset=".41" stop-color="#774193"/><stop offset=".51" stop-color="#6c2aa6"/><stop offset=".59" stop-color="#671bb1"/><stop offset=".66" stop-color="#6516b5"/></linearGradient></defs><g><g transform="translate(-17 -2653)"><g><use fill="#c8ff00" xlink:href="#htxqa"/></g><g><use fill="url(#htxqc)" xlink:href="#htxqb"/></g><g><use fill="#fff" fill-opacity="0" stroke="#c8ff00" stroke-miterlimit="50" stroke-width="5" xlink:href="#htxqd"/></g><g><use fill="url(#htxqf)" xlink:href="#htxqe"/></g><g><use fill="url(#htxqh)" xlink:href="#htxqg"/></g><g><use fill="url(#htxqj)" xlink:href="#htxqi"/></g><g><use fill="url(#htxql)" xlink:href="#htxqk"/></g><g><use fill="url(#htxqn)" xlink:href="#htxqm"/></g><g><use fill="url(#htxqp)" xlink:href="#htxqo"/></g><g><use fill="url(#htxqr)" xlink:href="#htxqq"/></g><g><g><use fill="url(#htxqt)" xlink:href="#htxqs"/></g><g><use fill="url(#htxqv)" xlink:href="#htxqu"/></g><g><use fill="url(#htxqx)" xlink:href="#htxqw"/></g></g><g><use fill="url(#htxqz)" xlink:href="#htxqy"/></g><g><g><use fill="#c8ff00" xlink:href="#htxqA"/></g><g><use fill="url(#htxqC)" xlink:href="#htxqB"/></g><g><use fill="#6516b5" xlink:href="#htxqD"/></g><g><use fill="#c8ff00" xlink:href="#htxqE"/></g><g><use fill="#c8ff00" xlink:href="#htxqF"/></g><g><use fill="#6516b5" xlink:href="#htxqG"/></g><g><use fill="#6516b5" xlink:href="#htxqH"/></g></g><g><use fill="url(#htxqJ)" xlink:href="#htxqI"/></g><g><use fill="url(#htxqL)" xlink:href="#htxqK"/></g><g><use fill="#c8ff00" xlink:href="#htxqM"/></g><g><use fill="url(#htxqO)" xlink:href="#htxqN"/></g><g><use fill="url(#htxqQ)" xlink:href="#htxqP"/></g><g><use fill="url(#htxqS)" xlink:href="#htxqR"/></g><g><use fill="url(#htxqU)" xlink:href="#htxqT"/></g><g><use fill="#fff" fill-opacity="0" stroke="#c8ff00" stroke-miterlimit="50" stroke-width="5" xlink:href="#htxqV"/></g><g><use fill="url(#htxqX)" xlink:href="#htxqW"/></g><g><use fill="url(#htxqZ)" xlink:href="#htxqY"/></g><g><use fill="#c8ff00" xlink:href="#htxqaa"/></g><g><use fill="#c8ff00" xlink:href="#htxqab"/></g></g></g></svg>