<svg xmlns="http://www.w3.org/2000/svg" xmlns:xlink="http://www.w3.org/1999/xlink" width="43.92" height="43.92" viewBox="0 0 43.92 43.92"><defs><path id="yyoba" d="M573.65 1779.53l8.67 13.47-14.07 20.92-7.25-29.45z"/><path id="yyobc" d="M572.86 1779.84l1.33-9.84 18.94 21.1-5.5 5.42 4.26 17.4h-23.64z"/><path id="yyobe" d="M583.13 1799.54h21.8l-7.29-29.54H574.2z"/><path id="yyobg" d="M569.28 1805.64v-27.37h27.37v27.37z"/><path id="yyobh" d="M576.87 1787.33c.61 0 1.08-.14 1.41-.44.33-.29.5-.68.5-1.16v-.04c0-.54-.18-.94-.52-1.21a2.3 2.3 0 0 0-1.45-.41h-2.48v3.26h2.54zm-5.03-5.51h5.19c1.44 0 2.54.39 3.3 1.15.65.65.98 1.51.98 2.6v.03c0 .91-.23 1.66-.67 2.24a3.9 3.9 0 0 1-1.76 1.27l2.77 4.06h-2.92l-2.35-3.49h-2.06l.02 3.49h-2.5z"/><path id="yyobi" d="M571.8 1802.21v-1.71h10.26v1.71z"/><path id="yyobj" d="M588.4 1784.58H586v-2.16h2.4V1780h2.2v2.42h2.4v2.16h-2.4v2.42h-2.2z"/><path id="yyobk" d="M584.4 1791.58H582v-2.16h2.4V1787h2.2v2.42h2.4v2.16h-2.4v2.42h-2.2z"/><linearGradient id="yyobb" x1="566.06" x2="579.36" y1="1780.13" y2="1813.77" gradientUnits="userSpaceOnUse"><stop offset=".22" stop-color="#c30a55"/><stop offset=".68" stop-color="#e343e6"/><stop offset=".92" stop-color="#f59252"/></linearGradient><linearGradient id="yyobd" x1="593.8" x2="561.28" y1="1815.99" y2="1781.39" gradientUnits="userSpaceOnUse"><stop offset=".11" stop-color="#ffbd00"/><stop offset=".59" stop-color="#e343e6"/><stop offset=".82" stop-color="#ec831b"/><stop offset=".94" stop-color="#ffbd00"/></linearGradient><linearGradient id="yyobf" x1="577" x2="604.9" y1="1768.79" y2="1802.11" gradientUnits="userSpaceOnUse"><stop offset=".13" stop-color="#ffbd00"/><stop offset=".64" stop-color="#e343e6"/><stop offset=".91" stop-color="#c30a55"/></linearGradient></defs><g><g transform="translate(-561 -1770)"><g><g><g><use fill="url(#yyobb)" xlink:href="#yyoba"/></g><g><use fill="url(#yyobd)" xlink:href="#yyobc"/></g></g><g><use fill="url(#yyobf)" xlink:href="#yyobe"/></g></g><g><g><g><use xlink:href="#yyobg"/></g><g><use fill="#fff" xlink:href="#yyobh"/></g><g><use fill="#fff" xlink:href="#yyobi"/></g></g><g><use fill="#fff" xlink:href="#yyobj"/></g><g><use fill="#fff" xlink:href="#yyobk"/></g></g></g></g></svg>