<svg xmlns="http://www.w3.org/2000/svg" xmlns:xlink="http://www.w3.org/1999/xlink" width="43.92" height="44.45" viewBox="0 0 43.92 44.45"><defs><path id="t3oia" d="M56.98 3844.7l-31.94 1.87-.21-12.35 28.8-4.62z"/><path id="t3oic" d="M31.76 3856.91l10.26-13.22-11.15-7.71a7.2 7.2 0 0 0-7.9-1.25 6.33 6.33 0 0 0-3.32 3.37 7.25 7.25 0 0 0 1.5 8.19z"/><path id="t3oie" d="M31.76 3856.91l15.82 15.8 9.81-18.58-15.37-10.41z"/><path id="t3oig" d="M52.8 3852.71l-26.32-1.28a5.51 5.51 0 0 0-3.3.38 4.59 4.59 0 0 0-2.43 2.47 5.25 5.25 0 0 0 2.81 7.11l23.58 11.29c.3.17 1.85.66 1.85.66 1.27.38 2.64.59 3.91.59 1.58 0 3.3-.42 5.11-1.36 1.62-.83 2.65-2.18 3.54-3.78a10.32 10.32 0 0 0 1.37-5.45 10.95 10.95 0 0 0-10.12-10.63z"/><path id="t3oii" d="M51.7 3830.18c-.44.21-.9.45-1.27.73l-14.55 11.07 7.2 10.66 15.83-8.92a6.13 6.13 0 0 0 2.71-2.75c3.5-6.86-3.06-13.74-9.92-10.79z"/><path id="t3oik" d="M28.08 3861.12l15-8.47-7.2-10.66-13.8 10.49z"/><path id="t3oil" d="M31.8 3865.28v-13.6l-5.26-.25h-.03a5.65 5.65 0 0 0-3.33.38 4.8 4.8 0 0 0-2.47 2.47 5.25 5.25 0 0 0 2.81 7.11h.07z"/><path id="t3oin" d="M27.41 3865.42v-27.43h27.11v27.43z"/><path id="t3oio" d="M30 3848.15v-6.59h2.5v6.52c0 1.88.93 2.85 2.46 2.85 1.53 0 2.46-.94 2.46-2.77v-6.6h2.5v6.5c0 3.5-1.93 5.2-4.98 5.2-3.07 0-4.94-1.73-4.94-5.11z"/><path id="t3oip" d="M45.72 3847.38c1.25 0 1.99-.76 1.99-1.75v-.04c0-1.14-.78-1.75-2.04-1.75h-1.93v3.53h1.98zm-4.49-5.82h4.65c2.72 0 4.37 1.63 4.37 3.98v.04c0 2.66-2.06 4.05-4.61 4.05h-1.9v3.46h-2.51z"/><path id="t3oiq" d="M29.95 3861.98v-1.71h10.18v1.71z"/><linearGradient id="t3oib" x1="59.73" x2="29.99" y1="3836.48" y2="3840.99" gradientUnits="userSpaceOnUse"><stop offset="0" stop-color="#ff8200"/><stop offset=".97" stop-color="#905cfb"/></linearGradient><linearGradient id="t3oid" x1="28.83" x2="31.61" y1="3851.57" y2="3835.91" gradientUnits="userSpaceOnUse"><stop offset="0" stop-color="#0bb0f2"/><stop offset=".97" stop-color="#905cfb"/></linearGradient><linearGradient id="t3oif" x1="55.6" x2="35.93" y1="3863.55" y2="3853.83" gradientUnits="userSpaceOnUse"><stop offset="0" stop-color="#0bb0f2"/><stop offset=".97" stop-color="#905cfb"/></linearGradient><linearGradient id="t3oih" x1="57.07" x2="23.62" y1="3865.07" y2="3852.9" gradientUnits="userSpaceOnUse"><stop offset="0" stop-color="#0bb0f2"/><stop offset=".97" stop-color="#905cfb"/></linearGradient><linearGradient id="t3oij" x1="59.28" x2="30.63" y1="3833.25" y2="3856.62" gradientUnits="userSpaceOnUse"><stop offset="0" stop-color="#ff8200"/><stop offset=".97" stop-color="#905cfb"/></linearGradient><linearGradient id="t3oim" x1="38.1" x2="20.42" y1="3860.75" y2="3854.39" gradientUnits="userSpaceOnUse"><stop offset="0" stop-color="#0bb0f2"/><stop offset=".97" stop-color="#905cfb"/></linearGradient></defs><g><g transform="translate(-19 -3829.48)"><g><g><use fill="url(#t3oib)" xlink:href="#t3oia"/></g><g><use fill="url(#t3oid)" xlink:href="#t3oic"/></g><g><use fill="url(#t3oif)" xlink:href="#t3oie"/></g><g><use fill="url(#t3oih)" xlink:href="#t3oig"/></g><g><use fill="url(#t3oij)" xlink:href="#t3oii"/></g><g><use fill="#905cfb" xlink:href="#t3oik"/></g><g><use fill="url(#t3oim)" xlink:href="#t3oil"/></g></g><g><g><use xlink:href="#t3oin"/></g><g><g><use fill="#fff" xlink:href="#t3oio"/></g><g><use fill="#fff" xlink:href="#t3oip"/></g></g><g><use fill="#fff" xlink:href="#t3oiq"/></g></g></g></g></svg>