<svg xmlns="http://www.w3.org/2000/svg" xmlns:xlink="http://www.w3.org/1999/xlink" width="43.46" height="44.44" viewBox="0 0 43.46 44.44"><defs><path id="p4s9a" d="M59.03 3616.66c-.14-.1-8.15-8-8.15-8s6.1-6.63 7.7-8.26a8.22 8.22 0 0 0-1.63-12.77 7.83 7.83 0 0 0-9.88 1.52c-.24.25-8.65 8.13-15.99 14.97l13.75 8.89-14.45 16.56c-.85.63-1.73 1-2.65 1.22.17 0 .34 0 .51-.04 2.85-.45 27.25-4.65 28.4-4.86a5.28 5.28 0 0 0 2.38-9.23z"/><path id="p4s9c" d="M45.95 3605.85a6.33 6.33 0 0 0-2.34-4.1c-1.32-1.07-11.33-11.73-12.49-12.92a7.8 7.8 0 0 0-6.79-2.25 8.15 8.15 0 0 0-6.68 9.27 8.15 8.15 0 0 0 3.15 5.31c1.63 1.25 14.3 10.14 15.07 10.77a6.16 6.16 0 0 0 4.78 1.29 6.44 6.44 0 0 0 5.3-7.37z"/><path id="p4s9e" d="M31.77 3629.53c.03 0 14.46-16.56 14.46-16.56l-14.56-9.41c-5.16 4.83-9.92 9.24-11.03 10.28a9.88 9.88 0 0 0 1.6 15.73c1.9 1.08 6.1 2.43 9.53-.04z"/><path id="p4s9g" d="M25.79 3622.45v-27.43h26.82v27.43z"/><path id="p4s9h" d="M28.3 3618.98v-1.71h10.06v1.71z"/><path id="p4s9i" d="M32.27 3605.47L28 3598.6h2.85l2.66 4.56 2.7-4.56h2.77l-4.27 6.83v4.53h-2.44z"/><path id="p4s9j" d="M43.28 3600.9H39.9v-2.31h9.2v2.3h-3.38v9.06h-2.44z"/><linearGradient id="p4s9b" x1="21.87" x2="57.27" y1="3621.24" y2="3604.74" gradientUnits="userSpaceOnUse"><stop offset="0" stop-color="#905cfb"/><stop offset=".16" stop-color="#6677f8"/><stop offset=".38" stop-color="#3496f5"/><stop offset=".54" stop-color="#17a9f3"/><stop offset=".63" stop-color="#0bb0f2"/></linearGradient><linearGradient id="p4s9d" x1="36.29" x2="18.14" y1="3604.34" y2="3587.95" gradientUnits="userSpaceOnUse"><stop offset="0" stop-color="#905cfb"/><stop offset=".07" stop-color="#a553e6"/><stop offset=".25" stop-color="#d641b5"/><stop offset=".39" stop-color="#f33497"/><stop offset=".47" stop-color="#ff308c"/></linearGradient><linearGradient id="p4s9f" x1="20.57" x2="63.42" y1="3623.74" y2="3596.12" gradientUnits="userSpaceOnUse"><stop offset="0" stop-color="#905cfb"/><stop offset=".16" stop-color="#6677f8"/><stop offset=".38" stop-color="#3496f5"/><stop offset=".54" stop-color="#17a9f3"/><stop offset=".63" stop-color="#0bb0f2"/></linearGradient></defs><g><g transform="translate(-17.47 -3586.48)"><g><g><g><use fill="url(#p4s9b)" xlink:href="#p4s9a"/></g><g><use fill="url(#p4s9d)" xlink:href="#p4s9c"/></g></g><g><use fill="url(#p4s9f)" xlink:href="#p4s9e"/></g></g><g><g><use xlink:href="#p4s9g"/></g><g><use fill="#fff" xlink:href="#p4s9h"/></g><g><use fill="#fff" xlink:href="#p4s9i"/></g><g><use fill="#fff" xlink:href="#p4s9j"/></g></g></g></g></svg>