<svg xmlns="http://www.w3.org/2000/svg" xmlns:xlink="http://www.w3.org/1999/xlink" width="44.92" height="44.92" viewBox="0 0 44.92 44.92"><defs><path id="hfm5a" d="M247.28 1789.2l-3 1.23 2.67-19.43 10.38 5.66z"/><path id="hfm5c" d="M245.63 1797.96l1.5-26.96-12.98 8.17-4.15 24.86z"/><path id="hfm5e" d="M274.03 1784.46l-5.78-11.74-10.91 3.95-8.04 8.88-19.3 18.48 14.57 10.6 18.3-16.5z"/><path id="hfm5g" d="M248.88 1790.18l-2.52 15.38 10.26 7.94 11.23 2.42 7.08-16.03z"/><path id="hfm5i" d="M238.28 1806.65v-27.37h27.37v27.37z"/><path id="hfm5j" d="M240.85 1803.23v-1.71h10.26v1.71z"/><path id="hfm5k" d="M240.66 1788.58v-.03a5.77 5.77 0 0 1 5.92-5.87c2.14 0 3.42.71 4.47 1.75l-1.58 1.83a4.17 4.17 0 0 0-2.9-1.28c-1.92 0-3.3 1.6-3.3 3.54v.03c0 1.95 1.35 3.57 3.3 3.57 1.3 0 2.08-.52 2.98-1.33l1.59 1.6a5.8 5.8 0 0 1-4.66 2.03 5.74 5.74 0 0 1-5.82-5.84"/><path id="hfm5l" d="M252.85 1782.86h2.5v9.23h4.96v2.1h-7.46z"/><linearGradient id="hfm5b" x1="244.28" x2="259.3" y1="1780.71" y2="1780.71" gradientUnits="userSpaceOnUse"><stop offset="0" stop-color="#ed348c"/><stop offset=".16" stop-color="#e9388c"/><stop offset=".3" stop-color="#de418c"/><stop offset=".43" stop-color="#cc508c"/><stop offset=".57" stop-color="#b2658d"/><stop offset=".7" stop-color="#90808d"/><stop offset=".83" stop-color="#67a18e"/><stop offset=".95" stop-color="#36c78f"/><stop offset="1" stop-color="#21d88f"/></linearGradient><linearGradient id="hfm5d" x1="241.42" x2="234.81" y1="1776.77" y2="1821.1" gradientUnits="userSpaceOnUse"><stop offset=".09" stop-color="#21d88f"/><stop offset=".9" stop-color="#019de0"/></linearGradient><linearGradient id="hfm5f" x1="270.97" x2="225.77" y1="1775.17" y2="1822.89" gradientUnits="userSpaceOnUse"><stop offset=".09" stop-color="#21d88f"/><stop offset=".9" stop-color="#019de0"/></linearGradient><linearGradient id="hfm5h" x1="255.74" x2="272.92" y1="1802.68" y2="1805.12" gradientUnits="userSpaceOnUse"><stop offset=".09" stop-color="#21d88f"/><stop offset=".9" stop-color="#019de0"/></linearGradient></defs><g><g transform="translate(-230 -1771)"><g><g><use fill="url(#hfm5b)" xlink:href="#hfm5a"/></g><g><use fill="url(#hfm5d)" xlink:href="#hfm5c"/></g><g><use fill="url(#hfm5f)" xlink:href="#hfm5e"/></g><g><use fill="url(#hfm5h)" xlink:href="#hfm5g"/></g></g><g><g><use xlink:href="#hfm5i"/></g><g><use fill="#fff" xlink:href="#hfm5j"/></g><g><use fill="#fff" xlink:href="#hfm5k"/></g><g><use fill="#fff" xlink:href="#hfm5l"/></g></g></g></g></svg>