<svg xmlns="http://www.w3.org/2000/svg" xmlns:xlink="http://www.w3.org/1999/xlink" width="116.98" height="17.16" viewBox="0 0 116.98 17.16"><defs><path id="db0aa" d="M136.89 4917.97h-9.81v3c2.22 0 4.44-.01 6.64.01a6.05 6.05 0 0 1-3.89 3.9 6 6 0 0 1-6.38-1.82 5.35 5.35 0 0 1-.28-6.62 5.94 5.94 0 0 1 5.53-2.4c1.48.13 2.78.95 3.8 1.94 1.24.02 2.47.02 3.71 0a9.42 9.42 0 0 0-7.37-4.98h-1.65a9.15 9.15 0 0 0-7.12 4.53 8.29 8.29 0 0 0 .99 9.52 9.44 9.44 0 0 0 5.86 3.1h1.93c4.2-.36 7.74-3.76 8.13-7.77v-1.55c0-.2-.07-.64-.09-.86z"/><path id="db0ab" d="M72.77 4920.5a5.68 5.68 0 0 1-3.93 4.37c-1.98.67-4.3.16-5.8-1.24a5.36 5.36 0 0 1-1.83-4.66 5.78 5.78 0 0 1 4.36-4.8 6.08 6.08 0 0 1 5.68 1.57 5.42 5.42 0 0 1 1.52 4.76zm-4.97-9.5H66.1a9.52 9.52 0 0 0-5.93 2.98 8.28 8.28 0 0 0-1.79 8.08 9.03 9.03 0 0 0 7.72 6.08h1.92a9.5 9.5 0 0 0 5.75-2.92 8.28 8.28 0 0 0 1.16-9.7 9.19 9.19 0 0 0-7.14-4.52z"/><path id="db0ac" d="M33.58 4925.3c-3.08.04-6.15.03-9.22 0-.94.1-1.65-.73-1.57-1.58.03-2.57-.11-5.15.08-7.7.59-1.35 2.45-.83 3.65-.94 1.46-.15 2.8.48 3.89 1.35.1-.53.19-1.07.3-1.6.61.6 1.1 1.35 1.8 1.87.53.45 1.22-.6 1.6-.02.79 1.54.76 3.32 1 4.99l-1.46-.67c-.79-2.62-4.1-4.61-6.84-3.48-2.4 1.05-2.15 4.73.12 5.8 2.52 1.26 5.5.91 8.2.53-.13.76-.63 1.56-1.55 1.45zm-.65-12.51c.3.88.82 1.85.5 2.78-.44.5-1.4.3-1.42-.4.05-.86.19-1.8.92-2.38zm-8.1-1.79c-2.41.31-4.58 2.1-4.83 4.5v12.66h13.53c2.4-.35 4.47-2.36 4.47-4.73.04-4.14.03-8.28 0-12.42H24.84z"/><path id="db0ad" d="M47.89 4918.48c-1.84-2.45-3.6-4.97-5.38-7.45H40v16.58l3.12-.01c.01-3.46-.04-6.91.02-10.37 1.32 1.75 2.56 3.55 3.82 5.34h1.77c1.3-1.77 2.52-3.6 3.85-5.36.04 3.46.03 6.92 0 10.38 1.04.03 2.07.05 3.11.04V4911c-.84.01-1.67.02-2.51.06-1.72 2.49-3.53 4.94-5.3 7.42z"/><path id="db0ae" d="M76 4913.75c2.15 0 4.3.01 6.45-.01.05 2.23.02 4.47.02 6.7 0 1.17-.25 2.47-1.28 3.22-1.47 1.05-3.43 1.04-5.18 1.09l-.01 2.81c2.8-.02 6.06-.19 8.06-2.33 1.17-1.31 1.5-3.1 1.52-4.79V4911H76v2.75z"/><path id="db0af" d="M114.05 4921.4c-2.58-3.41-5.08-6.9-7.6-10.36-.83-.01-1.63-.03-2.45-.03v16.58c1.04.01 2.07.01 3.1-.01.02-3.44-.02-6.89.03-10.34a811.6 811.6 0 0 1 7.53 10.32l2.48.04V4911l-3.1.03c.03 3.47.05 6.92 0 10.38z"/><path id="db0ag" d="M92.17 4920.81c.65-1.66 1.33-3.31 1.98-4.98.74 1.64 1.36 3.32 2.05 4.98h-4.03zm.75-9.58c-2.36 5.45-4.6 10.96-6.92 16.44 1.1 0 2.2.05 3.3-.04.72-1.25 1.12-2.67 1.71-3.99l6.37.01c.5 1.33 1.06 2.65 1.56 3.98 1.13.05 2.25.06 3.37.02-2.31-5.53-4.64-11.05-6.94-16.6-.8.05-1.81-.24-2.45.18z"/></defs><g><g transform="translate(-20 -4911)"><g><g><use fill="#afb1b3" xlink:href="#db0aa"/></g><g><use fill="#afb1b3" xlink:href="#db0ab"/></g><g><use fill="#afb1b3" xlink:href="#db0ac"/></g><g><use fill="#afb1b3" xlink:href="#db0ad"/></g><g><use fill="#afb1b3" xlink:href="#db0ae"/></g><g><use fill="#afb1b3" xlink:href="#db0af"/></g><g><use fill="#afb1b3" xlink:href="#db0ag"/></g></g></g></g></svg>