<svg xmlns="http://www.w3.org/2000/svg" xmlns:xlink="http://www.w3.org/1999/xlink" width="399.66" height="259.03" viewBox="0 0 399.66 259.03"><defs><path id="213ga" d="M42 3124v-256h331v256z"/><path id="213gc" d="M234.73 2955.74l3.8 5.18-4.02 1.37z"/><path id="213gd" d="M219.87 2958.7c0-4.37 3.5-7.91 7.82-7.91a7.87 7.87 0 0 1 7.81 7.92c0 4.37-3.5 7.91-7.82 7.91a7.87 7.87 0 0 1-7.81-7.92z"/><path id="213gf" d="M232.01 2958.38a.57.57 0 0 1-.74-.3l-.5-1.14c-.13-.29 0-.62.29-.75.28-.13.62 0 .74.29l.5 1.14c.13.3 0 .63-.29.76z"/><path id="213gg" d="M220.87 2948.84c-3.78.69-5.02 2.77-8.86 2.85-3.84.07-3.87-1.51-7.7-1.44-3.85.07-3.82 1.65-7.66 1.72-3.37.06-6.76-2.16-9.33-1.72v15.37c2.99 1.1 6 1.22 9.6 1.15 3.84-.07 3.8-1.65 7.65-1.72 3.84-.07 3.87 1.5 7.71 1.44 3.84-.08 3.81-1.65 7.65-1.73 1.6-.03 2.59.15 3.45.26a7.5 7.5 0 0 1-1.97-3.12c.3-4.37 3.86-3.02 3.86-3.02l1.03-3.83c1.2-3.64 4.51-3.25 5.32-3.26-2.9-3.51-8.56-3.36-10.75-2.95z"/><path id="213gh" d="M178.98 3002.6a15.27 15.27 0 0 1-.07-21.4l14.18-14.46a14.83 14.83 0 0 1 21.16-.07c5.86 5.9 5.89 15.49.07 21.42l-14.19 14.45a14.83 14.83 0 0 1-21.15.07z"/><path id="213gj" d="M201.39 3000.73l-20.9-21 3.52-3.59 20.9 21.01z"/><path id="213gl" d="M235.66 2978.72c-2.31 1.64-3.13 4.51-1.84 6.38l17.05 24.59c1.3 1.87 4.25 2.06 6.55.42 2.31-1.64 3.13-4.51 1.84-6.38l-17.05-24.59c-1.3-1.86-4.25-2.05-6.55-.42z"/><path id="213gn" d="M282.24 2976.98l-10.54-3.23-22.06 31.16a5.24 5.24 0 0 0 1.15 7.24 5.1 5.1 0 0 0 7.15-1.16z"/><path id="213gp" d="M282.29 2997.66a6.47 6.47 0 0 0-8.28-3.97l-53.5 19.38a6.6 6.6 0 0 0-3.92 8.38 6.47 6.47 0 0 0 8.27 3.96l53.51-19.37a6.59 6.59 0 0 0 3.92-8.38z"/><path id="213gr" d="M279.65 2993.92a6.46 6.46 0 0 0-8.6 3.2l-24.63 53.57 11.75 5.52 24.63-53.58a6.6 6.6 0 0 0-3.15-8.7z"/><path id="213gs" d="M252.04 3052.76a6.46 6.46 0 0 0-8.6 3.18l-24.67 53.57 11.75 5.51 24.67-53.56a6.61 6.61 0 0 0-3.15-8.7z"/><path id="213gt" d="M259.65 3055.53l-12.46-2.63-2.28 11.08 23.4 4.93a11.31 11.31 0 0 0-8.66-13.38z"/><path id="213gu" d="M229.6 3115.39l.16-.95-10.43-5.1a26.52 26.52 0 0 0-3.4 13v2.5h23a9.4 9.4 0 0 0-9.34-9.45z"/><path id="213gv" d="M212.15 3024.85a14.56 14.56 0 0 1-9.42-16.15l6.58-32.45c.97-5.25 6.36-8.35 11.03-6.35l21.83 9.33c4.49 1.92 6.12 7.61 3.43 11.97l-16.98 27.47c-3.55 5.75-10.38 8.31-16.47 6.18z"/><path id="213gx" d="M254.07 3062.9a6.64 6.64 0 0 0 .15-9.27l-39.5-41.36a6.45 6.45 0 0 0-9.15-.16 6.64 6.64 0 0 0-.16 9.27l39.5 41.37a6.44 6.44 0 0 0 9.16.15z"/><path id="213gz" d="M218.28 2971.76a5.1 5.1 0 0 0-7.23.5l-24.34 28.25a5.24 5.24 0 0 0 .5 7.32 5.1 5.1 0 0 0 7.22-.5l24.34-28.25a5.24 5.24 0 0 0-.5-7.32z"/><path id="213gB" d="M303.73 2934.29l-14.2 14.83-2.64-7.41 13.75-14.37z"/><path id="213gD" d="M243.5 2975.3l-2.48-.44 1.68-9.9c.2-1.22.76-2.32 1.6-3.2l30.88-32.08a2.72 2.72 0 0 1 4.45.79l2.24 5.02-2.3 1.05-2.24-5.02a.2.2 0 0 0-.16-.12.18.18 0 0 0-.18.06l-30.87 32.07a3.53 3.53 0 0 0-.94 1.85z"/><path id="213gE" d="M296.04 2942.42l-75.53 78.47a5.33 5.33 0 0 1-8.89-1.95l-3.7-10.42L288.3 2925z"/><path id="213gG" d="M283.47 2980.92l-5.8 6.03-7.86-19.07 5.8-6.02z"/><path id="213gH" d="M233.8 3027.18l-4.84 5.02-12.92-31.89 4.83-5.02z"/><path id="213gJ" d="M273.38 2971.3c-1.72 1.31-2.7 2.66-4.26 5.3l-1.31 2.41 2.19 2.96 5.57-7.7c.58-.45.85-1.2.69-1.9a1.82 1.82 0 0 0-2.88-1.07zm9.44-1.32l2.31 9.35-4.5 3.4c-.71.55-1.75.17-1.95-.73l-1.57-7.2c-.11-.5.1-1.03.52-1.32l5.2-3.5z"/><path id="213gK" d="M231.49 3016.45l-1.9-1.68 4.02-4.65a9.5 9.5 0 0 0 2.36-5.06l.03-.15 1.7-7.28 2.46.59-1.68 7.2a11.99 11.99 0 0 1-3.03 6.46z"/><path id="213gL" d="M222.7 3002.88l-.32-1.63 63.43-65.87.64 1.74s-63.7 65.56-63.75 65.76z"/><path id="213gN" d="M225.11 3005.74l-.32-1.62 62.5-64.94.64 1.74s-62.77 64.62-62.82 64.82z"/><path id="213gP" d="M221.67 3019.62a17.67 17.67 0 0 0-1.72-3.8l3.75 1.43 4.94-4.75a1.8 1.8 0 0 1 2.94.72l2.16 6.27c.24.68.06 1.43-.46 1.92l-2.27 2.38a12.37 12.37 0 0 1-11.73 3.53l1.8-6.48z"/><path id="213gR" d="M215.92 3124.78v-2.13h22.93v2.13z"/><path id="213gS" d="M221.2 3028.46l2.7-11.1-30.53-17.26a5.1 5.1 0 0 0-7.13 1.28 5.24 5.24 0 0 0 1.27 7.22z"/><path id="213gU" d="M294.79 3031.56c1.09 2.64 4 3.94 6.46 2.89l32.44-13.78c2.46-1.05 3.6-4.06 2.5-6.7-1.09-2.64-4-3.94-6.46-2.89l-32.44 13.78c-2.46 1.04-3.6 4.06-2.5 6.7z"/><path id="213gW" d="M279.45 3074.4c.54 3.5 3.8 5.9 7.3 5.36l43.4-6.8a6.44 6.44 0 0 0 5.37-7.32 6.38 6.38 0 0 0-7.29-5.34l-43.41 6.78a6.44 6.44 0 0 0-5.37 7.33z"/><path id="213gY" d="M333.35 3061.68c-2.88-2.14-6.66-1.9-8.43.53l-29.66 40.54 10.45 7.77 29.67-40.53c1.76-2.44.84-6.17-2.03-8.31z"/><path id="213gaa" d="M355.78 3074.64a6.55 6.55 0 0 0-6.43-6.63l-56.9-.46a6.55 6.55 0 0 0-6.53 6.52 6.55 6.55 0 0 0 6.43 6.63l56.9.46c3.56.03 6.5-2.91 6.53-6.52z"/><path id="213gab" d="M345.09 3070.44a6.65 6.65 0 0 0 .42 9.14l41.76 39.75 8.4-9.57-41.76-39.75a6.11 6.11 0 0 0-8.82.43z"/><path id="213gac" d="M410.06 3117.28h-5.94l-10.92-10.04-7.08 7.88 10.8 10.1 22.74-.06c0-6.27-3.42-7.88-9.6-7.88z"/><path id="213gad" d="M299.48 3116.2l4.87-7.78-8.5-6.4-2.57 3.78a39.32 39.32 0 0 0-6.56 17.45l-.22 1.8H313c0-6.27-4.48-8.86-13.52-8.86z"/><path id="213gae" d="M281.78 3078.14c5.34 4.25 6.62-2.34 11.74-7.25l31.07-17.35c3.84-3.67 4.07-10.15-.13-13.06l-20.73-14.44c-4.03-2.79-9.66-1.1-11.82 3.56l-13.9 31.12c-2.86 6.15-1.3 13.37 3.77 17.42z"/><path id="213gag" d="M326.07 3045.09a5.1 5.1 0 0 0-7.23-.56l-20.08 17.45a5.26 5.26 0 0 0-.55 7.33 5.1 5.1 0 0 0 7.23.56l20.07-17.45a5.26 5.26 0 0 0 .56-7.33z"/><path id="213gai" d="M277.43 3086.47l7.7 6.87 19.18-22.1a5.26 5.26 0 0 0-.46-7.33 5.09 5.09 0 0 0-7.23.47z"/><path id="213gak" d="M321.9 2967.66a9.61 9.61 0 0 1 9.54-9.67 9.61 9.61 0 0 1 9.55 9.68 9.61 9.61 0 0 1-9.54 9.67 9.61 9.61 0 0 1-9.55-9.68z"/><path id="213gam" d="M268.54 3092.91l11.23-4.82 3.96 3.58-1.44 2.4a8.04 8.04 0 0 1-4.13 4.34l-6.52 2.98c-1.37.59-2.91.6-4.3.04l-5.9-3.04 1.49-3.17 5.04 2.24 5.27-2.31-.48-1.15-3.19 1.37a1.3 1.3 0 0 1-1.72-.7c-.3-.68.02-1.47.69-1.76z"/><path id="213gao" d="M336.74 2983.11l-10.25-.08-.23 32.6a5.18 5.18 0 0 0 5.09 5.25 5.18 5.18 0 0 0 5.17-5.16z"/><path id="213gaq" d="M308.13 3041.48l24.8.11.1-15.8-24.79-.12a7.85 7.85 0 0 0-7.85 7.85 7.85 7.85 0 0 0 7.74 7.96z"/><path id="213gar" d="M342.2 3036.19l-2.6-5.36a7.8 7.8 0 0 0-9.07-4.78 7.94 7.94 0 0 0-5.8 9.56 7.82 7.82 0 0 0 9.43 5.87 7.85 7.85 0 0 0 5.5-4.92z"/><path id="213gat" d="M334.61 3031.55c0-1.96 1.5-3.55 3.33-3.55 1.84 0 3.33 1.59 3.33 3.54 0 1.96-1.5 3.55-3.33 3.55-1.84 0-3.33-1.59-3.33-3.54z"/><path id="213gau" d="M336.4 3031.43c0-1.85 1.13-3.34 2.52-3.34 1.38 0 2.51 1.5 2.51 3.33 0 1.85-1.13 3.34-2.52 3.34-1.38 0-2.51-1.5-2.51-3.33z"/><path id="213gav" d="M325.71 3033.54v-2.84h9.9v2.84z"/><path id="213gaw" d="M326.23 3038.72c-1.04-4.74 2.97-4.25 2.97-4.25l.2-5.02a3.8 3.8 0 0 1 3.64-3.67c-.22.09-8.97.93-8.97.93l-1.67 9.2z"/><path id="213gax" d="M326.95 2959.62c.76 1.14.43 2.1-.4 2.67-.82.56-1.82.52-2.58-.62-.76-1.15-1.57-3.8-.74-4.37.82-.57 2.96 1.17 3.72 2.32z"/><path id="213gaz" d="M337.36 2975.59c-1.04-.9-.97-1.9-.34-2.67.65-.77 1.62-1 2.66-.12 1.04.89 2.52 3.23 1.88 4-.64.77-3.16-.32-4.2-1.21z"/><path id="213gaB" d="M338.72 2962.4c-.8 1.1-1.8 1.12-2.61.53-.81-.6-1.1-1.56-.31-2.68.8-1.12 2.98-2.79 3.78-2.2.81.6-.07 3.23-.86 4.34z"/><path id="213gaD" d="M328.32 2969.7c0-1.01.8-1.83 1.8-1.83s1.8.82 1.8 1.83c0 1-.8 1.82-1.8 1.82s-1.8-.82-1.8-1.82z"/><path id="213gaF" d="M258.82 3091.28a9.61 9.61 0 0 1 9.54-9.68 9.61 9.61 0 0 1 9.55 9.68 9.61 9.61 0 0 1-9.54 9.67 9.61 9.61 0 0 1-9.55-9.67z"/><path id="213gaH" d="M260.75 3096.38c1.07-.85 2.04-.58 2.65.21.61.8.64 1.81-.43 2.66-1.07.85-3.62 1.85-4.24 1.05-.62-.79.95-3.07 2.02-3.92z"/><path id="213gaJ" d="M275.75 3084.74c-.8 1.1-1.8 1.12-2.6.53-.81-.6-1.11-1.57-.3-2.68.8-1.11 2.99-2.78 3.8-2.19.8.6-.1 3.23-.9 4.34z"/><path id="213gaL" d="M262.67 3084.3c1.16.72 1.24 1.74.71 2.6-.52.85-1.46 1.22-2.61.5-1.15-.73-2.95-2.83-2.43-3.69.53-.85 3.17-.15 4.33.59z"/><path id="213gaN" d="M268.65 3092.61c-.07-1 .68-1.88 1.67-1.95 1-.06 1.86.7 1.93 1.7.07 1-.68 1.88-1.67 1.95-1 .06-1.86-.7-1.93-1.7z"/><path id="213gaO" d="M39.91 3051.65l-9.05.62c-.11 0-4.9-3.48-6.58-4.7a1.52 1.52 0 0 1-.61-1.12l-.25-3.59a1.5 1.5 0 0 1 1.4-1.6l2.76-.2-.08-1.3a1.5 1.5 0 0 1 1.38-1.61l2.46-.17 7.8 6.2s1.05 7.45.77 7.47z"/><path id="213gaQ" d="M76.92 3067.93a6.6 6.6 0 0 1 4.05-8.31l53.82-18.5a6.48 6.48 0 0 1 8.21 4.1 6.6 6.6 0 0 1-4.05 8.31l-53.81 18.5a6.47 6.47 0 0 1-8.22-4.1z"/><path id="213gaS" d="M86.92 3061a6.62 6.62 0 0 1 .74 9.23l-39.69 47.34-9.87-8.48 39.69-47.34a6.44 6.44 0 0 1 9.13-.76z"/><path id="213gaU" d="M90.37 2990.52l-2.36 6 4.24.28z"/><path id="213gaV" d="M105.36 2994.55a7.9 7.9 0 0 0-6.5-9.04c-2.84-.45-5.02-1.44-6.73.65-.86 1.05-1.99 4.48-2.21 5.93a7.9 7.9 0 0 0 6.5 9.05 7.83 7.83 0 0 0 8.94-6.59z"/><path id="213gaX" d="M93.66 2992.38c.3.05.6-.16.65-.48l.2-1.23a.57.57 0 0 0-1.13-.18l-.2 1.23c-.04.31.17.61.48.66z"/><path id="213gaY" d="M103.83 2998.07c.68-4.79-3.3-4.32-3.3-4.32l-.28-2.01c.1-.63-4.07-3.48-8.6-4.55-.09-.02 1.03-3.44 3.03-3.65.24-.03 10.53 2.18 10.53 2.18l3.75 4.46c.28 1-1.5 3.5-2.62 5.25z"/><path id="213gaZ" d="M117.13 3010.13a5.19 5.19 0 0 1-4.46 5.78l-36.4 4.76c-2.8.34-2.54-2.07-2.89-4.9l-3.18.18a5.19 5.19 0 0 1 4.46-5.78l36.76-4.55a5.15 5.15 0 0 1 5.71 4.51z"/><path id="213gbb" d="M38.55 2992.27l6.24-8.22 34.15 27.34a5.24 5.24 0 0 1 .95 7.27 5.1 5.1 0 0 1-7.18.95z"/><path id="213gbd" d="M31.18 3114.33h6.26l5.17-6.13 7.2 7.28-7.92 10.16H20c0-6.25 5-11.3 11.18-11.3z"/><path id="213gbe" d="M177.25 3118.92l10.88-5.5 1.1.53a10.26 10.26 0 0 1 5.64 7.52l.96 5.56h-28.95c0-6.25 4.2-8.11 10.37-8.11z"/><path id="213gbf" d="M142.87 3049.03a12.51 12.51 0 0 1-17.84 0l-27.9-21.5c-3.23-3.26-2.22-9.05 1-12.32l6.09-6.6a11.59 11.59 0 0 1 16.52 0l22.13 22.38a12.86 12.86 0 0 1 0 18.04z"/><path id="213gbh" d="M104.27 3015.8c2.15 1.84 2.56 4.96.9 6.93l-21.7 25.9c-1.65 1.97-4.76 2.07-6.91.23-2.15-1.84-2.56-4.96-.9-6.94l21.7-25.9c1.65-1.96 4.76-2.07 6.91-.22z"/><path id="213gbj" d="M38.56 3054.12l-.81-10.33 41.34-3.32a5.18 5.18 0 1 1 .81 10.33z"/><path id="213gbl" d="M131.07 3103.84a6.56 6.56 0 0 1-5.46-7.44l8.3-56.88a6.5 6.5 0 0 1 7.36-5.52 6.56 6.56 0 0 1 5.46 7.44l-8.3 56.87a6.5 6.5 0 0 1-7.36 5.53z"/><path id="213gbm" d="M126.01 3095.29a6.47 6.47 0 0 1 8.43-3.62l54.17 22.01-4.85 12.15-54.17-22.01a6.6 6.6 0 0 1-3.58-8.53z"/><path id="213gbn" d="M98.27 2990.73l19.57 9.45c1.16.55 2.55.05 3.1-1.11a2.37 2.37 0 0 0-1.1-3.13l-19.57-9.45a2.32 2.32 0 0 0-3.1 1.1 2.36 2.36 0 0 0 1.1 3.14z"/><path id="213gbo" d="M103.51 2981.58c-3.45-1.42-7.36-.3-10 2.52a3 3 0 0 1 1.7 1.73c.53 1.4.47 1.97.47 1.97l-3.8-1.44c-.23.4-.44.83-.62 1.27l16.9 6.93c2.1-5.26.02-11.07-4.65-12.98z"/><path id="213gbp" d="M127.77 3079.6a6.53 6.53 0 0 1 6.42-6.6l56.83-.45a6.53 6.53 0 0 1 6.53 6.49 6.53 6.53 0 0 1-6.42 6.6l-56.83.45a6.52 6.52 0 0 1-6.53-6.49z"/><path id="213gbr" d="M138.84 3075.15a6.6 6.6 0 0 1-.43 9.24l-25.57 23.63-8.72-9.67 25.57-23.63a6.45 6.45 0 0 1 9.15.43z"/><path id="213gbt" d="M79.26 3118.88h12.68v6.6H72.72c0-3.64 2.93-6.6 6.54-6.6z"/><path id="213gbu" d="M217.98 3116.57c4.88 0 8.83 3.6 8.83 8.05h-17.66c0-4.45 3.96-8.05 8.83-8.05z"/><path id="213gbv" d="M170.8 3006.37l2.9-4.84a4.15 4.15 0 0 1 5.72-1.43l.04.02a4.24 4.24 0 0 1 1.4 5.78l-2.9 4.84a4.15 4.15 0 0 1-5.7 1.42l-.04-.02a4.24 4.24 0 0 1-1.41-5.77z"/><path id="213gbw" d="M174.95 3014.59l-5.88-3.13 1.15-2.15 5.88 3.13z"/><path id="213gbx" d="M152.57 3021.53l-5.48-.94a4.23 4.23 0 0 1-3.43-4.87 4.2 4.2 0 0 1 4.82-3.46l5.48.94a4.23 4.23 0 0 1 3.43 4.87 4.2 4.2 0 0 1-4.82 3.46z"/><path id="213gby" d="M158.3 3021.15l-2.38-.55 1.15-5.02 2.38.55z"/><path id="213gbz" d="M176.97 3025.03c-3.62-4.52-15.55-3.67-18.62.63l-.23-4.75a9.37 9.37 0 0 1 8.99-9.71 9.35 9.35 0 0 1 9.62 9.08z"/><path id="213gbA" d="M156 3025.26a2.73 2.73 0 0 1 2.71-2.74c1.5 0 2.72 1.23 2.72 2.74a2.73 2.73 0 0 1-2.71 2.74 2.73 2.73 0 0 1-2.72-2.74z"/><path id="213gbC" d="M173.63 3024.66a2.73 2.73 0 0 1 2.71-2.74c1.5 0 2.72 1.23 2.72 2.74a2.73 2.73 0 0 1-2.71 2.74 2.73 2.73 0 0 1-2.72-2.74z"/><path id="213gbE" d="M158.29 3025.35c0-5.2 4.17-9.42 9.32-9.42a9.37 9.37 0 0 1 9.33 9.42c0 5.2-4.17 9.42-9.33 9.42a9.37 9.37 0 0 1-9.32-9.42z"/><path id="213gbG" d="M170.76 3023.51h.17c.31-.01.55-.28.54-.59l-.04-1.36a.56.56 0 0 0-.58-.55h-.18a.57.57 0 0 0-.54.6l.05 1.36c0 .3.27.55.58.54z"/><path id="213gbH" d="M163.87 3023.74h.17c.31-.01.55-.28.54-.59l-.04-1.36a.56.56 0 0 0-.58-.55h-.18a.57.57 0 0 0-.54.6l.05 1.36c.01.3.27.55.58.54z"/><path id="213gbI" d="M167.43 3022.09l-2.1 4.03 2.36 1.72 2.21-1.92z"/><path id="213gbK" d="M162.15 3031.63a5.01 5.01 0 0 1 4.99-5.04 5.01 5.01 0 0 1 4.98 5.04 5.01 5.01 0 0 1-4.98 5.03 5.01 5.01 0 0 1-4.99-5.04z"/><path id="213gbL" d="M167.74 3042.3c2.82.15 4.98 3 4.81 6.35l-1.61 31.3c-.17 3.35-2.61 5.96-5.43 5.81-2.8-.15-4.97-3-4.8-6.34l1.6-31.3c.18-3.35 2.62-5.96 5.43-5.81z"/><path id="213gbN" d="M222 3043.9l-21.02-9.67a29.73 29.73 0 0 0-29.5 2.66l-5.79 4.2c-4.19 2.9-4.53 9.14-.7 12.8l17.94 26.77c5.11 4.89 13.18 4.95 18.5.72 5.07-4.02 6.63-11.2 3.78-17.33l-9.15-19.62 22.1 9.07a5.2 5.2 0 0 0 6.8-2.8 5.3 5.3 0 0 0-2.96-6.8z"/><path id="213gbP" d="M222.47 3060.57a6.24 6.24 0 0 0-3.95-1.89l-.31-.04a7.07 7.07 0 0 0-4.72 1.14c-1.1.76-2.2 1.54-3.36 2.22l-19.77 11.52c-3.32 1.94-4.6 5.98-2.86 9.03 1.75 3.05 5.85 3.95 9.18 2.01l13.46-7.84-.96 11.65 12.89 1.3 2.05-24.96a5.12 5.12 0 0 0-1.65-4.14z"/><path id="213gbR" d="M180.75 3063.14l2.08-5.26-2.29-2.38-.32-.19a11.6 11.6 0 0 0-8.28-1.28l-4.92 1.23.49 1.7 5.86-.46-11.82 4.3-.04 1.7 6.82-1.09-6.91 5.16-.1 1.75 8.23-4.43.82 1.69z"/><path id="213gbT" d="M180.48 3062.71l-2.09-10.12 40.6-8.56a5.14 5.14 0 0 1 6.05 4 5.19 5.19 0 0 1-3.96 6.13z"/><path id="213gbV" d="M212.79 3115.9l2.16-30.51 7.38.52-2.16 30.5z"/><path id="213gbW" d="M84.18 3117l22.53-20.67 5 5.45-22.52 20.67z"/><path id="213gbX" d="M213.85 3119.92l4.4.33a4.43 4.43 0 0 0 4.74-4.11l.22-2.97a4.44 4.44 0 0 0-4.07-4.78 4.43 4.43 0 0 0-4.73 4.12z"/><path id="213gbY" d="M216.56 3113.55h-4.68c-1.15 0-2.1.91-2.17 2.07l-.47 8.72h6.73z"/><path id="213gbZ" d="M79.2 3119.31l6.62-6.24s1.39-1.02 2.08 1.08c.7 2.1-1.13 5.73-1.13 5.73z"/><path id="213gca" d="M166.94 3107.45l-10.14-1.48 3.8-26.53c.36-2.58 2.95-4.35 5.73-3.94 2.79.4 4.77 2.85 4.4 5.43z"/><path id="213gcc" d="M156.9 3105.5l5.57-2.53 2.67 2.41.21.36c1.67 2.69 1.47 2.23 2.98 5.6l1.98 7.1-1.67.09-3.15-4.2-2.57 10.45-2.33.1-.03-8.2-3.57 8.2-5.51.22z"/><path id="213gcd" d="M34.68 2994.07l5.34 4.49 5.25-22.87-5.34-4.49z"/><path id="213gcf" d="M49.93 2974.96a4.88 4.88 0 0 1-.82-6.82l.59-.75a4.74 4.74 0 0 1 6.82-.71l7.96 6.74a6.88 6.88 0 0 1 .9 9.55 6.69 6.69 0 0 1-9.38 1.05l-2.97-2.35"/><path id="213gcg" d="M56.8 2973.85l-16.19-13.36a6.76 6.76 0 0 0-8.52-.07l-1.14-.96.68-.8a.77.77 0 0 0-.08-1.06.74.74 0 0 0-1.05.09l-.7.81-1.3-1.1.62-.75a.76.76 0 0 0-.08-1.06.74.74 0 0 0-1.04.08l-.65.76-2.08-1.76a1.33 1.33 0 0 0-2 .32c-.35.57-.24 1.33.28 1.77l2.05 1.72-.84 1c-.26.33-.23.8.09 1.07.31.27.78.23 1.04-.08l.87-1.02 1.3 1.11-.8.94a.76.76 0 0 0 .09 1.06c.3.27.78.23 1.05-.08l.81-.96 1.14.96a6.96 6.96 0 0 0 1.63 8.72l16.2 13.37a6.8 6.8 0 0 0 10.95-3.71v-.01a6.96 6.96 0 0 0-2.33-7z"/><path id="213gci" d="M41.11 2981.76c-.22.7-.02 1.48.5 1.98l4.4 4.28 2.35-2.8-4.41-4.27c-.94-.91-2.44-.49-2.84.8zm-1.39 1c.38.33.53.88.38 1.38l-2.1 7.13c-.27.89-1.3 1.19-1.94.56l-3.99-3.86 3-9.24 4.65 4.03z"/><path id="213gck" d="M309.57 2966.34c0 9.86 1.35 12.75 6.14 17.89h7.61l4.95-7.75-.95-1.8s-6.5 3.22-6.68 3.15c-.1-.03-3.62-1.15-5.84-5.22-2.07-3.79-2.5-9.14-2.5-9.14z"/><path id="213gcm" d="M35.08 2967.19a1.21 1.21 0 0 1 1.15-1.28c.66-.03 1.23.49 1.26 1.16.03.68-.48 1.25-1.15 1.28a1.21 1.21 0 0 1-1.26-1.16z"/><path id="213gcn" d="M38.1 2969.63a1.21 1.21 0 0 1 1.15-1.28c.66-.03 1.23.49 1.26 1.16.03.68-.48 1.25-1.15 1.28a1.21 1.21 0 0 1-1.26-1.16z"/><path id="213gco" d="M42.32 2972.07a1.21 1.21 0 0 1 1.15-1.28c.66-.03 1.23.49 1.26 1.16.03.68-.48 1.25-1.15 1.28a1.21 1.21 0 0 1-1.26-1.16z"/><path id="213gcp" d="M45.94 2975.74a1.21 1.21 0 0 1 1.15-1.28c.66-.03 1.23.49 1.26 1.16.03.68-.48 1.25-1.15 1.28a1.21 1.21 0 0 1-1.26-1.16z"/><path id="213gcq" d="M49.56 2977.57a1.21 1.21 0 0 1 1.15-1.28c.66-.03 1.23.49 1.26 1.16.03.68-.48 1.25-1.15 1.28a1.21 1.21 0 0 1-1.26-1.16z"/><radialGradient id="213gb" cx="206.59" cy="3126.66" r="173.3" gradientUnits="userSpaceOnUse"><stop offset="0" stop-color="#c8ff00"/><stop offset="1" stop-color="#c8ff00" stop-opacity="0"/></radialGradient><linearGradient id="213ge" x1="235.13" x2="217.4" y1="2960.62" y2="2955.43" gradientUnits="userSpaceOnUse"><stop offset="0" stop-color="#c8ff00"/><stop offset=".47" stop-color="#6516b5"/></linearGradient><linearGradient id="213gi" x1="185.92" x2="207.15" y1="2973.88" y2="2995.23" gradientUnits="userSpaceOnUse"><stop offset="0" stop-color="#c8ff00"/><stop offset=".1" stop-color="#afc52c"/><stop offset=".21" stop-color="#999055"/><stop offset=".31" stop-color="#866377"/><stop offset=".41" stop-color="#774193"/><stop offset=".51" stop-color="#6c2aa6"/><stop offset=".59" stop-color="#671bb1"/><stop offset=".66" stop-color="#6516b5"/></linearGradient><linearGradient id="213gk" x1="184.77" x2="208.77" y1="2980.48" y2="3004.6" gradientUnits="userSpaceOnUse"><stop offset="0" stop-color="#c8ff00"/><stop offset=".04" stop-color="#c1ee0c"/><stop offset=".2" stop-color="#a0a248"/><stop offset=".35" stop-color="#876677"/><stop offset=".47" stop-color="#753b99"/><stop offset=".57" stop-color="#6920ad"/><stop offset=".63" stop-color="#6516b5"/></linearGradient><linearGradient id="213gm" x1="250.94" x2="240.49" y1="2988.95" y2="3001.61" gradientUnits="userSpaceOnUse"><stop offset="0" stop-color="#c8ff00"/><stop offset=".1" stop-color="#afc52c"/><stop offset=".21" stop-color="#999055"/><stop offset=".31" stop-color="#866377"/><stop offset=".41" stop-color="#774193"/><stop offset=".51" stop-color="#6c2aa6"/><stop offset=".59" stop-color="#671bb1"/><stop offset=".66" stop-color="#6516b5"/></linearGradient><linearGradient id="213go" x1="261" x2="266.43" y1="2987.36" y2="2994.65" gradientUnits="userSpaceOnUse"><stop offset="0" stop-color="#c8ff00"/><stop offset=".1" stop-color="#afc52c"/><stop offset=".21" stop-color="#999055"/><stop offset=".31" stop-color="#866377"/><stop offset=".41" stop-color="#774193"/><stop offset=".51" stop-color="#6c2aa6"/><stop offset=".59" stop-color="#671bb1"/><stop offset=".66" stop-color="#6516b5"/></linearGradient><linearGradient id="213gq" x1="245.12" x2="252.31" y1="3002.42" y2="3014.3" gradientUnits="userSpaceOnUse"><stop offset="0" stop-color="#c8ff00"/><stop offset=".1" stop-color="#afc52c"/><stop offset=".21" stop-color="#999055"/><stop offset=".31" stop-color="#866377"/><stop offset=".41" stop-color="#774193"/><stop offset=".51" stop-color="#6c2aa6"/><stop offset=".59" stop-color="#671bb1"/><stop offset=".66" stop-color="#6516b5"/></linearGradient><linearGradient id="213gw" x1="227.72" x2="222.8" y1="2974.92" y2="3013.8" gradientUnits="userSpaceOnUse"><stop offset="0" stop-color="#c8ff00"/><stop offset=".04" stop-color="#c1ee0c"/><stop offset=".2" stop-color="#a0a248"/><stop offset=".35" stop-color="#876677"/><stop offset=".47" stop-color="#753b99"/><stop offset=".57" stop-color="#6920ad"/><stop offset=".63" stop-color="#6516b5"/></linearGradient><linearGradient id="213gy" x1="234.24" x2="224.32" y1="3032.19" y2="3044.11" gradientUnits="userSpaceOnUse"><stop offset="0" stop-color="#c8ff00"/><stop offset=".1" stop-color="#afc52c"/><stop offset=".21" stop-color="#999055"/><stop offset=".31" stop-color="#866377"/><stop offset=".41" stop-color="#774193"/><stop offset=".51" stop-color="#6c2aa6"/><stop offset=".59" stop-color="#671bb1"/><stop offset=".66" stop-color="#6516b5"/></linearGradient><linearGradient id="213gA" x1="199.66" x2="207.5" y1="2984.92" y2="2997.37" gradientUnits="userSpaceOnUse"><stop offset="0" stop-color="#c8ff00"/><stop offset=".1" stop-color="#afc52c"/><stop offset=".21" stop-color="#999055"/><stop offset=".31" stop-color="#866377"/><stop offset=".41" stop-color="#774193"/><stop offset=".51" stop-color="#6c2aa6"/><stop offset=".59" stop-color="#671bb1"/><stop offset=".66" stop-color="#6516b5"/></linearGradient><linearGradient id="213gC" x1="277.5" x2="315.47" y1="2953.75" y2="2919.89" gradientUnits="userSpaceOnUse"><stop offset="0" stop-color="#c8ff00"/><stop offset=".1" stop-color="#afc52c"/><stop offset=".21" stop-color="#999055"/><stop offset=".31" stop-color="#866377"/><stop offset=".41" stop-color="#774193"/><stop offset=".51" stop-color="#6c2aa6"/><stop offset=".59" stop-color="#671bb1"/><stop offset=".66" stop-color="#6516b5"/></linearGradient><linearGradient id="213gF" x1="276.46" x2="321.72" y1="2972.04" y2="2969.04" gradientUnits="userSpaceOnUse"><stop offset="0" stop-color="#c8ff00"/><stop offset=".1" stop-color="#afc52c"/><stop offset=".21" stop-color="#999055"/><stop offset=".31" stop-color="#866377"/><stop offset=".41" stop-color="#774193"/><stop offset=".51" stop-color="#6c2aa6"/><stop offset=".59" stop-color="#671bb1"/><stop offset=".66" stop-color="#6516b5"/></linearGradient><linearGradient id="213gI" x1="253.46" x2="321.52" y1="2988.12" y2="2927.39" gradientUnits="userSpaceOnUse"><stop offset="0" stop-color="#c8ff00"/><stop offset=".1" stop-color="#afc52c"/><stop offset=".21" stop-color="#999055"/><stop offset=".31" stop-color="#866377"/><stop offset=".41" stop-color="#774193"/><stop offset=".51" stop-color="#6c2aa6"/><stop offset=".59" stop-color="#671bb1"/><stop offset=".66" stop-color="#6516b5"/></linearGradient><linearGradient id="213gM" x1="223.6" x2="296.82" y1="3001.67" y2="2924.11" gradientUnits="userSpaceOnUse"><stop offset="0" stop-color="#c8ff00"/><stop offset=".1" stop-color="#afc52c"/><stop offset=".21" stop-color="#999055"/><stop offset=".31" stop-color="#866377"/><stop offset=".41" stop-color="#774193"/><stop offset=".51" stop-color="#6c2aa6"/><stop offset=".59" stop-color="#671bb1"/><stop offset=".66" stop-color="#6516b5"/></linearGradient><linearGradient id="213gO" x1="225.99" x2="298.16" y1="3004.53" y2="2928.09" gradientUnits="userSpaceOnUse"><stop offset="0" stop-color="#c8ff00"/><stop offset=".1" stop-color="#afc52c"/><stop offset=".21" stop-color="#999055"/><stop offset=".31" stop-color="#866377"/><stop offset=".41" stop-color="#774193"/><stop offset=".51" stop-color="#6c2aa6"/><stop offset=".59" stop-color="#671bb1"/><stop offset=".66" stop-color="#6516b5"/></linearGradient><linearGradient id="213gQ" x1="226.66" x2="226.41" y1="3027.55" y2="3017.97" gradientUnits="userSpaceOnUse"><stop offset="0" stop-color="#c8ff00"/><stop offset=".1" stop-color="#afc52c"/><stop offset=".21" stop-color="#999055"/><stop offset=".31" stop-color="#866377"/><stop offset=".41" stop-color="#774193"/><stop offset=".51" stop-color="#6c2aa6"/><stop offset=".59" stop-color="#671bb1"/><stop offset=".66" stop-color="#6516b5"/></linearGradient><linearGradient id="213gT" x1="201.72" x2="206.63" y1="3019.94" y2="3007.08" gradientUnits="userSpaceOnUse"><stop offset="0" stop-color="#c8ff00"/><stop offset=".1" stop-color="#afc52c"/><stop offset=".21" stop-color="#999055"/><stop offset=".31" stop-color="#866377"/><stop offset=".41" stop-color="#774193"/><stop offset=".51" stop-color="#6c2aa6"/><stop offset=".59" stop-color="#671bb1"/><stop offset=".66" stop-color="#6516b5"/></linearGradient><linearGradient id="213gV" x1="313.98" x2="323.25" y1="3020.62" y2="3033.77" gradientUnits="userSpaceOnUse"><stop offset="0" stop-color="#c8ff00"/><stop offset=".1" stop-color="#afc52c"/><stop offset=".21" stop-color="#999055"/><stop offset=".31" stop-color="#866377"/><stop offset=".41" stop-color="#774193"/><stop offset=".51" stop-color="#6c2aa6"/><stop offset=".59" stop-color="#671bb1"/><stop offset=".66" stop-color="#6516b5"/></linearGradient><linearGradient id="213gX" x1="306.99" x2="308.53" y1="3064.3" y2="3081.53" gradientUnits="userSpaceOnUse"><stop offset="0" stop-color="#c8ff00"/><stop offset=".1" stop-color="#afc52c"/><stop offset=".21" stop-color="#999055"/><stop offset=".31" stop-color="#866377"/><stop offset=".41" stop-color="#774193"/><stop offset=".51" stop-color="#6c2aa6"/><stop offset=".59" stop-color="#671bb1"/><stop offset=".66" stop-color="#6516b5"/></linearGradient><linearGradient id="213gZ" x1="309.98" x2="319.84" y1="3073.36" y2="3091.79" gradientUnits="userSpaceOnUse"><stop offset="0" stop-color="#c8ff00"/><stop offset=".1" stop-color="#afc52c"/><stop offset=".21" stop-color="#999055"/><stop offset=".31" stop-color="#866377"/><stop offset=".41" stop-color="#774193"/><stop offset=".51" stop-color="#6c2aa6"/><stop offset=".59" stop-color="#671bb1"/><stop offset=".66" stop-color="#6516b5"/></linearGradient><linearGradient id="213gaf" x1="315.04" x2="284.52" y1="3035.62" y2="3061.63" gradientUnits="userSpaceOnUse"><stop offset="0" stop-color="#c8ff00"/><stop offset=".04" stop-color="#c1ee0c"/><stop offset=".2" stop-color="#a0a248"/><stop offset=".35" stop-color="#876677"/><stop offset=".47" stop-color="#753b99"/><stop offset=".57" stop-color="#6920ad"/><stop offset=".63" stop-color="#6516b5"/></linearGradient><linearGradient id="213gah" x1="323.82" x2="299" y1="3057.53" y2="3056.83" gradientUnits="userSpaceOnUse"><stop offset="0" stop-color="#c8ff00"/><stop offset=".1" stop-color="#afc52c"/><stop offset=".21" stop-color="#999055"/><stop offset=".31" stop-color="#866377"/><stop offset=".41" stop-color="#774193"/><stop offset=".51" stop-color="#6c2aa6"/><stop offset=".59" stop-color="#671bb1"/><stop offset=".66" stop-color="#6516b5"/></linearGradient><linearGradient id="213gaj" x1="286.71" x2="296.37" y1="3073.98" y2="3079.68" gradientUnits="userSpaceOnUse"><stop offset="0" stop-color="#c8ff00"/><stop offset=".1" stop-color="#afc52c"/><stop offset=".21" stop-color="#999055"/><stop offset=".31" stop-color="#866377"/><stop offset=".41" stop-color="#774193"/><stop offset=".51" stop-color="#6c2aa6"/><stop offset=".59" stop-color="#671bb1"/><stop offset=".66" stop-color="#6516b5"/></linearGradient><linearGradient id="213gal" x1="335.01" x2="326.68" y1="2960.2" y2="2977.62" gradientUnits="userSpaceOnUse"><stop offset="0" stop-color="#c8ff00"/><stop offset=".47" stop-color="#6516b5"/></linearGradient><linearGradient id="213gan" x1="271.4" x2="274.47" y1="3091.78" y2="3099.1" gradientUnits="userSpaceOnUse"><stop offset="0" stop-color="#c8ff00"/><stop offset=".1" stop-color="#afc52c"/><stop offset=".21" stop-color="#999055"/><stop offset=".31" stop-color="#866377"/><stop offset=".41" stop-color="#774193"/><stop offset=".51" stop-color="#6c2aa6"/><stop offset=".59" stop-color="#671bb1"/><stop offset=".66" stop-color="#6516b5"/></linearGradient><linearGradient id="213gap" x1="328.08" x2="344.81" y1="3000.15" y2="3005.66" gradientUnits="userSpaceOnUse"><stop offset="0" stop-color="#c8ff00"/><stop offset=".1" stop-color="#afc52c"/><stop offset=".21" stop-color="#999055"/><stop offset=".31" stop-color="#866377"/><stop offset=".41" stop-color="#774193"/><stop offset=".51" stop-color="#6c2aa6"/><stop offset=".59" stop-color="#671bb1"/><stop offset=".66" stop-color="#6516b5"/></linearGradient><linearGradient id="213gas" x1="325.82" x2="344.26" y1="3033.85" y2="3033.6" gradientUnits="userSpaceOnUse"><stop offset="0" stop-color="#c8ff00"/><stop offset=".47" stop-color="#6516b5"/></linearGradient><linearGradient id="213gay" x1="326.04" x2="323.1" y1="2958.92" y2="2961.14" gradientUnits="userSpaceOnUse"><stop offset="0" stop-color="#c8ff00"/><stop offset=".1" stop-color="#afc52c"/><stop offset=".21" stop-color="#999055"/><stop offset=".31" stop-color="#866377"/><stop offset=".41" stop-color="#774193"/><stop offset=".51" stop-color="#6c2aa6"/><stop offset=".59" stop-color="#671bb1"/><stop offset=".66" stop-color="#6516b5"/></linearGradient><linearGradient id="213gaA" x1="340.05" x2="337.9" y1="2973.73" y2="2976.93" gradientUnits="userSpaceOnUse"><stop offset="0" stop-color="#c8ff00"/><stop offset=".1" stop-color="#afc52c"/><stop offset=".21" stop-color="#999055"/><stop offset=".31" stop-color="#866377"/><stop offset=".41" stop-color="#774193"/><stop offset=".51" stop-color="#6c2aa6"/><stop offset=".59" stop-color="#671bb1"/><stop offset=".66" stop-color="#6516b5"/></linearGradient><linearGradient id="213gaC" x1="337.68" x2="332.79" y1="2960.81" y2="2966.56" gradientUnits="userSpaceOnUse"><stop offset="0" stop-color="#c8ff00"/><stop offset=".1" stop-color="#afc52c"/><stop offset=".21" stop-color="#999055"/><stop offset=".31" stop-color="#866377"/><stop offset=".41" stop-color="#774193"/><stop offset=".51" stop-color="#6c2aa6"/><stop offset=".59" stop-color="#671bb1"/><stop offset=".66" stop-color="#6516b5"/></linearGradient><linearGradient id="213gaE" x1="330.1" x2="329.72" y1="2969.89" y2="2974.5" gradientUnits="userSpaceOnUse"><stop offset="0" stop-color="#c8ff00"/><stop offset=".1" stop-color="#afc52c"/><stop offset=".21" stop-color="#999055"/><stop offset=".31" stop-color="#866377"/><stop offset=".41" stop-color="#774193"/><stop offset=".51" stop-color="#6c2aa6"/><stop offset=".59" stop-color="#671bb1"/><stop offset=".66" stop-color="#6516b5"/></linearGradient><linearGradient id="213gaG" x1="265.43" x2="269.39" y1="3081.98" y2="3094.53" gradientUnits="userSpaceOnUse"><stop offset="0" stop-color="#c8ff00"/><stop offset=".1" stop-color="#afc52c"/><stop offset=".21" stop-color="#999055"/><stop offset=".31" stop-color="#866377"/><stop offset=".41" stop-color="#774193"/><stop offset=".51" stop-color="#6c2aa6"/><stop offset=".59" stop-color="#671bb1"/><stop offset=".66" stop-color="#6516b5"/></linearGradient><linearGradient id="213gaI" x1="256.81" x2="260.76" y1="3084.79" y2="3097.33" gradientUnits="userSpaceOnUse"><stop offset="0" stop-color="#c8ff00"/><stop offset=".1" stop-color="#afc52c"/><stop offset=".21" stop-color="#999055"/><stop offset=".31" stop-color="#866377"/><stop offset=".41" stop-color="#774193"/><stop offset=".51" stop-color="#6c2aa6"/><stop offset=".59" stop-color="#671bb1"/><stop offset=".66" stop-color="#6516b5"/></linearGradient><linearGradient id="213gaK" x1="273.64" x2="277.6" y1="3079.32" y2="3091.87" gradientUnits="userSpaceOnUse"><stop offset="0" stop-color="#c8ff00"/><stop offset=".1" stop-color="#afc52c"/><stop offset=".21" stop-color="#999055"/><stop offset=".31" stop-color="#866377"/><stop offset=".41" stop-color="#774193"/><stop offset=".51" stop-color="#6c2aa6"/><stop offset=".59" stop-color="#671bb1"/><stop offset=".66" stop-color="#6516b5"/></linearGradient><linearGradient id="213gaM" x1="260.53" x2="264.49" y1="3083.57" y2="3096.12" gradientUnits="userSpaceOnUse"><stop offset="0" stop-color="#c8ff00"/><stop offset=".1" stop-color="#afc52c"/><stop offset=".21" stop-color="#999055"/><stop offset=".31" stop-color="#866377"/><stop offset=".41" stop-color="#774193"/><stop offset=".51" stop-color="#6c2aa6"/><stop offset=".59" stop-color="#671bb1"/><stop offset=".66" stop-color="#6516b5"/></linearGradient><linearGradient id="213gaP" x1="31.79" x2="30.27" y1="3045.95" y2="3063.95" gradientUnits="userSpaceOnUse"><stop offset="0" stop-color="#c8ff00"/><stop offset=".1" stop-color="#afc52c"/><stop offset=".21" stop-color="#999055"/><stop offset=".31" stop-color="#866377"/><stop offset=".41" stop-color="#774193"/><stop offset=".51" stop-color="#6c2aa6"/><stop offset=".59" stop-color="#671bb1"/><stop offset=".66" stop-color="#6516b5"/></linearGradient><linearGradient id="213gaR" x1="102.86" x2="116.99" y1="3045.21" y2="3067.84" gradientUnits="userSpaceOnUse"><stop offset="0" stop-color="#c8ff00"/><stop offset=".1" stop-color="#afc52c"/><stop offset=".21" stop-color="#999055"/><stop offset=".31" stop-color="#866377"/><stop offset=".41" stop-color="#774193"/><stop offset=".51" stop-color="#6c2aa6"/><stop offset=".59" stop-color="#671bb1"/><stop offset=".66" stop-color="#6516b5"/></linearGradient><linearGradient id="213gaT" x1="56.36" x2="70.49" y1="3074.92" y2="3097.55" gradientUnits="userSpaceOnUse"><stop offset="0" stop-color="#c8ff00"/><stop offset=".1" stop-color="#afc52c"/><stop offset=".21" stop-color="#999055"/><stop offset=".31" stop-color="#866377"/><stop offset=".41" stop-color="#774193"/><stop offset=".51" stop-color="#6c2aa6"/><stop offset=".59" stop-color="#671bb1"/><stop offset=".66" stop-color="#6516b5"/></linearGradient><linearGradient id="213gaW" x1="90.29" x2="108.52" y1="2991.92" y2="2994.96" gradientUnits="userSpaceOnUse"><stop offset="0" stop-color="#c8ff00"/><stop offset=".47" stop-color="#6516b5"/></linearGradient><linearGradient id="213gba" x1="93.59" x2="94.1" y1="3011.26" y2="3024.02" gradientUnits="userSpaceOnUse"><stop offset="0" stop-color="#c8ff00"/><stop offset=".1" stop-color="#afc52c"/><stop offset=".21" stop-color="#999055"/><stop offset=".31" stop-color="#866377"/><stop offset=".41" stop-color="#774193"/><stop offset=".51" stop-color="#6c2aa6"/><stop offset=".59" stop-color="#671bb1"/><stop offset=".66" stop-color="#6516b5"/></linearGradient><linearGradient id="213gbc" x1="62.1" x2="56.04" y1="3000.72" y2="3010.76" gradientUnits="userSpaceOnUse"><stop offset="0" stop-color="#c8ff00"/><stop offset=".1" stop-color="#afc52c"/><stop offset=".21" stop-color="#999055"/><stop offset=".31" stop-color="#866377"/><stop offset=".41" stop-color="#774193"/><stop offset=".51" stop-color="#6c2aa6"/><stop offset=".59" stop-color="#671bb1"/><stop offset=".66" stop-color="#6516b5"/></linearGradient><linearGradient id="213gbg" x1="102.25" x2="135.61" y1="3015.83" y2="3036.8" gradientUnits="userSpaceOnUse"><stop offset="0" stop-color="#c8ff00"/><stop offset=".04" stop-color="#c1ee0c"/><stop offset=".2" stop-color="#a0a248"/><stop offset=".35" stop-color="#876677"/><stop offset=".47" stop-color="#753b99"/><stop offset=".57" stop-color="#6920ad"/><stop offset=".63" stop-color="#6516b5"/></linearGradient><linearGradient id="213gbi" x1="86.56" x2="95.47" y1="3026.12" y2="3040.11" gradientUnits="userSpaceOnUse"><stop offset="0" stop-color="#c8ff00"/><stop offset=".1" stop-color="#afc52c"/><stop offset=".21" stop-color="#999055"/><stop offset=".31" stop-color="#866377"/><stop offset=".41" stop-color="#774193"/><stop offset=".51" stop-color="#6c2aa6"/><stop offset=".59" stop-color="#671bb1"/><stop offset=".66" stop-color="#6516b5"/></linearGradient><linearGradient id="213gbk" x1="58.06" x2="63.23" y1="3039.74" y2="3053.91" gradientUnits="userSpaceOnUse"><stop offset="0" stop-color="#c8ff00"/><stop offset=".1" stop-color="#afc52c"/><stop offset=".21" stop-color="#999055"/><stop offset=".31" stop-color="#866377"/><stop offset=".41" stop-color="#774193"/><stop offset=".51" stop-color="#6c2aa6"/><stop offset=".59" stop-color="#671bb1"/><stop offset=".66" stop-color="#6516b5"/></linearGradient><linearGradient id="213gbq" x1="156.08" x2="163.91" y1="3063.47" y2="3082.32" gradientUnits="userSpaceOnUse"><stop offset="0" stop-color="#c8ff00"/><stop offset=".1" stop-color="#afc52c"/><stop offset=".21" stop-color="#999055"/><stop offset=".31" stop-color="#866377"/><stop offset=".41" stop-color="#774193"/><stop offset=".51" stop-color="#6c2aa6"/><stop offset=".59" stop-color="#671bb1"/><stop offset=".66" stop-color="#6516b5"/></linearGradient><linearGradient id="213gbs" x1="118.6" x2="126.43" y1="3079.32" y2="3098.18" gradientUnits="userSpaceOnUse"><stop offset="0" stop-color="#c8ff00"/><stop offset=".1" stop-color="#afc52c"/><stop offset=".21" stop-color="#999055"/><stop offset=".31" stop-color="#866377"/><stop offset=".41" stop-color="#774193"/><stop offset=".51" stop-color="#6c2aa6"/><stop offset=".59" stop-color="#671bb1"/><stop offset=".66" stop-color="#6516b5"/></linearGradient><linearGradient id="213gbB" x1="158" x2="174.12" y1="3025.69" y2="3015.78" gradientUnits="userSpaceOnUse"><stop offset="0" stop-color="#c8ff00"/><stop offset=".15" stop-color="#afc52c"/><stop offset=".31" stop-color="#999055"/><stop offset=".47" stop-color="#866377"/><stop offset=".62" stop-color="#774193"/><stop offset=".76" stop-color="#6c2aa6"/><stop offset=".89" stop-color="#671bb1"/><stop offset="1" stop-color="#6516b5"/></linearGradient><linearGradient id="213gbD" x1="162.5" x2="178.62" y1="3033.16" y2="3023.25" gradientUnits="userSpaceOnUse"><stop offset="0" stop-color="#c8ff00"/><stop offset=".15" stop-color="#afc52c"/><stop offset=".31" stop-color="#999055"/><stop offset=".47" stop-color="#866377"/><stop offset=".62" stop-color="#774193"/><stop offset=".76" stop-color="#6c2aa6"/><stop offset=".89" stop-color="#671bb1"/><stop offset="1" stop-color="#6516b5"/></linearGradient><linearGradient id="213gbF" x1="160.44" x2="176.56" y1="3029.75" y2="3019.83" gradientUnits="userSpaceOnUse"><stop offset="0" stop-color="#c8ff00"/><stop offset=".15" stop-color="#afc52c"/><stop offset=".31" stop-color="#999055"/><stop offset=".47" stop-color="#866377"/><stop offset=".62" stop-color="#774193"/><stop offset=".76" stop-color="#6c2aa6"/><stop offset=".89" stop-color="#671bb1"/><stop offset="1" stop-color="#6516b5"/></linearGradient><linearGradient id="213gbJ" x1="163.79" x2="179.9" y1="3027.28" y2="3017.37" gradientUnits="userSpaceOnUse"><stop offset="0" stop-color="#c8ff00"/><stop offset=".15" stop-color="#afc52c"/><stop offset=".31" stop-color="#999055"/><stop offset=".47" stop-color="#866377"/><stop offset=".62" stop-color="#774193"/><stop offset=".76" stop-color="#6c2aa6"/><stop offset=".89" stop-color="#671bb1"/><stop offset="1" stop-color="#6516b5"/></linearGradient><linearGradient id="213gbM" x1="160.69" x2="171.25" y1="3065.31" y2="3063.02" gradientUnits="userSpaceOnUse"><stop offset="0" stop-color="#c8ff00"/><stop offset=".1" stop-color="#afc52c"/><stop offset=".21" stop-color="#999055"/><stop offset=".31" stop-color="#866377"/><stop offset=".41" stop-color="#774193"/><stop offset=".51" stop-color="#6c2aa6"/><stop offset=".59" stop-color="#671bb1"/><stop offset=".66" stop-color="#6516b5"/></linearGradient><linearGradient id="213gbO" x1="190.02" x2="195.32" y1="3031.54" y2="3055.07" gradientUnits="userSpaceOnUse"><stop offset="0" stop-color="#c8ff00"/><stop offset=".1" stop-color="#afc52c"/><stop offset=".21" stop-color="#999055"/><stop offset=".31" stop-color="#866377"/><stop offset=".41" stop-color="#774193"/><stop offset=".51" stop-color="#6c2aa6"/><stop offset=".59" stop-color="#671bb1"/><stop offset=".66" stop-color="#6516b5"/></linearGradient><linearGradient id="213gbQ" x1="206.96" x2="203.93" y1="3057.69" y2="3089.28" gradientUnits="userSpaceOnUse"><stop offset="0" stop-color="#c8ff00"/><stop offset=".1" stop-color="#afc52c"/><stop offset=".21" stop-color="#999055"/><stop offset=".31" stop-color="#866377"/><stop offset=".41" stop-color="#774193"/><stop offset=".51" stop-color="#6c2aa6"/><stop offset=".59" stop-color="#671bb1"/><stop offset=".66" stop-color="#6516b5"/></linearGradient><linearGradient id="213gbS" x1="170.53" x2="179.83" y1="3061.52" y2="3070.4" gradientUnits="userSpaceOnUse"><stop offset="0" stop-color="#c8ff00"/><stop offset=".1" stop-color="#afc52c"/><stop offset=".21" stop-color="#999055"/><stop offset=".31" stop-color="#866377"/><stop offset=".41" stop-color="#774193"/><stop offset=".51" stop-color="#6c2aa6"/><stop offset=".59" stop-color="#671bb1"/><stop offset=".66" stop-color="#6516b5"/></linearGradient><linearGradient id="213gbU" x1="199.13" x2="204.76" y1="3046.75" y2="3059.92" gradientUnits="userSpaceOnUse"><stop offset="0" stop-color="#c8ff00"/><stop offset=".1" stop-color="#afc52c"/><stop offset=".21" stop-color="#999055"/><stop offset=".31" stop-color="#866377"/><stop offset=".41" stop-color="#774193"/><stop offset=".51" stop-color="#6c2aa6"/><stop offset=".59" stop-color="#671bb1"/><stop offset=".66" stop-color="#6516b5"/></linearGradient><linearGradient id="213gcb" x1="156.72" x2="167.95" y1="3088.7" y2="3093.2" gradientUnits="userSpaceOnUse"><stop offset="0" stop-color="#c8ff00"/><stop offset=".1" stop-color="#afc52c"/><stop offset=".21" stop-color="#999055"/><stop offset=".31" stop-color="#866377"/><stop offset=".41" stop-color="#774193"/><stop offset=".51" stop-color="#6c2aa6"/><stop offset=".59" stop-color="#671bb1"/><stop offset=".66" stop-color="#6516b5"/></linearGradient><linearGradient id="213gce" x1="12.94" x2="-51.55" y1="2965.53" y2="2919.13" gradientUnits="userSpaceOnUse"><stop offset="0" stop-color="#c8ff00"/><stop offset=".1" stop-color="#afc52c"/><stop offset=".21" stop-color="#999055"/><stop offset=".31" stop-color="#866377"/><stop offset=".41" stop-color="#774193"/><stop offset=".51" stop-color="#6c2aa6"/><stop offset=".59" stop-color="#671bb1"/><stop offset=".66" stop-color="#6516b5"/></linearGradient><linearGradient id="213gch" x1="39.36" x2="20.3" y1="2968.44" y2="2952.89" gradientUnits="userSpaceOnUse"><stop offset="0" stop-color="#c8ff00"/><stop offset=".1" stop-color="#afc52c"/><stop offset=".21" stop-color="#999055"/><stop offset=".31" stop-color="#866377"/><stop offset=".41" stop-color="#774193"/><stop offset=".51" stop-color="#6c2aa6"/><stop offset=".59" stop-color="#671bb1"/><stop offset=".66" stop-color="#6516b5"/></linearGradient><linearGradient id="213gcj" x1="40.97" x2="24.33" y1="2982.91" y2="3000.45" gradientUnits="userSpaceOnUse"><stop offset="0" stop-color="#c8ff00"/><stop offset=".1" stop-color="#afc52c"/><stop offset=".21" stop-color="#999055"/><stop offset=".31" stop-color="#866377"/><stop offset=".41" stop-color="#774193"/><stop offset=".51" stop-color="#6c2aa6"/><stop offset=".59" stop-color="#671bb1"/><stop offset=".66" stop-color="#6516b5"/></linearGradient><linearGradient id="213gcl" x1="317.9" x2="321.18" y1="2967.09" y2="2988.27" gradientUnits="userSpaceOnUse"><stop offset="0" stop-color="#c8ff00"/><stop offset=".1" stop-color="#afc52c"/><stop offset=".21" stop-color="#999055"/><stop offset=".31" stop-color="#866377"/><stop offset=".41" stop-color="#774193"/><stop offset=".51" stop-color="#6c2aa6"/><stop offset=".59" stop-color="#671bb1"/><stop offset=".66" stop-color="#6516b5"/></linearGradient></defs><g><g transform="translate(-20 -2868)"><use fill="url(#213gb)" xlink:href="#213ga"/></g><g transform="translate(-20 -2868)"><g><g><g><use fill="#c8ff00" xlink:href="#213gc"/></g><g><use fill="url(#213ge)" xlink:href="#213gd"/></g><g><use fill="#6516b5" xlink:href="#213gf"/></g><g><use fill="#c8ff00" xlink:href="#213gg"/></g></g><g><g><use fill="url(#213gi)" xlink:href="#213gh"/></g><g><use fill="url(#213gk)" xlink:href="#213gj"/></g></g><g><use fill="url(#213gm)" xlink:href="#213gl"/></g><g><use fill="url(#213go)" xlink:href="#213gn"/></g><g><use fill="url(#213gq)" xlink:href="#213gp"/></g><g><use fill="#6516b5" xlink:href="#213gr"/></g><g><use fill="#6516b5" xlink:href="#213gs"/></g><g><use fill="#6516b5" xlink:href="#213gt"/></g><g><use fill="#6516b5" xlink:href="#213gu"/></g><g><use fill="url(#213gw)" xlink:href="#213gv"/></g><g><use fill="url(#213gy)" xlink:href="#213gx"/></g><g><use fill="url(#213gA)" xlink:href="#213gz"/></g><g><g><use fill="url(#213gC)" xlink:href="#213gB"/></g><g><use fill="#c8ff00" xlink:href="#213gD"/></g><g><use fill="url(#213gF)" xlink:href="#213gE"/></g><g><use fill="#c8ff00" xlink:href="#213gG"/></g><g><use fill="url(#213gI)" xlink:href="#213gH"/></g><g><use fill="#c8ff00" xlink:href="#213gJ"/></g><g><use fill="#c8ff00" xlink:href="#213gK"/></g><g><use fill="url(#213gM)" xlink:href="#213gL"/></g><g><use fill="url(#213gO)" xlink:href="#213gN"/></g></g><g><use fill="url(#213gQ)" xlink:href="#213gP"/></g><g><use fill="#6516b5" xlink:href="#213gR"/></g><g><use fill="url(#213gT)" xlink:href="#213gS"/></g></g><g><g><use fill="url(#213gV)" xlink:href="#213gU"/></g><g><use fill="url(#213gX)" xlink:href="#213gW"/></g><g><use fill="url(#213gZ)" xlink:href="#213gY"/></g><g><use fill="#6516b5" xlink:href="#213gaa"/></g><g><use fill="#6516b5" xlink:href="#213gab"/></g><g><use fill="#6516b5" xlink:href="#213gac"/></g><g><use fill="#6516b5" xlink:href="#213gad"/></g><g><use fill="url(#213gaf)" xlink:href="#213gae"/></g><g><use fill="url(#213gah)" xlink:href="#213gag"/></g><g><use fill="url(#213gaj)" xlink:href="#213gai"/></g><g><use fill="url(#213gal)" xlink:href="#213gak"/></g><g><use fill="url(#213gan)" xlink:href="#213gam"/></g><g><use fill="url(#213gap)" xlink:href="#213gao"/></g><g><g><g><use fill="#c8ff00" xlink:href="#213gaq"/></g><g><use fill="url(#213gas)" xlink:href="#213gar"/></g><g><use fill="#6516b5" xlink:href="#213gat"/></g><g><use fill="#c8ff00" xlink:href="#213gau"/></g><g><use fill="#6516b5" xlink:href="#213gav"/></g></g><g><use fill="#c8ff00" xlink:href="#213gaw"/></g></g><g><use fill="url(#213gay)" xlink:href="#213gax"/></g><g><use fill="url(#213gaA)" xlink:href="#213gaz"/></g><g><use fill="url(#213gaC)" xlink:href="#213gaB"/></g><g><use fill="url(#213gaE)" xlink:href="#213gaD"/></g><g><use fill="url(#213gaG)" xlink:href="#213gaF"/></g><g><use fill="url(#213gaI)" xlink:href="#213gaH"/></g><g><use fill="url(#213gaK)" xlink:href="#213gaJ"/></g><g><use fill="url(#213gaM)" xlink:href="#213gaL"/></g><g><use fill="#6516b5" xlink:href="#213gaN"/></g></g><g><g><use fill="url(#213gaP)" xlink:href="#213gaO"/></g><g><use fill="url(#213gaR)" xlink:href="#213gaQ"/></g><g><use fill="url(#213gaT)" xlink:href="#213gaS"/></g><g><g><use fill="#c8ff00" xlink:href="#213gaU"/></g><g><use fill="url(#213gaW)" xlink:href="#213gaV"/></g><g><use fill="#6516b5" xlink:href="#213gaX"/></g></g><g><use fill="#c8ff00" xlink:href="#213gaY"/></g><g><use fill="url(#213gba)" xlink:href="#213gaZ"/></g><g><use fill="url(#213gbc)" xlink:href="#213gbb"/></g><g><use fill="#6516b5" xlink:href="#213gbd"/></g><g><use fill="#6516b5" xlink:href="#213gbe"/></g><g><use fill="url(#213gbg)" xlink:href="#213gbf"/></g><g><use fill="url(#213gbi)" xlink:href="#213gbh"/></g><g><use fill="url(#213gbk)" xlink:href="#213gbj"/></g><g><use fill="#6516b5" xlink:href="#213gbl"/></g><g><use fill="#6516b5" xlink:href="#213gbm"/></g><g><use fill="#6516b5" xlink:href="#213gbn"/></g><g><use fill="#6516b5" xlink:href="#213gbo"/></g></g><g><g><use fill="url(#213gbq)" xlink:href="#213gbp"/></g><g><use fill="url(#213gbs)" xlink:href="#213gbr"/></g><g><use fill="#6516b5" xlink:href="#213gbt"/></g><g><use fill="#6516b5" xlink:href="#213gbu"/></g><g><g><use fill="#c8ff00" xlink:href="#213gbv"/></g><g><use fill="#6516b5" xlink:href="#213gbw"/></g><g><use fill="#c8ff00" xlink:href="#213gbx"/></g><g><use fill="#6516b5" xlink:href="#213gby"/></g><g><use fill="#c8ff00" xlink:href="#213gbz"/></g><g><use fill="url(#213gbB)" xlink:href="#213gbA"/></g><g><use fill="url(#213gbD)" xlink:href="#213gbC"/></g><g><use fill="url(#213gbF)" xlink:href="#213gbE"/></g><g><use fill="#6516b5" xlink:href="#213gbG"/></g><g><use fill="#6516b5" xlink:href="#213gbH"/></g><g><use fill="url(#213gbJ)" xlink:href="#213gbI"/></g><g><use fill="#c8ff00" xlink:href="#213gbK"/></g></g><g><use fill="url(#213gbM)" xlink:href="#213gbL"/></g><g><use fill="url(#213gbO)" xlink:href="#213gbN"/></g><g><use fill="url(#213gbQ)" xlink:href="#213gbP"/></g><g><use fill="url(#213gbS)" xlink:href="#213gbR"/></g><g><use fill="url(#213gbU)" xlink:href="#213gbT"/></g><g><use fill="#6516b5" xlink:href="#213gbV"/></g><g><use fill="#6516b5" xlink:href="#213gbW"/></g><g><use fill="#6516b5" xlink:href="#213gbX"/></g><g><use fill="#6516b5" xlink:href="#213gbY"/></g><g><use fill="#6516b5" xlink:href="#213gbZ"/></g><g><use fill="url(#213gcb)" xlink:href="#213gca"/></g><g><use fill="#6516b5" xlink:href="#213gcc"/></g></g><g><g><use fill="url(#213gce)" xlink:href="#213gcd"/></g><g><use fill="#fff" fill-opacity="0" stroke="#c8ff00" stroke-miterlimit="50" stroke-width="2" xlink:href="#213gcf"/></g><g><use fill="url(#213gch)" xlink:href="#213gcg"/></g></g><g><use fill="url(#213gcj)" xlink:href="#213gci"/></g><g><use fill="url(#213gcl)" xlink:href="#213gck"/></g><g><use fill="#6516b5" xlink:href="#213gcm"/></g><g><use fill="#6516b5" xlink:href="#213gcn"/></g><g><use fill="#6516b5" xlink:href="#213gco"/></g><g><use fill="#6516b5" xlink:href="#213gcp"/></g><g><use fill="#6516b5" xlink:href="#213gcq"/></g></g></g></svg>