<svg xmlns="http://www.w3.org/2000/svg" xmlns:xlink="http://www.w3.org/1999/xlink" width="144.66" height="20.52" viewBox="0 0 144.66 20.52"><defs><path id="idpya" d="M19.37 5022.41v-13.83h91.06v-.38H19v14.6h94.12l-.24-.39h-93.5z"/><path id="idpyb" d="M24.6 5009.88H21.4v10.83h3.23v-5.96l4.16 5.96h3.24v-10.83h-3.24v5.98z"/><path id="idpyc" d="M38.54 5012.68l1.2 3.9h-2.41zm-6 8.03h3.5l.57-1.8h3.86l.56 1.8h3.58l-4.14-10.83H36.7z"/><path id="idpyd" d="M45.29 5009.88v6.46c0 .53.1 1.14.32 1.83.13.43.37.84.73 1.25a3.88 3.88 0 0 0 2.78 1.37c.64.08 1.24.11 1.78.11.93 0 1.74-.12 2.4-.36.48-.17.94-.47 1.37-.9.44-.43.76-.92.97-1.49.2-.57.3-1.18.3-1.81v-6.46h-3.43v6.6c0 .6-.16 1.07-.5 1.4-.34.33-.8.5-1.4.5-.6 0-1.06-.16-1.4-.5-.33-.34-.5-.8-.5-1.4v-6.6H45.3z"/><path id="idpye" d="M63.97 5012.25c.5 0 .92.1 1.25.33.32.22.56.52.7.93l3.3-.57c-.2-.7-.5-1.27-.9-1.73-.4-.46-.9-.79-1.52-1a8.73 8.73 0 0 0-2.76-.33c-1.28 0-2.29.17-3.05.52a4.9 4.9 0 0 0-2.2 2c-.5.87-.75 1.9-.75 3.08 0 1.12.22 2.12.68 3 .46.86 1.1 1.51 1.94 1.96.83.44 1.9.65 3.23.65 1.08 0 2-.12 2.79-.37.78-.24 1.68-.7 2.7-1.38v-4.64h-5.32v2.26h2.32v1.03a6.2 6.2 0 0 1-1.2.56c-.36.1-.73.16-1.12.16-.81 0-1.45-.25-1.9-.75-.47-.5-.69-1.34-.69-2.52 0-1.1.22-1.9.67-2.42a2.32 2.32 0 0 1 1.83-.77z"/><path id="idpyf" d="M82.22 5020.7v-10.82h-3.46v3.8H75v-3.8h-3.43v10.83h3.43v-4.37h3.75v4.37z"/><path id="idpyg" d="M90.46 5020.7v-8.15h3.5v-2.67H83.54v2.67h3.5v8.16z"/><path id="idpyh" d="M101.65 5020.77v-4.54l3.22-4.69c.2-.04.36-.11.44-.26a.58.58 0 0 0 .03-.42l.63-.92h-1.62c-.26-.08-.5-.08-.7 0h-1.46l-2.24 3.64-2.25-3.64H93.9l4.33 6.3v4.53h3.43z"/><path id="idpyi" d="M143.09 5012.4c-.66 0-1.19.23-1.6.68-.4.46-.59 1.22-.59 2.27s.2 1.8.6 2.25c.4.46.93.69 1.61.69.7 0 1.25-.23 1.63-.68.38-.44.58-1.25.58-2.4 0-.99-.2-1.7-.6-2.15-.4-.44-.94-.66-1.63-.66z"/><path id="idpyj" d="M132.68 5017.07c.17-.37.25-.97.25-1.8 0-1.1-.19-1.85-.55-2.26-.37-.41-.98-.61-1.83-.61h-.81v5.67h.8c.69 0 1.17-.08 1.46-.22.3-.15.52-.4.68-.78z"/><path id="idpyk" d="M160.64 5018.98a10.7 10.7 0 0 1-2.57 1.33 8.8 8.8 0 0 1-2.66.35c-1.26 0-2.29-.21-3.08-.63a4.28 4.28 0 0 1-1.84-1.88 6.01 6.01 0 0 1-.65-2.86c0-1.13.24-2.11.72-2.95a4.62 4.62 0 0 1 2.1-1.9c.72-.34 1.68-.51 2.9-.51 1.17 0 2.05.1 2.63.31.58.21 1.06.53 1.45.97.38.44.67.99.87 1.66l-3.17.55a1.7 1.7 0 0 0-.67-.89c-.3-.2-.7-.31-1.18-.31-.72 0-1.3.24-1.73.73-.43.48-.63 1.25-.63 2.3 0 1.13.21 1.92.64 2.4.43.5 1.03.73 1.8.73.37 0 .73-.05 1.06-.15.33-.1.7-.28 1.14-.52v-.98h-2.2v-2.17h5.08v4.42zm-12.8-.78a4.43 4.43 0 0 1-1.8 1.81c-.79.43-1.78.65-2.96.65-1.2 0-2.18-.2-2.97-.56a4.4 4.4 0 0 1-1.9-1.77 5.78 5.78 0 0 1-.73-3.03c0-1.69.49-3 1.45-3.96.96-.94 2.3-1.41 4.02-1.41 1.77 0 3.13.46 4.08 1.38a5.18 5.18 0 0 1 1.43 3.9c.01 1.21-.2 2.21-.61 2.99zm-23.27-10c1.46 1.69 2 3.85-2 5.58 0 0 2.67.78 3.85 2.63v-6.31h4.87c.96 0 1.74.12 2.33.38.59.26 1.08.62 1.46 1.1.39.48.67 1.04.85 1.66.17.64.26 1.3.26 2.02 0 1.1-.13 1.97-.39 2.58a4.4 4.4 0 0 1-1.07 1.54c-.46.41-.95.69-1.48.82-.72.2-1.37.29-1.95.29h-4.87v-.16c-.27.53-.65 1.09-1.16 1.7 0 0-1.07.49-2.34.76h40.72v-14.59z"/><path id="idpyl" d="M118.68 5006.64c.3-.28.2-.86-.22-1.33-.42-.46-1-.6-1.3-.33-.3.27-.2.86.23 1.33.42.45 1 .6 1.3.33z"/><path id="idpym" d="M118.76 5011.17c1.19 1.54 3 2.12 4.03 1.3 1.05-.84.93-2.74-.25-4.28-1.19-1.54-3-2.12-4.04-1.3-1.04.83-.93 2.74.26 4.28z"/><path id="idpyn" d="M112.4 5010.32c1.18 1.54 2.98 2.12 4.02 1.3 1.05-.82.93-2.73-.25-4.27-1.19-1.54-3-2.12-4.04-1.3-1.04.83-.93 2.73.26 4.27z"/><path id="idpyo" d="M103.77 5019.02c.38 0 .73-.12.93-.32-.05 1.25 1.31 2.46 3.15 2.73 1.91.29 3.61-.55 3.8-1.87.19-1.32-1.21-2.62-3.13-2.9-1.68-.26-3.2.36-3.67 1.41-.14-.3-.57-.52-1.08-.52-.62 0-1.12.33-1.12.73 0 .42.5.74 1.12.74z"/><path id="idpyp" d="M125.39 5017.51s-.93-2.85-4.99-3.48c0 0-3.94-1.46-5.61-.41 0 0-4 6.39 0 10.4 0 0 3.3 2.14 4.58-2.39 0 0 7.88 1.4 6.02-4.12z"/><path id="idpyq" d="M110.21 5010.4c-1.73-.88-3.6-.62-4.2.58-.58 1.2.34 2.86 2.06 3.75 1.73.88 3.61.62 4.2-.57.59-1.2-.33-2.88-2.06-3.75z"/><path id="idpyr" d="M111.5 5005.8c.3-.27.21-.86-.2-1.32-.43-.47-1-.62-1.3-.34-.3.27-.2.86.2 1.33.43.46 1 .61 1.3.34z"/><path id="idpys" d="M116.2 5012.23l1.8.12-.8-.79s-.55.45-1 .67z"/></defs><g><g transform="translate(-19 -5004)"><g><g><use fill="#afb1b3" xlink:href="#idpya"/></g><g><use fill="#afb1b3" xlink:href="#idpyb"/></g><g><use fill="#afb1b3" xlink:href="#idpyc"/></g><g><use fill="#afb1b3" xlink:href="#idpyd"/></g><g><use fill="#afb1b3" xlink:href="#idpye"/></g><g><use fill="#afb1b3" xlink:href="#idpyf"/></g><g><use fill="#afb1b3" xlink:href="#idpyg"/></g><g><use fill="#afb1b3" xlink:href="#idpyh"/></g><g><use fill="#afb1b3" xlink:href="#idpyi"/></g><g><use fill="#afb1b3" xlink:href="#idpyj"/></g><g><use fill="#afb1b3" xlink:href="#idpyk"/></g><g><use fill="#afb1b3" xlink:href="#idpyl"/></g><g><use fill="#afb1b3" xlink:href="#idpym"/></g><g><use fill="#afb1b3" xlink:href="#idpyn"/></g><g><use fill="#afb1b3" xlink:href="#idpyo"/></g><g><use fill="#afb1b3" xlink:href="#idpyp"/></g><g><use fill="#afb1b3" xlink:href="#idpyq"/></g><g><use fill="#afb1b3" xlink:href="#idpyr"/></g><g><use fill="#afb1b3" xlink:href="#idpys"/></g></g></g></g></svg>