<svg xmlns="http://www.w3.org/2000/svg" xmlns:xlink="http://www.w3.org/1999/xlink" width="669.42" height="422.29" viewBox="0 0 669.42 422.29"><defs><path id="3qf8a" d="M122.5 6034.28a19.8 19.8 0 0 1-3.5 27.49l-350.54 269.16a8.63 8.63 0 0 1-11.28-13.05l335.95-286.06a19.81 19.81 0 0 1 29.38 2.46z"/><path id="3qf8c" d="M-6.94 6186.35l96.38-150.47a20.51 20.51 0 0 1 35.74 19.93l-77.56 160.96a31.3 31.3 0 1 1-54.56-30.42z"/><path id="3qf8e" d="M417.11 5942.38L42.26 6229.71a33.82 33.82 0 0 1-47.28-6.45 33.56 33.56 0 0 1 6.48-47.12l337.67-254.94c14.84-11.23 61.9-16.34 73.16-1.55 6.44 14.1 19.66 11.5 4.82 22.73z"/><path id="3qf8g" d="M284.62 6077.38l20.72-15.91a1.83 1.83 0 0 1 2.25 2.88l-7.7 6.29 3.73-1.5a3.45 3.45 0 0 1 3.19.13l3.97 2.25c.77.38 1.21 1.2 1.13 2.05l-.23 2.1-.19 1.18a2.05 2.05 0 0 1-2.7 1.62l-4.5-1.53-20.24 15.17z"/><path id="3qf8i" d="M192.16 6113.42l.03 2.52a8.08 8.08 0 0 0 8.13 7.97l49.62-.46c4.43-.05 10.08-3.7 10.04-8.13l-.03-2.52c-.04-4.42-5.77-8.01-10.2-7.97h-49.61c-4.43.05-8.02 4.16-7.98 8.59z"/><path id="3qf8k" d="M293.59 6092.31l-4.68-18.22-43.07 33.38a8.7 8.7 0 0 0-1.74 12.16 8.74 8.74 0 0 0 12.18 1.74z"/><path id="3qf8m" d="M206 6104.83l-3.03 29.88h8.2c5.88 0 25.64-16.56 38.3-29.6z"/><path id="3qf8n" d="M182.59 6272.26l1.57-.4a10.21 10.21 0 0 0 7.34-12.4l-20.4-79.12a10.23 10.23 0 0 0-12.41-7.32l-1.58.4a10.21 10.21 0 0 0-7.33 12.4l20.4 79.12a10.22 10.22 0 0 0 12.4 7.32z"/><path id="3qf8o" d="M111.92 6218.94l-33.42-15.26-29.03 19.84 1.56 2.19a12.73 12.73 0 0 0 16.27 3.84l6.3-3.6c5.95-2.93 10.66-1.95 17.77 1.3 4.44 2.02 20.55-8.31 20.55-8.31z"/><path id="3qf8p" d="M51.5 6227.3l30.12-21.4a2.73 2.73 0 0 0-.45-4.71 2.75 2.75 0 0 0-2.71.25l-30.2 21.3a2.73 2.73 0 0 0-.66 3.8l.09.11a2.73 2.73 0 0 0 3.8.66z"/><path id="3qf8q" d="M188.8 6266.6a11.01 11.01 0 0 0-5.36-14.6L105 6215.44l-20.17 14.96 89.37 41.55c5.49 2.53 12.06.13 14.61-5.36z"/><path id="3qf8s" d="M188.6 6218.83l-27.97 23.72 6.13 34.58 2.64-.53a12.7 12.7 0 0 0 10.2-13.21l-.67-7.21c-.23-6.62 5.84-14.35 11.75-19.5 3.68-3.2-2.09-17.85-2.09-17.85z"/><path id="3qf8u" d="M171.07 6276.85l-7.11-36.24a2.74 2.74 0 0 0-4.48-1.53 2.72 2.72 0 0 0-.89 2.57l6.98 36.25a2.74 2.74 0 0 0 3.2 2.17l.14-.03a2.71 2.71 0 0 0 2.16-3.2z"/><path id="3qf8w" d="M259.93 6170.82a11.05 11.05 0 0 0-15.52-1.15l-62.12 54.22 5.33 24.51 71.17-62.1a11.01 11.01 0 0 0 1.14-15.48z"/><path id="3qf8y" d="M172.8 6188.47l-4.48.6c-8.1.36-15.54.17-18.64-6.1a16.72 16.72 0 0 1-.68-12.73l16.7-47.84c.33-.97.55-1.96.72-2.97 1.36-8.27 9.7-14.77 17.84-14.6h26.8c8.22.18 12.24 8.04 8.42 16.5l-24.31 51.4c-5.06 11.16-11.32 15.24-22.38 15.74z"/><path id="3qf8A" d="M241.4 6082.46l4.57 9.81-7.16.88z"/><path id="3qf8B" d="M216.05 6087.85a13.27 13.27 0 1 1 26.54.02 13.27 13.27 0 0 1-26.54-.02z"/><path id="3qf8D" d="M236.06 6085.87l-.14.03a.9.9 0 0 1-1.06-.7l-.48-2.18a.9.9 0 0 1 .69-1.06l.14-.03a.9.9 0 0 1 1.07.69l.47 2.19a.9.9 0 0 1-.69 1.06z"/><path id="3qf8E" d="M189.25 6064.05h11.94c14.9 0 30.61 1 38.04 13.88h-68.62z"/><path id="3qf8F" d="M223.25 6080.33l-5.7 13.78-6.91-14.38z"/><path id="3qf8G" d="M240.8 6081.1h-29.41l-1.8-3.6H239z"/><path id="3qf8H" d="M177.45 6087.07l1.2-3.6c8.64 0 12.26-1.69 18.08-3.32 4.9-1.38 9.55-2.68 15.08-2.68v3.6c-5.03 0-9.24 1.18-14.1 2.54-5.78 1.63-11.13 3.46-20.26 3.46z"/><path id="3qf8I" d="M187.87 6111.66l-.5-1.18a8.1 8.1 0 0 0-10.57-4.27l-44.02 18.66a8.08 8.08 0 0 0-4.28 10.55l.5 1.18a8.1 8.1 0 0 0 10.57 4.27l44.03-18.66a8.06 8.06 0 0 0 4.27-10.55z"/><path id="3qf8K" d="M93.07 6155.43l3.5 13.83.18.7 1 3.94 41.9-33.1a8.7 8.7 0 0 0 1.43-12.2 8.74 8.74 0 0 0-12.22-1.43z"/><path id="3qf8L" d="M99.88 6168.94l-4.9 3.87a6.04 6.04 0 0 1-2 5.42l-1.75 1.52-.61-2.63-5.48 3.97a2.34 2.34 0 0 1-3.72-1.27l-2.07-8.25c-.22-.9.1-1.83.82-2.4l17.63-13.92 2.86 13.28z"/><path id="3qf8M" d="M197.65 6098.08l-13.34 29.88h-13.3c-15.22 0-25.02-16.11-18.01-29.6z"/><path id="3qf8N" d="M189.14 6117.2h-5.02l-10.88 23.75h.02c-3.11 5.44-9.02 8.6-17.39 8.6l-1.56 4.58c10.62 0 20.51-4.91 24.42-14.12h-.04z"/><path id="3qf8O" d="M262.8 6177.62a11 11 0 0 0-11.01-10.97l-91.56.09a11 11 0 1 0 .03 21.97l91.56-.09a11 11 0 0 0 10.99-11z"/><linearGradient id="3qf8b" x1="-254.55" x2="119.92" y1="6312.15" y2="6040.42" gradientUnits="userSpaceOnUse"><stop offset="0" stop-color="#fff"/><stop offset=".13" stop-color="#f8ffdf"/><stop offset=".33" stop-color="#efffb3"/><stop offset=".52" stop-color="#e7ff91"/><stop offset=".7" stop-color="#e2ff79"/><stop offset=".86" stop-color="#dfff69"/><stop offset="1" stop-color="#deff65"/></linearGradient><linearGradient id="3qf8d" x1="-23.21" x2="147.26" y1="6198.84" y2="6066.57" gradientUnits="userSpaceOnUse"><stop offset="0" stop-color="#c8ff00"/><stop offset=".14" stop-color="#cdff17"/><stop offset=".38" stop-color="#d3ff39"/><stop offset=".61" stop-color="#daff51"/><stop offset=".82" stop-color="#ddff60"/><stop offset="1" stop-color="#deff65"/></linearGradient><linearGradient id="3qf8f" x1="-.65" x2="412.2" y1="6222.28" y2="5925.11" gradientUnits="userSpaceOnUse"><stop offset="0" stop-color="#c8ff00"/><stop offset=".15" stop-color="#afc52c"/><stop offset=".31" stop-color="#999055"/><stop offset=".47" stop-color="#866377"/><stop offset=".62" stop-color="#774193"/><stop offset=".76" stop-color="#6c2aa6"/><stop offset=".89" stop-color="#671bb1"/><stop offset="1" stop-color="#6516b5"/></linearGradient><linearGradient id="3qf8h" x1="293.93" x2="301.94" y1="6075.72" y2="6080.26" gradientUnits="userSpaceOnUse"><stop offset="0" stop-color="#c8ff00"/><stop offset="1" stop-color="#6516b5"/></linearGradient><linearGradient id="3qf8j" x1="227.21" x2="224.75" y1="6102.72" y2="6127.64" gradientUnits="userSpaceOnUse"><stop offset="0" stop-color="#c8ff00"/><stop offset=".1" stop-color="#afc52c"/><stop offset=".21" stop-color="#999055"/><stop offset=".31" stop-color="#866377"/><stop offset=".41" stop-color="#774193"/><stop offset=".51" stop-color="#6c2aa6"/><stop offset=".59" stop-color="#671bb1"/><stop offset=".66" stop-color="#6516b5"/></linearGradient><linearGradient id="3qf8l" x1="264.16" x2="270.97" y1="6087.49" y2="6104.59" gradientUnits="userSpaceOnUse"><stop offset="0" stop-color="#c8ff00"/><stop offset="1" stop-color="#6516b5"/></linearGradient><linearGradient id="3qf8r" x1="138.94" x2="137.32" y1="6219.81" y2="6247.73" gradientUnits="userSpaceOnUse"><stop offset="0" stop-color="#c8ff00"/><stop offset="1" stop-color="#6516b5"/></linearGradient><linearGradient id="3qf8t" x1="177.09" x2="174.4" y1="6221.32" y2="6275.34" gradientUnits="userSpaceOnUse"><stop offset="0" stop-color="#c8ff00"/><stop offset=".1" stop-color="#afc52c"/><stop offset=".21" stop-color="#999055"/><stop offset=".31" stop-color="#866377"/><stop offset=".41" stop-color="#774193"/><stop offset=".51" stop-color="#6c2aa6"/><stop offset=".59" stop-color="#671bb1"/><stop offset=".66" stop-color="#6516b5"/></linearGradient><linearGradient id="3qf8v" x1="160.86" x2="168.88" y1="6239.08" y2="6279.14" gradientUnits="userSpaceOnUse"><stop offset="0" stop-color="#c8ff00"/><stop offset=".1" stop-color="#afc52c"/><stop offset=".21" stop-color="#999055"/><stop offset=".31" stop-color="#866377"/><stop offset=".41" stop-color="#774193"/><stop offset=".51" stop-color="#6c2aa6"/><stop offset=".59" stop-color="#671bb1"/><stop offset=".66" stop-color="#6516b5"/></linearGradient><linearGradient id="3qf8x" x1="202.15" x2="219.78" y1="6194.62" y2="6205.85" gradientUnits="userSpaceOnUse"><stop offset="0" stop-color="#c8ff00"/><stop offset="1" stop-color="#6516b5"/></linearGradient><linearGradient id="3qf8z" x1="184.78" x2="184.11" y1="6110.4" y2="6167.9" gradientUnits="userSpaceOnUse"><stop offset="0" stop-color="#c8ff00"/><stop offset=".04" stop-color="#c1ee0c"/><stop offset=".2" stop-color="#a0a248"/><stop offset=".35" stop-color="#876677"/><stop offset=".47" stop-color="#753b99"/><stop offset=".57" stop-color="#6920ad"/><stop offset=".63" stop-color="#6516b5"/></linearGradient><linearGradient id="3qf8C" x1="242.02" x2="221.61" y1="6085.41" y2="6091.44" gradientUnits="userSpaceOnUse"><stop offset="0" stop-color="#c8ff00"/><stop offset="1" stop-color="#6516b5"/></linearGradient><linearGradient id="3qf8J" x1="157.84" x2="158.9" y1="6110.92" y2="6141.43" gradientUnits="userSpaceOnUse"><stop offset="0" stop-color="#c8ff00"/><stop offset=".1" stop-color="#afc52c"/><stop offset=".21" stop-color="#999055"/><stop offset=".31" stop-color="#866377"/><stop offset=".41" stop-color="#774193"/><stop offset=".51" stop-color="#6c2aa6"/><stop offset=".59" stop-color="#671bb1"/><stop offset=".66" stop-color="#6516b5"/></linearGradient><linearGradient id="3qf8P" x1="212.49" x2="206.03" y1="6155.77" y2="6177.68" gradientUnits="userSpaceOnUse"><stop offset="0" stop-color="#c8ff00"/><stop offset="1" stop-color="#6516b5"/></linearGradient></defs><g><g transform="translate(245.53 -5910.51)"><g><g><use fill="url(#3qf8b)" xlink:href="#3qf8a"/></g><g><use fill="url(#3qf8d)" xlink:href="#3qf8c"/></g><g><use fill="url(#3qf8f)" xlink:href="#3qf8e"/></g></g><g><g><use fill="url(#3qf8h)" xlink:href="#3qf8g"/></g><g><use fill="url(#3qf8j)" xlink:href="#3qf8i"/></g><g><use fill="url(#3qf8l)" xlink:href="#3qf8k"/></g><g><use fill="#c8ff00" xlink:href="#3qf8m"/></g><g><use fill="#6516b5" xlink:href="#3qf8n"/></g><g><g><use fill="#6516b5" xlink:href="#3qf8o"/></g><g><use fill="#6516b5" xlink:href="#3qf8p"/></g><g><use fill="url(#3qf8r)" xlink:href="#3qf8q"/></g></g><g><g><use fill="url(#3qf8t)" xlink:href="#3qf8s"/></g><g><use fill="url(#3qf8v)" xlink:href="#3qf8u"/></g><g><use fill="url(#3qf8x)" xlink:href="#3qf8w"/></g></g><g><use fill="url(#3qf8z)" xlink:href="#3qf8y"/></g><g><g><use fill="#c8ff00" xlink:href="#3qf8A"/></g><g><use fill="url(#3qf8C)" xlink:href="#3qf8B"/></g><g><use fill="#6516b5" xlink:href="#3qf8D"/></g><g><use fill="#c8ff00" xlink:href="#3qf8E"/></g><g><use fill="#c8ff00" xlink:href="#3qf8F"/></g><g><use fill="#6516b5" xlink:href="#3qf8G"/></g><g><use fill="#6516b5" xlink:href="#3qf8H"/></g></g><g><use fill="url(#3qf8J)" xlink:href="#3qf8I"/></g><g><use fill="#6516b5" xlink:href="#3qf8K"/></g><g><use fill="#6516b5" xlink:href="#3qf8L"/></g><g><use fill="#c8ff00" xlink:href="#3qf8M"/></g><g><use fill="#c8ff00" xlink:href="#3qf8N"/></g><g><use fill="url(#3qf8P)" xlink:href="#3qf8O"/></g></g></g></g></svg>