<svg xmlns="http://www.w3.org/2000/svg" xmlns:xlink="http://www.w3.org/1999/xlink" width="94" height="28" viewBox="0 0 94 28"><defs><path id="cs1va" d="M231.92 4698.39h9.14V4695H228v4.92c0 1.7 1.46 3.08 3.26 3.08H244v-3.7h-11.11a.94.94 0 0 1-.97-.91z"/><path id="cs1vb" d="M209.19 4685a4.4 4.4 0 0 0-4.27 4.38 4.4 4.4 0 0 0 4.43 4.37h4.99c2.02.76 3.71 2.73 3.71 5.02 0 2.96-2.75 5.34-5.75 5.34H200v3.89h12.8a9.13 9.13 0 0 0 9.19-9.07c0-5-4.44-9.06-9.52-9.06v.04l-.02-.04h-2.93a.65.65 0 0 1-.66-.66c0-.36.3-.65.66-.65H222V4685h-12.81z"/><path id="cs1vc" d="M228 4688.08v4.92h13.05v-3.38h-9.13c0-.51.44-.93.98-.93H244V4685h-12.73c-1.8 0-3.27 1.38-3.27 3.08z"/><path id="cs1vd" d="M200.01 4690.07c0 5.01 4.45 9.06 9.53 9.06v-.04l.02.04h2.93c.36 0 .66.3.66.66 0 .36-.3.65-.66.65H200v3.56h12.8a4.4 4.4 0 0 0 4.27-4.38c0-2.4-1.98-4.37-4.43-4.37h-4.99c-2.02-.76-3.71-2.73-3.71-5.02 0-2.96 2.75-5.34 5.75-5.34H222V4681h-12.8a9.13 9.13 0 0 0-9.19 9.07z"/><path id="cs1ve" d="M255.89 4688.86H267V4685h-12.74a3.24 3.24 0 0 0-3.26 3.21v11.58a3.23 3.23 0 0 0 3.26 3.21h7.84v-8.69h-6.21v3.88h2.28v.97h-2.28a.97.97 0 0 1-.98-.97v-8.36a.99.99 0 0 1 .98-.97z"/><path id="cs1vf" d="M286.14 4684.48a6.3 6.3 0 0 0-6.08-4.48 6.3 6.3 0 0 0-6.07 4.48l-7.22 21.56v-15.87h-11.04v3.5h7.13v10.5h-9.73a3.21 3.21 0 0 1-3.24-3.18v-13.36a3.2 3.2 0 0 1 3.24-3.17h13.62v-3.82h-13.94c-3.77 0-6.81 3-6.81 6.68v14a6.75 6.75 0 0 0 6.8 6.68H270l7.89-22.69c.29-1.04 1.15-1.8 2.17-1.8s1.88.76 2.17 1.8l6.55 18.84h-10.33v3.85H294z"/><path id="cs1vg" d="M280.28 4695.01l1.55 4.31h-3.07zm-1.6 8.19H288l-5.49-15.74c-.27-.89-1.12-3.46-2.13-3.46-1 0-1.84 2.56-2.12 3.46L271 4708h4.67l3-8.5v3.7z"/><path id="cs1vh" d="M224 4687.61v13.75c0 3.67 3.1 6.64 6.89 6.64H245v-3.79h-13.78a3.22 3.22 0 0 1-3.28-3.15v-13.12a3.22 3.22 0 0 1 3.28-3.15H245V4681h-14.11a6.74 6.74 0 0 0-6.89 6.61z"/></defs><g><g transform="translate(-200 -4680)"><g><use fill="#afb1b3" xlink:href="#cs1va"/></g><g><use fill="#afb1b3" xlink:href="#cs1vb"/></g><g><use fill="#afb1b3" xlink:href="#cs1vc"/></g><g><use fill="#afb1b3" xlink:href="#cs1vd"/></g><g><use fill="#afb1b3" xlink:href="#cs1ve"/></g><g><use fill="#afb1b3" xlink:href="#cs1vf"/></g><g><use fill="#afb1b3" xlink:href="#cs1vg"/></g><g><use fill="#afb1b3" xlink:href="#cs1vh"/></g></g></g></svg>