<svg xmlns="http://www.w3.org/2000/svg" xmlns:xlink="http://www.w3.org/1999/xlink"><defs><path id="4qhoa" d="M276.38 875.24l9.23 8.89c1 .97 2.63.97 3.64 0 1-.97 1-2.54 0-3.51l-9.23-8.9c-1-.96-2.64-.96-3.64 0-1 .98-1 2.55 0 3.52zm-27.68 44.7l-9.47-9.13c-.94-.9-2.46-.9-3.4 0s-.94 2.38 0 3.28l9.46 9.12c.94.9 2.47.9 3.4 0 .95-.9.95-2.37 0-3.28zm-9.38-35.76l9.3-8.98c.98-.94.98-2.49 0-3.44a2.58 2.58 0 0 0-3.58 0l-9.3 8.98a2.37 2.37 0 0 0 0 3.44 2.6 2.6 0 0 0 3.58 0zm46.33 26.7l-9.3 8.98a2.37 2.37 0 0 0 0 3.43c.97.95 2.57.95 3.56 0l9.3-8.97c.98-.94.98-2.49 0-3.43a2.58 2.58 0 0 0-3.56 0zm-7.7-28.53a22.67 22.67 0 0 0-31.22 0 20.73 20.73 0 0 0 0 30.09c8.62 8.3 22.6 8.3 31.22 0a20.73 20.73 0 0 0 0-30.09z"/><path id="4qhob" d="M244 898c0-9.94 8.5-18 19-18s19 8.06 19 18-8.5 18-19 18-19-8.06-19-18z"/><path id="4qhoc" d="M258.3 904H250v-1.47h8.3zm15.7-5.09v1.47h-13.75v-1.47zm-15.62 1.47h-2.66v-1.47h2.66zm15.61-3.62h-18.28v-1.47H274zm.01-5.1v1.48h-8.4v-1.47zm-10.11 1.48h-8.18v-1.47h8.18zm-.01-3.67H250V888h13.88z"/><path id="e0eha" d="M579.68 917.53l1.85-4.54a15.68 15.68 0 0 1-3.77-3.45l-4.7 1.96-2.87-6.24 4.69-1.96a14.56 14.56 0 0 1-.11-4.98l-4.77-1.76 2.6-6.36 4.77 1.77a15.58 15.58 0 0 1 3.62-3.59l-2.06-4.46 6.57-2.74 2.06 4.46a16.38 16.38 0 0 1 5.23-.1l1.86-4.54 6.67 2.47-1.85 4.54c1.44.94 2.72 2.1 3.77 3.45l4.7-1.96 2.87 6.24-4.69 1.96c.32 1.64.36 3.33.11 4.98l4.77 1.76-2.6 6.36-4.77-1.77a15.58 15.58 0 0 1-3.62 3.59l2.06 4.46-6.57 2.74-2.06-4.46a16.38 16.38 0 0 1-5.23.1l-1.86 4.54z"/><path id="e0ehb" d="M619.94 920v-4.85a16.32 16.32 0 0 1-4.81-1.9l-3.6 3.43-5.05-4.8 3.6-3.42a14.7 14.7 0 0 1-1.99-4.58H603v-6.78h5.1a14.7 14.7 0 0 1 1.99-4.57l-3.6-3.43 5.03-4.8 3.6 3.44a16.32 16.32 0 0 1 4.82-1.9V881h7.12v4.84c1.7.38 3.33 1.02 4.81 1.9l3.6-3.43 5.05 4.8-3.6 3.43a14.7 14.7 0 0 1 1.99 4.57H644v6.78h-5.1a14.7 14.7 0 0 1-1.99 4.57l3.6 3.43-5.03 4.8-3.6-3.43a16.32 16.32 0 0 1-4.82 1.9V920h-7.12z"/><path id="e0ehc" d="M618.1 895.76a6.94 6.94 0 0 0-9.23 0l-3.37 3.1-.01-.02-4.62 4.25a5.05 5.05 0 0 1-6.7 0 4.12 4.12 0 0 1 0-6.18 5.05 5.05 0 0 1 6.7 0l.63.58 1.27-1.16-.63-.57a6.94 6.94 0 0 0-9.23 0 5.67 5.67 0 0 0 0 8.48 6.82 6.82 0 0 0 4.61 1.75c1.67 0 3.35-.58 4.62-1.75l3.36-3.1.02.02 4.61-4.25a5.05 5.05 0 0 1 6.71 0 4.12 4.12 0 0 1 0 6.18 5.05 5.05 0 0 1-6.7 0l-.64-.58-1.26 1.16.63.58a6.82 6.82 0 0 0 4.61 1.75c1.67 0 3.35-.59 4.62-1.75a5.68 5.68 0 0 0 0-8.49z"/><path id="62qpa" d="M944 905v-3h37v3z"/><path id="62qpb" d="M946.18 924.98c0-1.66-1.45-3.02-3.2-3.02H922.9c-1.76 0-3.2 1.36-3.2 3.02s1.44 3.02 3.2 3.02h20.06c1.76 0 3.2-1.35 3.2-3.02zm0-42.96c0-1.66-1.45-3.02-3.2-3.02H922.9c-1.76 0-3.2 1.36-3.2 3.02s1.44 3.02 3.2 3.02h20.06c1.76 0 3.2-1.36 3.2-3.02zm36.8 14.85c-3.89 0-7.03 2.97-7.03 6.63 0 3.66 3.14 6.63 7.02 6.63 3.89 0 7.03-2.97 7.03-6.63 0-3.66-3.14-6.63-7.03-6.63zm-10.96.11h-3.37v13.05h3.37zm-8.32-3.5h-3.37v20.03h3.37zm-8.3-3.82h-3.38v27.68h3.37zm-39.8 27.63h30.22c.45 0 .8-.33.8-.75v-26.07a.77.77 0 0 0-.8-.76h-30.21c-8.07 0-14.61 6.17-14.61 13.79 0 7.62 6.54 13.8 14.6 13.8z"/><path id="62qpc" d="M929.02 900.05l-1.48-.98-6.68 8.87 1.48.98zm-10.87 7.82l-3.73-3.9 3.62-3.84-1.36-1.12-4.68 4.98 4.8 5.01zm19.85-3.9l-4.68-4.97-1.36 1.13 3.62 3.84-3.73 3.9 1.35 1.13z"/><path id="ksaba" d="M1126.84 315.88H1164v36.93a53.45 53.45 0 0 1-35.2 12.82c-25.23 0-43.98-17.65-43.98-42.58v-.24c0-24 18.53-42.81 43.53-42.81 14.23 0 24.3 4.35 32.88 11.89l-13.2 16.23c-5.8-4.94-11.46-7.77-19.57-7.77-11.69 0-20.72 9.88-20.72 22.47v.24c0 13.4 9.15 22.93 22 22.93 5.55 0 9.72-1.18 12.96-3.41v-10h-15.86zm-71.3 9.28v-43.51h22.23v82.32h-19.57l-34.72-45.16v45.16h-22.23v-82.32h20.95zm-64.48 38.81h-22.43v-82.32h22.43zm-71.66-31.03v-16.7h37.16v36.94a53.45 53.45 0 0 1-35.2 12.82c-25.23 0-43.98-17.65-43.98-42.58v-.24c0-24 18.52-42.8 43.53-42.8 14.23 0 24.3 4.34 32.88 11.87l-13.2 16.23c-5.78-4.94-11.46-7.76-19.56-7.76-11.7 0-20.72 9.88-20.72 22.46v.24c0 13.4 9.14 22.93 21.99 22.93 5.56 0 9.72-1.18 12.97-3.4v-10zm-71.3-7.41v-43.51h22.23v82.32h-19.57l-34.72-45.16v45.16H793.8v-82.32h20.95zm-94 6.24l-9.03-23.29-9.14 23.3zm1.97-50.34l34.5 82.92h-24.08l-5.79-14.82h-31.37l-5.8 14.82h-23.49l34.38-82.92zM645.4 364.34h-22.46v-82.32h22.46v30.81h28.83v-30.81h22.45v82.32h-22.45v-31.29H645.4zM582.09 366c-4.95 0-9.69-.82-14.09-2.36v-25.78a18.1 18.1 0 0 0 14.67 7.32c8.45 0 13.43-4 18.29-10l16.9 12.23c-7.64 10.7-17.94 18.59-35.77 18.59zM568 308.47v-25.6a44.5 44.5 0 0 1 14.9-2.5c16.56 0 27.2 7.05 34.38 17.06l-16.9 13.3c-4.63-5.77-9.95-9.65-17.7-9.65a18.15 18.15 0 0 0-14.68 7.39z"/><path id="amwva" d="M536.36 382.86H569v19.5h-54.86v-82.7H569v19.37h-32.64v12.64H569v18.08h-32.64zm-55.66-63.2h23.72v82.7H482.1v-47.5l-20.7 32.37h-.47l-20.6-32.25v47.37h-21.98v-82.69h23.72l19.32 32.01zm-102.03 49.98l-9.03-23.4-9.14 23.4zm1.96-50.57l34.48 83.28h-24.07l-5.78-14.89H353.9l-5.79 14.89h-23.48L359 319.07zM286 354.03h37.13v37.1A53.28 53.28 0 0 1 287.96 404c-25.22 0-43.96-17.72-43.96-42.76V361c0-24.1 18.51-43 43.5-43 14.23 0 24.3 4.37 32.85 11.93l-13.19 16.3c-5.78-4.96-11.45-7.8-19.55-7.8-11.69 0-20.7 9.92-20.7 22.56v.24c0 13.47 9.13 23.04 21.97 23.04 5.56 0 9.72-1.19 12.96-3.43V370.8H286z"/><path id="ohmla" d="M235.3 47.99V1.38h46.61v46.61z"/><path id="ohmlb" d="M239.32 42.16v-2.91h17.48v2.91z"/><path id="ohmlc" d="M239.12 13.65l1.35-1.28c.37.44.72.7 1.2.7.51 0 .85-.35.85-1.06V7.2h2.1v4.82c0 .95-.24 1.63-.75 2.14-.5.5-1.22.77-2.08.77a3.1 3.1 0 0 1-2.67-1.28z"/><path id="ohmld" d="M245.11 7.2h6.11v1.78h-4.02v1.16h3.64v1.66h-3.64V13h4.08v1.8h-6.17z"/><path id="ohmle" d="M253.98 9.05h-2.27V7.2h6.66v1.84h-2.29v5.76h-2.1z"/><path id="ohmlf" d="M244 21.76v.02c0 .44-.35.7-1 .7h-1.62v-1.4h1.6c.7 0 1.02.27 1.02.68zm-.3-2.83v.02c0 .45-.36.67-1 .67h-1.32v-1.35h1.37c.62 0 .96.23.96.66zm-4.37 5.23h3.91c1.81 0 2.88-.79 2.88-2.09v-.02c0-1.03-.59-1.55-1.51-1.85.67-.3 1.17-.82 1.17-1.7v-.01c0-.53-.18-.93-.49-1.24-.44-.43-1.12-.67-2.07-.67h-3.9z"/><path id="ohmlg" d="M249.93 20.22c.7 0 1.12-.34 1.12-.9v-.02c0-.6-.44-.9-1.13-.9h-1.38v1.83h1.39zm-3.5-3.64h3.6c1.15 0 1.95.3 2.47.81.44.45.67 1.03.67 1.77v.02c0 1.17-.62 1.94-1.56 2.34l1.8 2.66H251l-1.53-2.3h-.93v2.3h-2.11z"/><path id="ohmlh" d="M257.47 21.16l-.85-2.15-.85 2.15zm-1.84-4.64h2.03l3.23 7.65h-2.25l-.55-1.36h-2.94l-.54 1.36h-2.21z"/><path id="ohmli" d="M261.14 16.58h2.1v7.6h-2.1z"/><path id="ohmlj" d="M263.77 16.58h1.96l3.12 4.02v-4.02h2.1v7.6h-1.84L265.85 20v4.17h-2.09v-7.6z"/><path id="ohmlk" d="M271.08 23.04l1.17-1.4c.76.6 1.59.91 2.46.91.58 0 .88-.2.88-.52v-.02c0-.32-.25-.48-1.29-.73-1.62-.37-2.86-.83-2.86-2.38v-.02c0-1.4 1.11-2.43 2.94-2.43 1.29 0 2.3.34 3.12 1l-1.05 1.5a3.7 3.7 0 0 0-2.12-.75c-.51 0-.76.2-.76.49v.02c0 .34.26.5 1.32.74 1.74.38 2.82.94 2.82 2.36v.02c0 1.56-1.23 2.48-3.07 2.48a5.36 5.36 0 0 1-3.56-1.27z"/><path id="1miua" d="M36.87 2161.06c0 .9-.74 1.63-1.65 1.63-.9 0-1.64-.74-1.64-1.63 0-.9.74-1.63 1.64-1.63.92 0 1.65.73 1.65 1.63zm5.01-3.64H28.56v-19.55h13.32zm2.58 2.7v-20.56a4.6 4.6 0 0 0-4.62-4.56h-9.22a4.6 4.6 0 0 0-4.62 4.56v20.57a4.59 4.59 0 0 0 4.62 4.55h9.22a4.59 4.59 0 0 0 4.62-4.55z"/><path id="f41da" d="M212.88 2150.9h10.23c1.07 0 1.62 1.16.86 1.84a8.91 8.91 0 0 1-5.97 2.22 8.96 8.96 0 0 1-5.98-2.22c-.76-.68-.21-1.85.86-1.85zm10.69-4.75h-.47a.77.77 0 0 1-.77-.77v-3.86c0-.42.35-.76.77-.76h.47c.42 0 .76.34.76.76v3.86c0 .42-.34.77-.76.77zm-11.33 0h-.48a.77.77 0 0 1-.76-.77v-3.86c0-.42.35-.76.76-.76h.48c.41 0 .76.34.76.76v3.86c0 .42-.34.77-.76.77zM218 2134c-7.18 0-13 5.6-13 12.5s5.82 12.5 13 12.5 13-5.6 13-12.5-5.82-12.5-13-12.5z"/><path id="v95na" d="M57.98 1837.9l-1.87 3.09 1.87 3.09-3.28 11.9-12.24-3.2-1.82-3.1-3.68.03-8.96-8.72 8.97-8.72 3.68.03 1.8-3.1 12.25-3.2zm-23.8 1.62h10.75l5.39-9.06-9.38 2.34zm16.14 12l-5.39-9.06H34.17l6.77 6.72zm5.2-10.53l-2.6-9.06-5.37 9.06 5.38 9.06z"/><path id="ak9cb" d="M33.38 568.97l-7-6.95H37.5l5.56 9.37zm6.83-8.46l5.56-9.38 2.69 9.38-2.69 9.37zm-6.83-8.48l9.68-2.42-5.56 9.37H26.38zM47.6 545l-12.66 3.3-1.88 3.22-3.8-.03L20 560.5l9.27 9.01 3.8-.02 1.88 3.21L47.6 576 51 563.7l-1.93-3.2 1.93-3.19z"/><path id="ak9cc" d="M75.82 553.41a4 4 0 0 0-3.64 2h-.08v-1.67h-2.93v12.24h3v-6.94c0-1.67 1.06-2.81 2.5-2.81 1.36 0 2.38.8 2.38 2.24v7.51h3V558c0-2.67-1.7-4.58-4.23-4.58"/><path id="ak9cd" d="M64.6 560.8c0 1.63-.94 2.77-2.47 2.77-1.39 0-2.26-.79-2.26-2.22v-7.61h-3.01v8.16c0 2.67 1.53 4.41 4.26 4.41 1.73 0 2.69-.64 3.52-1.76h.08v1.43h2.89v-12.24H64.6z"/><path id="ak9ca" d="M20 575h84.83v-30.6H20z"/><path id="ak9cf" d="M81.63 565.99h3v-12.24h-3z"/><path id="ak9cg" d="M81.63 552.39h3v-2.46h-3z"/><path id="ak9ch" d="M101.62 553.75l-1.78 5.51a29.2 29.2 0 0 0-.72 2.67h-.08s-.4-1.55-.79-2.67l-2.02-5.51h-3.21l3.3 8.7c.7 1.87.94 2.66.94 3.33 0 1-.53 1.67-1.82 1.67h-1.15V570h1.92c2.49 0 3.35-.98 4.29-3.7l4.33-12.55z"/><path id="ak9ci" d="M90.24 562.39v-6.5h1.91v-2.14h-1.91v-3.82h-2.99v3.82h-1.7v2.15h1.7v7.18c0 2.31 1.75 2.93 3.33 2.93 1.3 0 1.64-.05 1.64-.05v-2.36h-.76c-.72 0-1.22-.3-1.22-1.21"/><clipPath id="ak9ce"><use xlink:href="#ak9ca"/></clipPath><path id="a59ia" d="M229.73 1832.66c.82.18 1.66.38 2.5.53.16.03.42 0 .52-.11a18.03 18.03 0 0 1 8.67-4.66c.09-.02.19-.03.28-.06.03 0 .05.03.15.05-.24.29-.47.54-.67.82-.91 1.18-1.8 2.37-2.74 3.54a4 4 0 0 0-.9 2.68c.06 4.11.07 8.23.1 12.33.02.63.63 1.07 1.4.93.46-.07.92-.22 1.34-.42 1.3-.6 2.37-1.47 3.35-2.5.09-.08.17-.18.27-.25-1.8 4.12-4.83 7.17-8.59 9.65-1.09-.92-2.17-1.84-3.09-2.6-1.06.95-2.13 1.83-3.1 2.81-.5.5-.92.7-1.63.56a20.65 20.65 0 0 1-7.55-2.63 9.95 9.95 0 0 1-2.6-2.28c-.08-.08-.13-.17-.2-.27.45 0 .87.02 1.29 0 .6-.04.91-.3 1.02-.9.05-.19.06-.4.06-.61v-10.8c.02-.98-.77-1.66-1.72-1.37-.64.19-1.28.54-1.8.96a25.18 25.18 0 0 0-5.66 6.93c-.1.13-.16.26-.32.54-.05-.34-.09-.57-.1-.78a9.96 9.96 0 0 1 1.61-5.67c3.2-5.29 7.63-9.25 13.43-11.64.48-.2 1-.33 1.54-.44-.34.27-.69.52-1.01.81a4.86 4.86 0 0 0-1.85 4.45c.03.27.09.53.19.79.22.56.64.75 1.24.6l.43-.11v13.98c0 1.23.93 2.18 2.21 2.16.48-.01.97-.21 1.44-.35.17-.04.32-.15.48-.23 1.68-.95 1.68-.95 1.68-2.86 0-3.35-.01-6.7.01-10.04a3.96 3.96 0 0 0-1.42-3.06c-.1-.1-.22-.18-.33-.27a.9.9 0 0 0 .07-.21z"/></defs><symbol id="achieve1" viewBox="0 0 55 53"><g><g transform="translate(-235 -871)"><g><use fill="#6516b5" xlink:href="#4qhoa"/></g><g><use fill="#6516b5" xlink:href="#4qhob"/></g><g><use fill="#fff" xlink:href="#4qhoc"/></g></g></g></symbol><symbol id="achieve2" viewBox="0 0 74 39"><g><g transform="translate(-570 -881)"><g><use fill="#6516b5" xlink:href="#e0eha"/></g><g><use fill="#6516b5" xlink:href="#e0ehb"/></g><g><use fill="#fff" xlink:href="#e0ehc"/></g></g></g></symbol><symbol id="achieve3" viewBox="0 0 89 49"><g><g transform="translate(-901 -879)"><g><use fill="#6516b5" xlink:href="#62qpa"/></g><g><use fill="#6516b5" xlink:href="#62qpb"/></g><g><use fill="#fff" xlink:href="#62qpc"/></g></g></g></symbol><symbol id="changing" viewBox="0 0 596 86"><g><g transform="translate(-568 -280)"><use fill="#fff" xlink:href="#ksaba"/></g></g></symbol><symbol id="game" viewBox="0 0 325 86"><g><g transform="translate(-244 -318)"><use fill="#fff" xlink:href="#amwva"/></g></g></symbol><symbol id="logo" viewBox="0 0 46.61 46.61"><g><g transform="translate(-235.3 -1.38)"><g><g><use fill="#010a0a" xlink:href="#ohmla"/></g><g><use fill="#fff" xlink:href="#ohmlb"/></g><g><g><use fill="#fff" xlink:href="#ohmlc"/></g><g><use fill="#fff" xlink:href="#ohmld"/></g><g><use fill="#fff" xlink:href="#ohmle"/></g><g><use fill="#fff" xlink:href="#ohmlf"/></g><g><use fill="#fff" xlink:href="#ohmlg"/></g><g><use fill="#fff" xlink:href="#ohmlh"/></g><g><use fill="#fff" xlink:href="#ohmli"/></g><g><use fill="#fff" xlink:href="#ohmlj"/></g><g><use fill="#fff" xlink:href="#ohmlk"/></g></g></g></g></g></symbol><symbol id="mobile-icon" viewBox="0 0 18.46 29.68"><g><g transform="translate(-26 -2135)"><use xlink:href="#1miua"/></g></g></symbol><symbol id="smile-icon" viewBox="0 0 26 25"><g><g transform="translate(-205 -2134)"><use xlink:href="#f41da"/></g></g></symbol><symbol id="unity-icon" viewBox="0 0 29.98 29.98"><g><g transform="translate(-28 -1826)"><use xlink:href="#v95na"/></g></g></symbol><symbol id="unity" viewBox="0 0 84.83 31.6"><g><g transform="translate(-20 -544.4)"><g><use fill="#fdfdfd" xlink:href="#ak9cb"/></g><g><g><use fill="#fdfdfd" xlink:href="#ak9cc"/></g><g><use fill="#fdfdfd" xlink:href="#ak9cd"/></g><g/><g clip-path="url(#ak9ce)"><use fill="#fdfdfd" xlink:href="#ak9cf"/></g><g clip-path="url(#ak9ce)"><use fill="#fdfdfd" xlink:href="#ak9cg"/></g><g clip-path="url(#ak9ce)"><use fill="#fdfdfd" xlink:href="#ak9ch"/></g><g clip-path="url(#ak9ce)"><use fill="#fdfdfd" xlink:href="#ak9ci"/></g></g></g></g></symbol><symbol id="unreal-icon" viewBox="0 0 34 29"><g><g transform="translate(-210 -1827)"><use xlink:href="#a59ia"/></g></g></symbol></svg>