<svg xmlns="http://www.w3.org/2000/svg" xmlns:xlink="http://www.w3.org/1999/xlink" width="62" height="112" viewBox="0 0 62 112"><defs><path id="a" d="M1307 989.62l60 34.37V914.01z"/><path id="b" d="M1344.92 993h2.22v-3.78h-2.22zm-3.84-15.24c0-1.4.46-2.61 1.38-3.63a4.39 4.39 0 0 1 3.39-1.53c1.24 0 2.33.42 3.27 1.26a4.02 4.02 0 0 1 1.41 3.12c0 .88-.25 1.67-.75 2.37-.26.36-.85.96-1.77 1.81-.92.85-1.65 1.75-2.19 2.69-.6 1.08-.9 2.2-.9 3.36h2.22c0-1.26.49-2.46 1.47-3.6l2.7-2.79a5.44 5.44 0 0 0 1.44-3.6 6.59 6.59 0 0 0-6.69-6.75c-.98 0-1.9.17-2.76.51a6.83 6.83 0 0 0-3.8 3.64 6.1 6.1 0 0 0-.55 2.51v.63z"/></defs><g transform="translate(-1306 -913)"><use fill="#121212" xlink:href="#a"/><g><use fill="#ecd9b9" xlink:href="#b"/></g></g></svg>